{"glyphs":{"0":{"ha":608,"x_min":45,"x_max":563,"o":"m 461 363 q 451 504 461 446 q 421 598 441 562 q 372 651 401 635 q 304 667 342 667 q 238 651 267 667 q 189 600 209 635 q 158 511 169 566 q 147 378 147 456 q 158 236 147 294 q 188 142 168 178 q 237 90 208 106 q 304 73 266 73 q 370 90 340 73 q 419 141 399 106 q 450 231 439 176 q 461 363 461 286 m 563 376 q 543 189 563 264 q 487 69 522 114 q 403 6 451 24 q 299 -13 355 -13 q 198 6 244 -13 q 117 68 151 24 q 64 185 83 113 q 45 366 45 258 q 65 546 45 472 q 122 666 86 621 q 206 733 158 712 q 309 753 254 753 q 411 733 365 753 q 491 668 458 713 q 544 551 525 623 q 563 376 563 479 z "},"1":{"ha":608,"x_min":119,"x_max":385,"o":"m 376 241 q 376 183 376 216 q 378 117 377 151 q 381 52 379 83 q 385 0 383 21 l 279 0 l 279 639 l 132 545 l 119 637 l 279 741 l 376 741 l 376 241 z "},"2":{"ha":608,"x_min":60,"x_max":547,"o":"m 547 0 l 60 0 l 60 85 q 134 143 95 111 q 213 214 174 176 q 287 293 252 252 q 350 375 323 334 q 394 455 378 416 q 410 530 410 495 q 398 591 410 566 q 366 632 386 616 q 319 655 345 648 q 267 663 294 663 q 218 655 243 663 q 170 636 193 648 q 124 606 146 623 q 85 568 102 589 l 64 654 q 103 694 79 675 q 157 725 127 712 q 219 746 186 739 q 284 753 252 753 q 371 739 330 753 q 444 696 412 724 q 493 629 475 669 q 512 541 512 589 q 496 454 512 498 q 455 367 481 410 q 397 283 430 324 q 329 206 363 243 q 260 138 294 170 q 198 83 226 107 l 328 83 q 460 84 403 83 q 547 92 517 85 l 547 0 z "},"3":{"ha":608,"x_min":56,"x_max":553,"o":"m 243 441 q 315 452 281 441 q 375 480 349 463 q 416 519 401 497 q 431 566 431 542 q 419 610 431 591 q 389 641 408 629 q 346 658 370 652 q 299 664 322 664 q 244 660 270 664 q 196 647 219 656 q 152 623 174 638 q 109 586 130 608 l 92 673 q 128 705 106 690 q 176 730 150 720 q 233 747 203 741 q 294 753 262 753 q 384 741 341 753 q 458 707 426 729 q 509 652 490 684 q 528 578 528 619 q 512 514 528 544 q 473 463 497 485 q 421 426 450 440 q 366 406 392 411 q 425 388 392 401 q 486 352 457 376 q 533 292 514 328 q 553 205 553 256 q 530 121 553 161 q 469 51 507 81 q 381 4 431 22 q 277 -13 332 -13 q 153 10 209 -13 q 56 71 96 33 l 68 180 q 164 104 110 133 q 287 76 218 76 q 346 85 316 76 q 400 111 376 94 q 439 154 424 128 q 454 216 454 180 q 438 272 454 247 q 394 316 422 298 q 327 345 366 334 q 243 355 288 355 l 208 355 l 208 441 l 243 441 z "},"4":{"ha":608,"x_min":45,"x_max":571,"o":"m 474 200 l 474 0 l 378 0 l 378 200 l 45 200 l 45 279 l 378 751 l 474 751 l 474 279 l 571 279 l 571 200 l 474 200 m 134 279 l 378 279 l 378 624 l 134 279 z "},"5":{"ha":608,"x_min":66,"x_max":538,"o":"m 98 741 l 507 741 l 507 644 q 450 652 479 650 q 389 654 421 654 l 193 654 l 193 467 q 226 470 204 469 q 277 471 248 471 q 379 454 331 471 q 462 407 427 437 q 517 334 497 376 q 538 241 538 292 q 517 135 538 182 q 460 55 496 87 q 373 4 423 22 q 262 -13 322 -13 q 208 -10 233 -13 q 159 -1 182 -7 q 112 16 135 5 q 66 41 90 26 l 81 147 q 129 113 106 127 q 174 92 151 100 q 219 82 196 85 q 269 79 242 79 q 338 89 307 79 q 393 120 370 100 q 429 170 416 140 q 441 238 441 199 q 424 304 441 277 q 380 348 407 331 q 321 372 354 364 q 258 380 289 380 q 219 378 238 380 q 182 373 201 376 q 142 363 163 369 q 98 348 122 357 l 98 741 z "},"6":{"ha":608,"x_min":56,"x_max":566,"o":"m 502 609 q 434 653 469 642 q 363 664 399 664 q 284 648 320 664 q 220 598 248 633 q 176 507 193 563 q 155 372 159 452 q 238 432 193 409 q 338 454 283 454 q 433 438 391 454 q 504 394 475 422 q 550 325 534 365 q 566 238 566 286 q 547 133 566 180 q 493 54 528 87 q 410 4 458 22 q 304 -13 362 -13 q 199 12 245 -13 q 121 82 153 36 q 72 195 89 129 q 56 345 56 261 q 62 440 56 391 q 83 534 68 488 q 121 619 98 579 q 179 689 144 659 q 261 736 214 719 q 368 753 307 753 q 410 751 390 753 q 449 744 430 749 q 486 730 467 739 q 524 707 505 721 l 502 609 m 328 366 q 231 347 274 366 q 156 295 187 328 q 170 212 159 252 q 202 142 182 172 q 252 94 222 112 q 319 76 281 76 q 380 87 353 76 q 426 118 407 98 q 456 163 446 137 q 467 220 467 190 q 431 327 467 288 q 328 366 396 366 z "},"7":{"ha":608,"x_min":51,"x_max":553,"o":"m 139 0 q 203 196 170 108 q 273 363 236 285 q 351 513 309 441 q 441 657 393 584 l 243 657 q 126 655 172 657 q 51 647 80 652 l 51 741 l 553 741 l 553 660 q 361 340 439 505 q 233 0 283 176 l 139 0 z "},"8":{"ha":608,"x_min":45,"x_max":563,"o":"m 304 -13 q 209 2 255 -13 q 126 45 162 17 q 67 113 90 73 q 45 205 45 154 q 56 276 45 245 q 86 330 68 307 q 129 372 105 354 q 177 404 153 390 q 144 424 162 412 q 112 455 127 437 q 86 500 96 474 q 76 560 76 526 q 96 643 76 607 q 149 704 116 679 q 224 741 182 728 q 309 753 266 753 q 393 741 353 753 q 465 704 433 728 q 514 643 496 679 q 532 560 532 607 q 523 500 532 526 q 498 457 513 475 q 466 426 483 439 q 433 404 448 413 q 477 375 454 393 q 519 333 500 357 q 551 277 538 309 q 563 205 563 245 q 541 113 563 154 q 483 45 519 73 q 399 2 446 17 q 304 -13 353 -13 m 436 560 q 426 610 436 589 q 397 645 415 631 q 355 666 380 659 q 304 673 331 673 q 253 666 277 673 q 211 645 229 659 q 183 610 193 631 q 173 560 173 589 q 183 508 173 531 q 211 470 193 486 q 253 447 229 455 q 304 439 277 439 q 355 447 331 439 q 397 470 380 455 q 426 508 415 486 q 436 560 436 531 m 461 216 q 449 274 461 248 q 416 320 437 300 q 367 350 395 339 q 304 360 338 360 q 241 350 270 360 q 191 320 212 339 q 159 274 170 300 q 147 216 147 248 q 159 155 147 182 q 191 111 170 129 q 241 83 212 92 q 304 73 270 73 q 367 83 338 73 q 416 111 395 92 q 449 155 437 129 q 461 216 461 182 z "},"9":{"ha":608,"x_min":57,"x_max":565,"o":"m 121 132 q 188 87 153 98 q 259 76 222 76 q 339 92 302 76 q 403 144 376 108 q 446 238 430 180 q 465 379 463 296 q 381 320 428 342 q 283 297 335 297 q 189 314 231 297 q 118 359 147 330 q 73 427 88 388 q 57 509 57 465 q 78 612 57 566 q 134 689 99 657 q 215 737 169 720 q 313 753 262 753 q 418 727 372 753 q 498 654 465 701 q 548 541 530 607 q 565 395 565 475 q 559 300 565 349 q 538 206 553 252 q 500 121 524 161 q 442 52 477 81 q 361 4 408 22 q 254 -13 315 -13 q 212 -11 232 -13 q 173 -3 192 -9 q 136 11 155 2 q 98 33 117 19 l 121 132 m 296 385 q 390 407 347 385 q 463 463 433 429 q 448 540 459 504 q 418 604 437 576 q 370 648 399 631 q 302 664 342 664 q 241 654 269 664 q 195 625 214 644 q 165 582 176 607 q 155 526 155 556 q 165 466 155 492 q 195 422 176 439 q 239 395 214 404 q 296 385 265 385 z "}," ":{"ha":307,"x_min":0,"x_max":0,"o":""},"!":{"ha":388,"x_min":114,"x_max":251,"o":"m 139 223 q 137 339 138 278 q 135 467 136 399 q 130 609 134 534 q 119 766 126 684 l 248 766 q 237 609 241 684 q 232 467 233 534 q 230 339 231 399 q 228 223 229 278 l 139 223 m 114 56 q 119 82 114 70 q 134 104 125 95 q 156 119 144 113 q 182 124 168 124 q 209 119 197 124 q 231 104 221 113 q 245 82 240 95 q 251 56 251 70 q 245 29 251 41 q 231 7 240 17 q 209 -7 221 -2 q 182 -13 197 -13 q 156 -7 168 -13 q 134 7 144 -2 q 119 29 125 17 q 114 56 114 41 z "},"\"":{"ha":520,"x_min":122,"x_max":398,"o":"m 142 530 q 140 585 141 557 q 137 647 139 614 q 131 719 135 680 q 122 804 127 758 l 226 804 q 217 719 220 758 q 211 647 214 680 q 208 585 209 614 q 205 530 206 557 l 142 530 m 315 530 q 313 585 314 557 q 310 647 312 614 q 304 719 307 680 q 294 804 300 758 l 398 804 q 389 719 393 758 q 383 647 385 680 q 380 585 381 614 q 378 530 379 557 l 315 530 z "},"#":{"ha":609,"x_min":13,"x_max":596,"o":"m 43 563 l 196 563 l 247 741 l 323 741 l 273 563 l 412 563 l 463 741 l 538 741 l 488 563 l 596 563 l 596 487 l 466 487 l 431 368 l 566 368 l 566 292 l 410 292 l 355 101 l 280 101 l 334 292 l 195 292 l 140 101 l 64 101 l 119 292 l 13 292 l 13 368 l 140 368 l 174 487 l 43 487 l 43 563 m 216 368 l 356 368 l 390 487 l 251 487 l 216 368 z "},"$":{"ha":609,"x_min":78,"x_max":530,"o":"m 482 572 q 411 605 442 593 q 347 621 379 617 l 347 402 q 425 371 391 389 q 483 329 459 353 q 518 276 506 306 q 530 210 530 247 q 516 134 530 169 q 478 73 503 100 q 419 29 453 47 q 347 4 386 11 l 347 -111 l 281 -111 l 281 0 q 164 20 217 3 q 78 63 111 37 l 98 159 q 187 103 142 121 q 281 82 233 85 l 281 329 l 274 331 q 184 367 219 347 q 130 410 150 387 q 103 460 111 433 q 96 516 96 486 q 107 574 96 543 q 140 631 117 604 q 197 677 162 658 q 281 703 232 697 l 281 812 l 347 812 l 347 703 q 425 691 389 701 q 500 663 460 681 l 482 572 m 442 201 q 438 229 442 216 q 425 255 435 243 q 396 280 414 268 q 347 306 377 293 l 347 88 q 384 104 367 94 q 414 128 401 114 q 435 160 427 142 q 442 201 442 178 m 186 522 q 189 493 186 507 q 203 468 193 480 q 232 446 213 456 q 281 423 250 435 l 281 621 q 241 607 259 616 q 212 584 224 597 q 193 554 199 570 q 186 522 186 538 z "},"%":{"ha":774,"x_min":51,"x_max":723,"o":"m 640 186 q 636 249 640 224 q 624 290 632 275 q 603 313 616 306 q 573 319 591 319 q 545 313 557 319 q 524 292 532 307 q 512 253 516 277 q 509 193 509 229 q 512 130 509 155 q 524 88 516 104 q 544 65 532 72 q 573 58 556 58 q 602 64 589 58 q 623 86 614 71 q 635 126 631 102 q 640 186 640 151 m 723 192 q 712 97 723 136 q 681 33 701 58 q 632 -2 661 9 q 571 -13 604 -13 q 511 -2 538 -13 q 464 33 484 9 q 434 95 445 57 q 424 186 424 133 q 435 278 424 240 q 467 342 446 317 q 515 379 487 367 q 576 391 543 391 q 636 379 609 391 q 683 343 663 368 q 712 281 702 319 q 723 192 723 243 m 628 751 l 233 -13 l 148 -13 l 545 751 l 628 751 m 267 546 q 262 610 267 584 q 250 651 258 635 q 230 673 242 667 q 199 680 217 680 q 171 673 183 680 q 151 652 159 667 q 139 613 142 637 q 135 553 135 589 q 139 489 135 515 q 150 448 142 463 q 170 425 158 432 q 199 418 182 418 q 228 425 216 418 q 249 447 241 432 q 262 487 258 463 q 267 546 267 511 m 350 553 q 339 457 350 496 q 307 394 328 418 q 259 359 287 370 q 198 348 231 348 q 138 359 165 348 q 91 394 111 370 q 61 455 72 418 q 51 547 51 493 q 62 639 51 600 q 93 702 73 677 q 141 739 113 727 q 202 751 169 751 q 262 739 235 751 q 309 703 290 728 q 339 642 328 679 q 350 553 350 604 z "},"&":{"ha":620,"x_min":28,"x_max":596,"o":"m 248 753 q 305 744 277 753 q 354 716 332 734 q 388 670 375 697 q 401 609 401 644 q 392 564 401 587 q 366 515 382 541 q 328 465 350 490 q 279 413 305 439 q 303 379 291 397 q 329 345 316 362 q 385 266 359 302 q 434 199 410 229 q 471 245 455 222 q 495 289 487 268 l 547 220 q 523 179 538 201 q 486 134 507 157 q 550 67 523 91 q 596 35 576 43 q 578 21 589 29 q 557 5 568 13 q 537 -8 547 -3 q 520 -13 527 -13 q 486 10 509 -13 q 427 77 463 33 q 380 42 405 58 q 330 14 355 26 q 277 -6 304 1 q 223 -13 250 -13 q 145 3 180 -13 q 83 46 109 18 q 42 110 57 73 q 28 190 28 147 q 36 245 28 218 q 62 299 45 271 q 106 356 79 326 q 171 420 134 385 q 105 515 132 470 q 79 604 79 561 q 94 674 79 646 q 133 721 109 703 q 188 746 157 739 q 248 753 218 753 m 271 289 q 245 325 258 307 q 219 359 232 342 q 172 311 191 333 q 140 269 153 289 q 122 231 128 250 q 117 193 117 212 q 124 150 117 171 q 146 113 132 129 q 182 86 161 96 q 231 76 203 76 q 301 95 262 76 q 376 144 339 115 q 327 212 353 176 q 271 289 300 248 m 160 609 q 179 548 160 581 q 229 476 199 515 q 296 552 272 519 q 319 612 319 585 q 313 642 319 628 q 295 665 307 655 q 270 680 284 675 q 241 685 256 685 q 212 680 226 685 q 186 664 197 674 q 167 640 174 654 q 160 609 160 626 z "},"'":{"ha":267,"x_min":101,"x_max":205,"o":"m 122 530 q 120 585 121 557 q 117 647 119 614 q 111 719 115 680 q 101 804 107 758 l 205 804 q 196 719 200 758 q 191 647 193 680 q 188 585 189 614 q 186 530 186 557 l 122 530 z "},"(":{"ha":404,"x_min":58,"x_max":319,"o":"m 58 317 q 74 477 58 400 q 119 620 90 553 q 190 740 149 686 q 281 831 231 794 l 319 753 q 243 667 275 715 q 192 564 212 619 q 163 447 172 509 q 155 317 155 385 q 163 190 155 250 q 192 74 172 130 q 243 -34 212 18 q 319 -135 275 -86 l 271 -208 q 112 31 166 -99 q 58 317 58 161 z "},")":{"ha":404,"x_min":83,"x_max":345,"o":"m 345 317 q 291 31 345 161 q 132 -208 237 -99 l 83 -135 q 209 74 170 -37 q 248 317 248 184 q 239 442 248 380 q 209 560 229 504 q 157 666 189 616 q 83 753 126 715 l 122 831 q 213 740 172 794 q 283 620 254 686 q 329 477 313 553 q 345 317 345 400 z "},"*":{"ha":522,"x_min":64,"x_max":439,"o":"m 284 812 q 279 765 281 786 q 276 727 277 745 q 275 692 275 709 q 274 660 274 676 q 330 699 302 678 q 398 751 358 719 l 433 688 q 392 668 410 677 q 357 650 373 659 q 326 634 340 642 q 297 619 311 627 q 327 604 312 611 q 359 590 342 597 q 395 575 376 583 q 439 558 415 568 l 401 495 q 363 522 380 510 q 331 543 346 533 q 302 561 315 553 q 274 578 288 570 q 276 545 275 562 q 278 511 277 529 q 282 472 280 493 q 289 426 285 451 l 218 426 q 225 511 223 477 q 228 578 227 546 q 201 560 214 570 q 172 539 187 551 q 141 515 157 528 q 104 487 124 503 l 68 551 q 111 570 92 561 q 146 587 130 579 q 177 603 162 595 q 205 619 191 611 q 175 633 191 627 q 143 647 160 640 q 106 662 126 654 q 64 680 87 670 l 101 743 q 139 716 122 728 q 172 695 157 705 q 200 676 186 685 q 228 660 214 668 q 222 727 227 692 q 211 812 218 761 l 284 812 z "},"+":{"ha":609,"x_min":79,"x_max":530,"o":"m 79 410 l 267 410 l 267 599 l 342 599 l 342 410 l 530 410 l 530 335 l 342 335 l 342 145 l 267 145 l 267 335 l 79 335 l 79 410 z "},",":{"ha":329,"x_min":94,"x_max":236,"o":"m 94 76 q 103 98 96 88 q 119 113 110 107 q 140 123 129 119 q 162 126 151 126 q 191 120 177 126 q 214 104 204 115 q 230 78 224 93 q 236 43 236 62 q 214 -49 236 -3 q 147 -137 192 -95 l 96 -117 q 119 -89 107 -106 q 142 -54 132 -73 q 158 -14 152 -35 q 165 25 165 6 l 94 25 l 94 76 z "},"-":{"ha":583,"x_min":54,"x_max":529,"o":"m 54 478 l 529 478 l 529 376 l 54 376 l 54 478 z "},".":{"ha":325,"x_min":94,"x_max":231,"o":"m 94 56 q 99 82 94 70 q 114 104 104 95 q 135 119 123 113 q 162 124 148 124 q 189 119 176 124 q 210 104 201 113 q 225 82 220 95 q 231 56 231 70 q 225 29 231 41 q 210 7 220 17 q 189 -7 201 -2 q 162 -13 176 -13 q 135 -7 148 -13 q 114 7 123 -2 q 99 29 104 17 q 94 56 94 41 z "},"/":{"ha":507,"x_min":5,"x_max":502,"o":"m 502 812 l 81 -124 l 5 -124 l 426 812 l 502 812 z "},":":{"ha":325,"x_min":94,"x_max":231,"o":"m 94 401 q 99 428 94 415 q 114 450 104 440 q 135 465 123 459 q 162 470 148 470 q 189 465 176 470 q 210 450 201 459 q 225 428 220 440 q 231 401 231 415 q 225 374 231 387 q 210 353 220 362 q 189 338 201 343 q 162 332 176 332 q 135 338 148 332 q 114 353 123 343 q 99 374 104 362 q 94 401 94 387 m 94 56 q 99 82 94 70 q 114 104 104 95 q 135 119 123 113 q 162 124 148 124 q 189 119 176 124 q 210 104 201 113 q 225 82 220 95 q 231 56 231 70 q 225 29 231 41 q 210 7 220 17 q 189 -7 201 -2 q 162 -13 176 -13 q 135 -7 148 -13 q 114 7 123 -2 q 99 29 104 17 q 94 56 94 41 z "},";":{"ha":329,"x_min":94,"x_max":236,"o":"m 94 401 q 99 428 94 415 q 114 450 104 440 q 135 465 123 459 q 162 470 148 470 q 189 465 176 470 q 210 450 201 459 q 225 428 220 440 q 231 401 231 415 q 225 374 231 387 q 210 353 220 362 q 189 338 201 343 q 162 332 176 332 q 135 338 148 332 q 114 353 123 343 q 99 374 104 362 q 94 401 94 387 m 94 76 q 103 98 96 88 q 119 113 110 107 q 140 123 129 119 q 162 126 151 126 q 191 120 177 126 q 214 104 204 115 q 230 78 224 93 q 236 43 236 62 q 214 -49 236 -3 q 147 -137 192 -95 l 96 -117 q 119 -89 107 -106 q 142 -54 132 -73 q 158 -14 152 -35 q 165 25 165 6 l 94 25 l 94 76 z "},"<":{"ha":609,"x_min":51,"x_max":547,"o":"m 547 124 l 51 328 l 51 414 l 547 616 l 547 525 l 147 370 l 547 216 l 547 124 z "},"=":{"ha":609,"x_min":60,"x_max":547,"o":"m 60 319 l 547 319 l 547 243 l 60 243 l 60 319 m 60 497 l 547 497 l 547 420 l 60 420 l 60 497 z "},">":{"ha":609,"x_min":60,"x_max":558,"o":"m 60 616 l 558 414 l 558 328 l 60 124 l 60 216 l 461 370 l 60 525 l 60 616 z "},"?":{"ha":532,"x_min":71,"x_max":420,"o":"m 233 781 q 314 770 279 781 q 372 740 349 760 q 408 691 396 720 q 420 629 420 663 q 414 585 420 606 q 396 546 407 565 q 369 508 385 526 q 338 470 354 489 q 306 426 318 447 q 286 377 293 404 q 276 313 279 350 q 274 223 274 277 l 180 223 q 184 320 180 278 q 196 394 188 361 q 217 451 204 426 q 246 497 229 475 q 298 568 279 539 q 317 624 317 596 q 312 647 317 635 q 296 669 307 659 q 266 686 285 680 q 219 692 247 692 q 156 679 189 692 q 94 635 123 665 l 71 726 q 101 748 83 738 q 141 766 119 758 q 186 777 162 773 q 233 781 210 781 m 160 56 q 165 82 160 70 q 180 104 171 95 q 201 119 189 113 q 228 124 214 124 q 255 119 242 124 q 277 104 267 113 q 292 82 286 95 q 297 56 297 70 q 292 29 297 41 q 277 7 286 17 q 255 -7 267 -2 q 228 -13 242 -13 q 201 -7 214 -13 q 180 7 189 -2 q 165 29 171 17 q 160 56 160 41 z "},"@":{"ha":863,"x_min":48,"x_max":814,"o":"m 814 355 q 799 242 814 292 q 758 160 783 193 q 700 109 732 126 q 634 92 667 92 q 592 104 611 92 q 559 138 573 117 q 538 188 546 159 q 528 248 530 216 q 500 197 517 224 q 463 147 484 170 q 418 109 441 124 q 373 93 395 93 q 322 103 347 93 q 276 136 296 114 q 243 191 256 157 q 231 269 231 224 q 244 366 231 319 q 286 449 258 413 q 353 506 313 485 q 446 528 393 528 q 481 525 462 528 q 520 519 500 523 q 560 509 541 515 q 596 497 580 504 l 596 319 q 612 198 596 235 q 650 160 627 160 q 679 171 663 160 q 709 205 695 182 q 733 261 724 227 q 743 340 743 294 q 724 458 743 403 q 667 555 705 514 q 572 621 629 597 q 441 644 516 644 q 321 620 379 644 q 219 551 263 595 q 149 445 175 507 q 122 307 122 382 q 147 159 122 224 q 216 47 172 93 q 317 -23 259 1 q 441 -48 375 -48 q 512 -38 477 -48 q 581 -5 547 -28 l 634 -60 q 591 -84 615 -73 q 541 -103 567 -95 q 487 -115 514 -111 q 433 -119 459 -119 q 290 -93 359 -119 q 166 -14 220 -66 q 80 115 113 38 q 48 292 48 191 q 81 475 48 396 q 168 607 113 554 q 295 687 223 660 q 446 713 368 713 q 595 688 528 713 q 712 615 663 663 q 787 502 760 568 q 814 355 814 436 m 431 459 q 376 445 399 459 q 337 407 353 431 q 315 354 322 384 q 307 292 307 323 q 313 233 307 258 q 330 193 319 209 q 353 170 340 177 q 380 162 366 162 q 405 172 391 162 q 433 199 418 182 q 461 237 447 216 q 487 281 475 259 q 507 326 498 304 q 520 366 516 348 l 520 441 q 484 453 507 447 q 431 459 460 459 z "},"A":{"ha":707,"x_min":20,"x_max":677,"o":"m 20 0 q 34 32 26 16 q 50 70 41 49 q 68 117 58 91 q 92 180 79 144 l 294 741 l 404 741 l 606 180 q 629 118 619 144 q 648 70 640 91 q 664 32 656 49 q 677 0 671 15 l 573 0 l 504 195 l 192 195 l 124 0 l 20 0 m 348 642 l 220 274 l 477 274 l 348 642 z "},"B":{"ha":652,"x_min":81,"x_max":578,"o":"m 186 433 l 284 433 q 354 442 325 433 q 403 467 384 451 q 432 505 422 483 q 441 553 441 526 q 409 638 441 609 q 299 667 376 667 q 268 666 284 667 q 235 666 251 666 q 207 665 220 665 q 186 664 193 665 l 186 433 m 89 507 q 89 580 89 545 q 88 646 89 616 q 86 701 87 677 q 81 741 84 726 q 123 742 98 741 q 177 744 148 743 q 239 745 207 745 q 304 745 272 745 q 405 736 361 745 q 479 707 449 728 q 525 652 509 686 q 541 568 541 618 q 531 511 541 536 q 504 465 521 485 q 465 430 488 445 q 416 406 442 416 q 474 384 446 397 q 526 349 503 371 q 564 294 549 327 q 578 213 578 260 q 563 127 578 167 q 515 58 548 87 q 431 12 483 28 q 307 -5 380 -5 q 232 -5 269 -5 q 165 -4 195 -5 q 114 -2 136 -3 q 81 0 92 -1 q 86 39 84 15 q 88 93 87 63 q 89 158 89 123 q 89 231 89 193 l 89 507 m 186 79 q 233 77 199 78 q 309 76 267 76 q 372 83 342 76 q 427 105 403 90 q 465 147 451 121 q 479 213 479 174 q 436 319 479 283 q 304 355 393 355 l 186 355 l 186 79 z "},"C":{"ha":688,"x_min":48,"x_max":624,"o":"m 624 71 q 572 35 602 50 q 509 8 542 19 q 442 -7 475 -2 q 380 -13 409 -13 q 242 13 303 -13 q 137 88 180 39 q 71 206 94 137 q 48 360 48 275 q 77 532 48 458 q 153 655 105 606 q 262 729 200 704 q 391 753 323 753 q 504 738 446 753 q 616 682 562 723 l 586 591 q 487 650 538 634 q 391 667 437 667 q 293 648 338 667 q 216 593 248 629 q 165 501 183 556 q 147 373 147 446 q 165 250 147 304 q 215 156 183 195 q 290 97 247 117 q 385 76 334 76 q 444 83 414 76 q 502 102 473 90 q 556 131 530 114 q 604 170 582 149 l 624 71 z "},"D":{"ha":728,"x_min":81,"x_max":667,"o":"m 89 507 q 89 580 89 545 q 88 646 89 616 q 86 701 87 677 q 81 741 84 726 q 126 742 98 741 q 187 744 154 743 q 253 745 220 745 q 312 745 286 745 q 376 741 339 745 q 452 723 413 736 q 530 685 492 709 q 599 619 568 660 q 648 518 629 578 q 667 376 667 458 q 650 243 667 300 q 605 143 633 185 q 540 72 577 100 q 463 26 503 43 q 380 2 422 9 q 302 -5 339 -5 q 274 -5 290 -5 q 240 -4 258 -5 q 203 -4 222 -4 q 167 -3 184 -3 q 81 0 125 -1 q 85 39 84 15 q 87 93 87 63 q 88 158 88 123 q 89 231 88 193 l 89 507 m 186 83 q 232 80 203 82 q 297 79 260 79 q 397 94 348 79 q 484 144 446 110 q 545 232 522 178 q 568 366 568 287 q 547 508 568 450 q 488 600 525 565 q 403 649 452 634 q 299 664 354 664 q 271 664 287 664 q 239 664 255 664 q 210 663 224 663 q 186 663 195 663 l 186 83 z "},"E":{"ha":588,"x_min":81,"x_max":528,"o":"m 474 429 l 474 348 l 186 348 l 186 83 l 319 83 q 446 84 394 83 q 528 92 497 85 l 528 0 l 81 0 q 88 88 87 31 q 89 220 89 145 l 89 520 q 88 653 89 595 q 81 741 87 710 l 512 741 l 512 657 l 186 657 l 186 429 l 474 429 z "},"F":{"ha":583,"x_min":81,"x_max":522,"o":"m 479 423 l 479 342 l 186 342 l 186 220 q 186 87 186 145 q 193 0 187 30 l 81 0 q 88 88 87 31 q 89 220 89 145 l 89 517 q 88 652 89 593 q 81 741 87 710 l 522 741 l 522 657 l 186 657 l 186 423 l 479 423 z "},"G":{"ha":720,"x_min":48,"x_max":647,"o":"m 647 79 q 573 33 608 51 q 506 5 538 16 q 442 -9 473 -5 q 378 -13 411 -13 q 246 12 307 -13 q 141 85 185 37 q 73 203 98 133 q 48 366 48 274 q 76 529 48 456 q 150 651 103 601 q 261 727 197 701 q 398 753 325 753 q 458 751 429 753 q 516 740 487 748 q 575 719 545 732 q 639 682 606 705 l 606 591 q 551 628 578 614 q 499 651 524 643 q 448 663 473 660 q 398 667 423 667 q 293 646 340 667 q 214 589 247 626 q 164 498 182 551 q 147 378 147 444 q 164 252 147 308 q 211 157 180 196 q 286 97 242 118 q 384 76 330 76 q 427 78 406 76 q 467 86 447 80 q 507 101 486 92 q 551 124 527 110 l 551 294 l 373 294 l 373 378 l 647 378 l 647 79 z "},"H":{"ha":748,"x_min":81,"x_max":654,"o":"m 551 0 l 551 342 l 186 342 l 186 0 l 81 0 q 88 88 87 31 q 89 220 89 145 l 89 520 q 88 653 89 595 q 81 741 87 710 l 186 741 l 186 423 l 551 423 l 551 741 l 654 741 q 648 653 648 710 q 647 520 647 595 l 647 220 q 648 88 647 145 q 654 0 648 31 l 551 0 z "},"I":{"ha":495,"x_min":71,"x_max":414,"o":"m 414 741 l 414 667 l 289 667 l 289 73 l 414 73 l 414 0 l 71 0 l 71 73 l 193 73 l 193 667 l 71 667 l 71 741 l 414 741 z "},"J":{"ha":490,"x_min":18,"x_max":395,"o":"m 395 741 l 395 271 q 379 138 395 192 q 334 50 363 83 q 264 2 305 16 q 175 -13 224 -13 q 135 -9 157 -13 q 92 1 113 -6 q 51 19 70 8 q 18 45 31 30 l 41 139 q 101 94 66 109 q 173 79 137 79 q 224 89 201 79 q 264 119 247 98 q 290 171 281 140 q 299 246 299 203 l 299 497 q 298 636 299 572 q 292 741 297 700 l 395 741 z "},"K":{"ha":664,"x_min":81,"x_max":624,"o":"m 186 399 l 470 741 l 591 741 l 283 393 l 624 0 l 500 0 l 186 363 l 186 0 l 81 0 q 88 88 87 31 q 89 220 89 145 l 89 520 q 88 653 89 595 q 81 741 87 710 l 186 741 l 186 399 z "},"L":{"ha":547,"x_min":81,"x_max":520,"o":"m 299 83 q 432 84 374 83 q 520 92 490 85 l 520 0 l 81 0 q 88 88 87 31 q 89 220 89 145 l 89 520 q 88 653 89 595 q 81 741 87 710 l 186 741 l 186 83 l 299 83 z "},"M":{"ha":910,"x_min":81,"x_max":817,"o":"m 231 741 l 449 104 l 669 741 l 781 741 q 793 408 787 559 q 799 278 796 342 q 805 157 802 213 q 811 60 808 102 q 817 0 814 18 l 723 0 l 709 608 l 500 0 l 401 0 l 191 607 l 175 0 l 81 0 q 86 60 83 18 q 92 157 89 102 q 98 278 95 213 q 104 408 101 342 q 117 741 111 559 l 231 741 z "},"N":{"ha":761,"x_min":81,"x_max":667,"o":"m 173 583 l 173 0 l 81 0 q 88 88 87 31 q 89 220 89 145 l 89 520 q 88 653 89 595 q 81 741 87 710 l 173 741 l 576 155 l 576 741 l 667 741 q 661 653 662 710 q 660 520 660 595 l 660 0 l 576 0 l 173 583 z "},"O":{"ha":741,"x_min":48,"x_max":680,"o":"m 581 363 q 566 489 581 433 q 522 584 550 545 q 453 643 493 623 q 366 664 414 664 q 277 644 317 664 q 208 587 237 624 q 163 497 179 549 q 147 378 147 444 q 163 253 147 309 q 207 157 178 197 q 276 97 235 118 q 366 76 316 76 q 452 95 412 76 q 520 152 491 115 q 565 242 549 189 q 581 363 581 295 m 680 376 q 652 212 680 284 q 581 90 625 140 q 478 14 536 40 q 360 -13 421 -13 q 243 12 299 -13 q 143 85 186 37 q 74 203 100 133 q 48 366 48 274 q 75 529 48 456 q 148 651 102 601 q 251 727 193 701 q 370 753 309 753 q 487 729 431 753 q 585 656 543 704 q 654 537 628 608 q 680 376 680 467 z "},"P":{"ha":606,"x_min":81,"x_max":566,"o":"m 186 220 q 186 87 186 145 q 193 0 187 30 l 81 0 q 88 88 87 31 q 89 220 89 145 l 89 507 q 89 580 89 545 q 88 646 89 616 q 86 701 87 677 q 81 741 84 726 q 149 743 113 741 q 218 745 179 744 q 297 745 256 745 q 408 731 358 745 q 493 689 458 718 q 547 620 528 661 q 566 522 566 578 q 547 422 566 467 q 494 346 528 377 q 409 298 459 315 q 297 281 359 281 q 239 282 269 281 q 186 287 210 283 l 186 220 m 186 366 q 235 361 210 362 q 289 360 260 360 q 377 373 342 360 q 433 406 412 385 q 462 454 454 427 q 470 512 470 481 q 461 570 470 543 q 432 618 452 597 q 377 652 411 640 q 292 664 342 664 q 260 664 274 664 q 233 664 245 664 q 210 663 221 663 q 186 663 199 663 l 186 366 z "},"Q":{"ha":748,"x_min":48,"x_max":739,"o":"m 680 376 q 671 278 680 326 q 647 190 663 231 q 606 113 631 148 q 547 54 581 79 q 642 4 596 24 q 739 -23 688 -16 q 726 -42 734 -30 q 710 -67 719 -55 q 690 -88 701 -79 q 669 -97 680 -97 q 640 -90 659 -97 q 600 -72 622 -83 q 554 -48 578 -61 q 508 -25 530 -36 q 470 -7 487 -14 q 444 0 453 0 q 402 -10 422 -7 q 357 -13 381 -13 q 240 12 296 -13 q 142 85 184 37 q 74 203 99 133 q 48 366 48 274 q 75 529 48 456 q 148 651 102 601 q 251 727 193 701 q 370 753 309 753 q 488 729 431 753 q 587 656 544 704 q 654 537 629 608 q 680 376 680 467 m 581 363 q 566 489 581 433 q 522 584 550 545 q 453 643 493 623 q 366 664 414 664 q 277 644 317 664 q 208 587 237 624 q 163 497 179 549 q 147 378 147 444 q 163 253 147 309 q 207 157 178 197 q 276 97 235 118 q 366 76 316 76 q 452 95 412 76 q 520 152 491 115 q 565 242 549 189 q 581 363 581 295 z "},"R":{"ha":663,"x_min":81,"x_max":632,"o":"m 186 220 q 186 87 186 145 q 193 0 187 30 l 81 0 q 88 88 87 31 q 89 220 89 145 l 89 507 q 89 580 89 545 q 88 646 89 616 q 86 701 87 677 q 81 741 84 726 q 139 743 106 741 q 204 745 167 744 q 287 745 242 745 q 395 733 346 745 q 479 696 444 722 q 533 632 514 671 q 553 538 553 593 q 538 456 553 492 q 500 395 524 420 q 447 352 477 369 q 387 327 417 336 q 424 276 401 307 q 471 212 446 246 q 522 144 496 178 q 570 80 547 109 q 609 29 592 50 q 632 0 625 7 l 502 0 l 288 317 l 186 317 l 186 220 m 186 395 l 281 395 q 412 431 368 395 q 457 530 457 467 q 416 630 457 595 q 281 664 374 664 q 230 664 255 664 q 186 663 205 663 l 186 395 z "},"S":{"ha":596,"x_min":48,"x_max":541,"o":"m 487 609 q 437 634 460 624 q 392 651 414 645 q 348 661 370 658 q 302 664 326 664 q 246 655 271 664 q 203 631 221 646 q 175 596 184 616 q 165 555 165 576 q 171 518 165 534 q 194 486 176 501 q 245 456 212 471 q 332 426 278 442 q 421 392 382 411 q 487 347 460 372 q 527 289 513 321 q 541 216 541 257 q 520 123 541 165 q 465 51 500 81 q 385 4 431 20 q 287 -13 338 -13 q 215 -8 250 -13 q 150 6 180 -3 q 93 28 119 16 q 48 56 67 41 l 71 160 q 176 96 121 115 q 287 76 231 76 q 346 84 317 76 q 396 110 374 93 q 431 150 418 126 q 444 205 444 174 q 438 243 444 225 q 412 278 431 261 q 356 313 393 296 q 261 347 320 330 q 164 386 202 365 q 105 433 127 408 q 76 486 84 458 q 68 547 68 515 q 82 616 68 580 q 124 683 96 652 q 199 733 153 713 q 307 753 244 753 q 362 751 336 753 q 411 743 387 748 q 459 728 435 737 q 507 707 483 720 l 487 609 z "},"T":{"ha":642,"x_min":23,"x_max":609,"o":"m 609 741 l 609 647 q 549 655 578 653 q 484 657 519 657 l 363 657 l 363 220 q 365 88 363 145 q 373 0 366 31 l 256 0 q 264 88 262 31 q 267 220 267 145 l 267 657 l 147 657 q 83 655 113 657 q 23 647 54 653 l 23 741 l 609 741 z "},"U":{"ha":730,"x_min":81,"x_max":637,"o":"m 637 741 q 630 654 631 710 q 629 520 629 599 l 629 261 q 612 149 629 199 q 563 62 596 98 q 479 7 530 26 q 360 -13 429 -13 q 240 7 291 -13 q 155 62 189 26 q 105 149 121 98 q 89 261 89 199 l 89 520 q 87 653 89 595 q 81 741 86 710 l 186 741 l 186 284 q 194 194 186 234 q 223 126 203 155 q 276 83 243 98 q 360 68 310 68 q 442 83 409 68 q 495 126 475 98 q 524 194 515 155 q 532 284 532 234 l 532 741 l 637 741 z "},"V":{"ha":692,"x_min":18,"x_max":664,"o":"m 664 741 q 650 708 657 725 q 635 669 644 691 q 616 620 627 648 q 593 555 606 592 l 398 0 l 284 0 l 85 555 q 63 620 73 592 q 45 669 53 647 q 31 708 37 690 q 18 741 24 725 l 126 741 l 341 98 l 555 741 l 664 741 z "},"W":{"ha":1055,"x_min":20,"x_max":1023,"o":"m 752 95 l 910 741 l 1023 741 q 1010 708 1017 725 q 997 669 1004 691 q 982 620 990 648 q 964 555 974 592 l 809 0 l 694 0 l 521 596 l 348 0 l 233 0 l 79 555 q 60 620 68 591 q 45 669 52 648 q 32 708 38 691 q 20 741 26 726 l 132 741 l 292 94 l 474 741 l 568 741 l 752 95 z "},"X":{"ha":673,"x_min":20,"x_max":639,"o":"m 167 563 q 125 628 142 602 q 94 674 108 654 q 68 710 80 694 q 45 741 57 725 l 165 741 l 333 473 l 495 741 l 613 741 q 590 711 602 726 q 566 676 579 696 q 534 629 552 656 q 493 563 517 602 l 387 389 l 524 171 q 566 105 549 131 q 595 61 583 79 q 617 29 608 43 q 639 0 627 16 l 522 0 l 326 311 l 136 0 l 20 0 q 42 31 32 16 q 65 63 52 45 q 94 107 77 81 q 135 173 111 133 l 273 396 l 167 563 z "},"Y":{"ha":669,"x_min":18,"x_max":642,"o":"m 135 741 l 335 406 l 525 741 l 642 741 q 602 682 619 708 q 570 633 585 656 q 542 587 555 610 q 515 541 529 565 l 378 306 l 378 220 q 379 88 378 145 q 385 0 380 31 l 274 0 q 280 88 279 31 q 281 220 281 145 l 281 310 l 147 541 q 119 589 133 566 q 89 637 104 613 q 56 687 74 661 q 18 741 39 712 l 135 741 z "},"Z":{"ha":624,"x_min":38,"x_max":576,"o":"m 560 675 l 157 83 l 355 83 q 488 86 431 83 q 576 94 545 88 l 576 0 l 38 0 l 38 64 l 441 657 l 269 657 q 146 655 194 657 q 68 647 99 653 l 68 741 l 560 741 l 560 675 z "},"[":{"ha":401,"x_min":101,"x_max":325,"o":"m 101 -208 l 101 812 l 325 812 l 325 735 l 195 735 l 195 -132 l 325 -132 l 325 -208 l 101 -208 z "},"\\":{"ha":507,"x_min":5,"x_max":502,"o":"m 426 -124 l 5 812 l 81 812 l 502 -124 l 426 -124 z "},"]":{"ha":401,"x_min":76,"x_max":299,"o":"m 76 -208 l 76 -132 l 205 -132 l 205 735 l 76 735 l 76 812 l 299 812 l 299 -208 l 76 -208 z "},"^":{"ha":431,"x_min":0,"x_max":431,"o":"m 0 593 l 173 812 l 258 812 l 431 593 l 355 593 l 216 735 l 76 593 l 0 593 z "},"_":{"ha":646,"x_min":0,"x_max":646,"o":"m 0 -86 l 646 -86 l 646 -162 l 0 -162 l 0 -86 z "},"`":{"ha":294,"x_min":0,"x_max":294,"o":"m 117 812 l 294 593 l 213 593 l 0 812 l 117 812 z "},"a":{"ha":568,"x_min":48,"x_max":520,"o":"m 482 187 q 493 87 482 132 q 520 0 503 43 l 429 0 q 416 33 424 12 q 404 79 409 54 q 309 9 358 31 q 213 -13 260 -13 q 147 -1 177 -13 q 95 30 117 10 q 61 75 73 50 q 48 130 48 101 q 58 188 48 158 q 91 243 67 218 q 153 286 114 268 q 251 310 192 304 q 284 313 264 311 q 325 317 304 315 q 363 320 345 319 q 389 322 380 321 l 389 360 q 356 426 389 406 q 267 446 323 446 q 186 430 226 446 q 101 382 146 414 q 102 405 102 391 q 103 433 102 418 q 104 460 104 447 q 106 482 105 474 q 146 498 125 490 q 188 513 166 507 q 235 524 210 519 q 289 528 260 528 q 368 517 332 528 q 429 487 404 506 q 468 441 454 467 q 482 385 482 416 l 482 187 m 389 251 q 361 249 379 251 q 325 245 344 248 q 287 241 305 243 q 256 238 269 239 q 201 225 224 234 q 165 203 179 216 q 145 175 151 191 q 139 142 139 159 q 163 89 139 107 q 228 71 186 71 q 267 74 248 71 q 305 87 286 77 q 345 116 324 97 q 389 165 366 134 l 389 251 z "},"b":{"ha":586,"x_min":66,"x_max":538,"o":"m 167 812 l 167 418 q 205 461 184 441 q 250 496 226 481 q 302 519 275 511 q 363 528 330 528 q 433 509 401 528 q 489 456 465 490 q 525 376 512 422 q 538 274 538 330 q 520 156 538 209 q 471 65 503 102 q 393 7 439 28 q 292 -13 348 -13 q 232 -8 261 -13 q 176 2 203 -4 q 123 17 149 9 q 73 33 98 25 l 73 573 q 73 633 73 600 q 73 699 73 666 q 70 761 72 731 q 66 812 68 790 l 167 812 m 167 94 q 201 81 186 86 q 232 72 217 75 q 261 67 246 68 q 292 66 275 66 q 353 79 325 66 q 402 118 382 93 q 435 178 423 143 q 446 256 446 214 q 439 332 446 298 q 417 389 431 366 q 381 426 402 413 q 332 439 359 439 q 284 428 309 439 q 239 399 260 418 q 198 354 217 380 q 167 297 180 328 l 167 94 z "},"c":{"ha":517,"x_min":48,"x_max":470,"o":"m 470 43 q 431 18 450 29 q 391 1 412 7 q 347 -9 370 -6 q 294 -13 323 -13 q 199 5 243 -13 q 120 57 154 23 q 67 139 87 91 q 48 248 48 187 q 67 357 48 306 q 120 446 85 408 q 203 506 154 484 q 312 528 252 528 q 399 516 363 528 q 464 484 436 504 l 446 393 q 377 431 412 418 q 304 444 343 444 q 241 431 270 444 q 191 394 212 418 q 157 334 170 370 q 145 254 145 298 q 156 179 145 213 q 188 121 167 146 q 238 84 208 97 q 304 71 267 71 q 388 86 351 71 q 459 132 426 102 l 470 43 z "},"d":{"ha":604,"x_min":54,"x_max":560,"o":"m 522 269 q 533 107 522 172 q 560 0 544 43 l 470 0 q 455 39 463 13 q 441 94 448 66 q 358 15 405 42 q 256 -13 312 -13 q 173 5 210 -13 q 109 54 135 22 q 68 132 82 86 q 54 233 54 177 q 72 355 54 300 q 123 448 91 409 q 199 507 155 486 q 294 528 243 528 q 363 514 327 528 q 429 484 399 501 l 429 626 q 416 812 429 749 l 522 812 l 522 269 m 429 404 q 394 421 410 414 q 362 433 378 428 q 330 439 347 437 q 294 441 313 441 q 239 428 266 441 q 192 390 212 415 q 159 329 172 365 q 147 248 147 293 q 177 114 147 159 q 274 68 208 68 q 320 80 297 68 q 364 111 343 92 q 401 154 385 130 q 429 203 418 178 l 429 404 z "},"e":{"ha":555,"x_min":48,"x_max":505,"o":"m 142 246 q 156 169 143 201 q 190 114 168 136 q 240 81 211 92 q 304 71 269 71 q 401 82 353 71 q 495 122 448 93 l 505 38 q 452 14 477 24 q 400 -1 427 5 q 348 -10 374 -7 q 292 -13 321 -13 q 199 4 243 -13 q 121 54 155 21 q 68 137 87 87 q 48 251 48 186 q 65 365 48 314 q 114 452 82 416 q 190 508 145 488 q 292 528 235 528 q 395 506 355 528 q 460 450 436 484 q 493 372 484 415 q 502 286 502 328 l 502 246 l 142 246 m 284 451 q 192 419 228 451 q 146 317 157 387 l 410 317 q 401 375 410 350 q 375 417 391 400 q 335 443 358 434 q 284 451 311 451 z "},"f":{"ha":380,"x_min":20,"x_max":408,"o":"m 20 505 l 122 505 l 122 593 q 168 765 122 708 q 297 822 214 822 q 356 812 327 822 q 408 786 385 803 l 385 705 q 342 727 366 719 q 297 735 319 735 q 236 707 257 735 q 216 613 216 680 l 216 505 l 353 505 l 353 431 l 216 431 l 216 250 q 216 177 216 214 q 219 109 217 141 q 224 48 221 76 q 231 0 227 20 l 122 0 l 122 431 l 20 431 l 20 505 z "},"g":{"ha":555,"x_min":15,"x_max":541,"o":"m 528 446 q 486 442 507 445 q 441 431 465 439 q 464 345 464 391 q 448 273 464 306 q 406 216 433 240 q 341 178 378 192 q 261 165 304 165 q 243 165 252 165 q 225 168 234 166 q 186 143 197 156 q 175 119 175 130 q 182 104 175 112 q 208 90 189 97 q 258 76 227 83 q 340 63 290 69 q 435 44 396 56 q 497 13 473 31 q 530 -29 520 -5 q 541 -81 541 -52 q 516 -155 541 -122 q 452 -210 491 -187 q 365 -244 413 -232 q 271 -256 317 -256 q 181 -247 227 -256 q 99 -219 136 -238 q 38 -171 62 -199 q 15 -102 15 -142 q 45 -26 15 -60 q 140 35 76 7 q 102 70 113 51 q 92 109 92 90 q 107 153 92 129 q 151 192 122 176 q 83 255 108 216 q 58 345 58 294 q 73 417 58 383 q 116 475 89 450 q 181 514 144 500 q 261 528 218 528 q 331 517 298 528 q 389 488 363 507 q 461 515 422 505 q 532 528 500 525 l 528 446 m 277 -3 q 249 1 262 -1 q 223 5 235 3 q 163 -21 185 -8 q 129 -45 140 -33 q 113 -69 117 -58 q 109 -92 109 -81 q 119 -123 109 -107 q 151 -153 130 -140 q 203 -175 172 -166 q 279 -183 235 -183 q 343 -174 313 -183 q 397 -151 374 -165 q 433 -120 420 -137 q 446 -86 446 -102 q 438 -58 446 -71 q 411 -35 430 -45 q 359 -16 391 -24 q 277 -3 326 -8 m 145 345 q 154 301 145 321 q 178 267 162 281 q 214 244 193 252 q 261 236 235 236 q 308 244 286 236 q 345 267 330 252 q 370 301 361 281 q 378 345 378 321 q 370 388 378 368 q 345 423 361 408 q 308 446 330 437 q 261 454 286 454 q 214 446 235 454 q 178 423 193 437 q 154 388 162 408 q 145 345 145 368 z "},"h":{"ha":596,"x_min":66,"x_max":528,"o":"m 433 0 l 433 279 q 427 357 433 326 q 409 406 421 388 q 377 432 396 425 q 332 439 358 439 q 278 426 304 439 q 230 392 252 413 q 192 346 208 372 q 167 294 175 320 l 167 0 l 73 0 l 73 573 q 72 717 73 655 q 66 812 71 779 l 167 812 l 167 420 q 256 501 205 474 q 360 528 307 528 q 485 475 442 528 q 528 317 528 422 l 528 0 l 433 0 z "},"i":{"ha":287,"x_min":79,"x_max":208,"o":"m 190 241 q 191 183 190 216 q 193 116 191 150 q 196 51 194 82 q 200 0 197 20 l 96 0 l 96 269 q 96 342 96 306 q 95 410 96 378 q 93 470 94 442 q 89 517 92 497 l 190 517 l 190 241 m 79 682 q 96 731 79 711 q 142 751 113 751 q 168 745 156 751 q 189 730 180 740 q 202 709 197 721 q 208 682 208 696 q 202 655 208 668 q 189 633 197 643 q 168 618 180 624 q 142 613 156 613 q 96 633 113 613 q 79 682 79 654 z "},"j":{"ha":302,"x_min":-97,"x_max":223,"o":"m 205 13 q 192 -106 205 -58 q 154 -184 178 -155 q 94 -226 129 -214 q 15 -239 58 -239 q -11 -236 4 -239 q -40 -230 -25 -234 q -71 -220 -56 -226 q -97 -205 -85 -214 l -79 -122 q -58 -134 -71 -128 q -32 -143 -45 -139 q -4 -150 -18 -147 q 20 -152 9 -152 q 86 -120 60 -152 q 111 -13 111 -87 l 111 269 q 111 342 111 306 q 110 410 111 378 q 108 470 109 442 q 104 517 106 497 l 205 517 l 205 13 m 94 682 q 112 731 94 711 q 157 751 129 751 q 184 745 172 751 q 204 730 196 740 q 218 709 213 721 q 223 682 223 696 q 218 655 223 668 q 204 633 213 643 q 184 618 196 624 q 157 613 172 613 q 112 633 129 613 q 94 682 94 654 z "},"k":{"ha":525,"x_min":66,"x_max":515,"o":"m 73 0 l 73 573 q 72 717 73 655 q 66 812 71 779 l 167 812 l 167 304 l 373 517 l 500 517 l 248 290 l 515 0 l 391 0 l 167 264 l 167 0 l 73 0 z "},"l":{"ha":287,"x_min":85,"x_max":200,"o":"m 190 241 q 191 183 190 216 q 193 117 191 151 q 196 52 194 83 q 200 0 197 21 l 96 0 l 96 573 q 94 708 96 648 q 85 812 91 768 l 190 812 l 190 241 z "},"m":{"ha":855,"x_min":64,"x_max":776,"o":"m 479 0 l 385 0 l 385 289 q 382 366 385 336 q 370 411 378 395 q 347 433 361 427 q 312 439 333 439 q 275 431 294 439 q 239 410 256 423 q 207 377 222 396 q 182 335 193 357 l 182 0 l 89 0 l 89 312 q 80 439 89 387 q 64 517 71 492 l 155 517 q 164 479 160 501 q 172 439 168 457 q 216 483 195 465 q 258 510 237 500 q 299 524 279 520 q 342 528 320 528 q 387 520 367 528 q 423 502 408 513 q 450 475 439 490 q 468 443 461 459 q 513 485 491 468 q 557 511 536 501 q 599 524 578 520 q 639 528 619 528 q 704 515 677 528 q 746 478 730 503 q 769 418 762 454 q 776 335 776 382 l 776 0 l 682 0 l 682 279 q 679 359 682 328 q 667 408 675 390 q 644 432 659 426 q 609 439 630 439 q 572 431 590 439 q 536 410 553 424 q 505 378 519 397 q 479 335 490 359 l 479 0 z "},"n":{"ha":601,"x_min":54,"x_max":532,"o":"m 439 0 l 439 279 q 433 357 439 326 q 414 406 427 388 q 382 432 401 425 q 338 439 363 439 q 284 426 310 439 q 236 392 258 413 q 198 346 214 372 q 173 294 181 320 l 173 0 l 79 0 l 79 312 q 70 439 79 387 q 54 517 62 492 l 145 517 q 151 496 148 509 q 156 469 153 484 q 161 441 159 455 q 165 418 163 428 q 262 502 214 477 q 366 528 311 528 q 490 475 447 528 q 532 317 532 422 l 532 0 l 439 0 z "},"o":{"ha":578,"x_min":48,"x_max":530,"o":"m 48 256 q 68 373 48 322 q 121 458 87 423 q 199 510 155 492 q 294 528 244 528 q 390 510 347 528 q 465 458 433 492 q 513 373 496 423 q 530 256 530 322 q 511 141 530 191 q 457 56 491 90 q 379 5 424 22 q 284 -13 334 -13 q 189 5 232 -13 q 114 56 145 22 q 65 141 83 90 q 48 256 48 191 m 142 256 q 153 177 142 212 q 183 118 163 142 q 229 81 202 94 q 289 68 256 68 q 346 81 319 68 q 393 118 373 94 q 425 177 413 142 q 436 256 436 212 q 425 336 436 301 q 395 396 414 372 q 349 433 376 420 q 289 446 321 446 q 231 433 258 446 q 184 396 204 420 q 153 336 165 372 q 142 256 142 301 z "},"p":{"ha":593,"x_min":54,"x_max":545,"o":"m 145 517 q 156 480 151 504 q 165 420 161 456 q 248 498 201 468 q 353 528 295 528 q 432 508 396 528 q 492 455 467 489 q 531 374 517 421 q 545 271 545 327 q 527 154 545 206 q 478 64 509 101 q 404 7 446 27 q 315 -13 362 -13 q 241 2 274 -13 q 173 43 208 18 l 173 -77 q 174 -132 173 -107 q 176 -177 174 -157 q 180 -215 177 -197 q 186 -249 182 -233 l 79 -249 l 79 246 q 75 408 79 341 q 54 517 71 474 l 145 517 m 173 132 q 218 102 199 114 q 252 83 237 90 q 282 73 268 76 q 315 71 297 71 q 366 83 342 71 q 410 120 391 96 q 440 179 429 144 q 451 256 451 213 q 443 333 451 298 q 420 391 435 367 q 384 428 406 415 q 335 441 362 441 q 290 432 313 441 q 246 404 267 422 q 205 356 224 385 q 173 292 186 328 l 173 132 z "},"q":{"ha":573,"x_min":54,"x_max":510,"o":"m 404 71 q 327 6 363 24 q 256 -13 291 -13 q 185 1 221 -13 q 120 43 149 15 q 72 116 91 72 q 54 220 54 160 q 69 334 54 279 q 116 432 84 389 q 198 502 148 475 q 317 528 248 528 q 410 516 363 528 q 497 490 456 504 l 497 -77 q 500 -177 497 -138 q 510 -249 503 -216 l 404 -249 l 404 71 m 404 420 q 353 436 380 430 q 302 441 326 441 q 231 424 260 441 q 183 379 201 407 q 156 317 164 352 q 147 246 147 281 q 158 166 147 199 q 185 113 168 134 q 222 83 201 92 q 264 73 243 73 q 336 101 299 73 q 404 186 372 129 l 404 420 z "},"r":{"ha":451,"x_min":54,"x_max":446,"o":"m 79 0 l 79 312 q 70 439 79 387 q 54 517 62 492 l 145 517 q 151 496 148 509 q 156 469 153 484 q 161 441 159 455 q 165 418 163 428 q 205 465 183 445 q 248 499 227 486 q 291 520 270 513 q 329 528 312 528 q 384 513 361 528 q 420 476 406 499 q 440 421 434 452 q 446 357 446 391 l 366 340 q 362 376 366 359 q 352 407 359 394 q 333 428 345 420 q 307 436 322 436 q 271 424 291 436 q 232 391 252 411 q 197 346 213 371 q 173 294 181 320 l 173 0 l 79 0 z "},"s":{"ha":490,"x_min":56,"x_max":446,"o":"m 406 398 q 377 414 393 406 q 342 430 361 422 q 301 441 323 437 q 256 446 280 446 q 209 440 228 446 q 178 425 190 434 q 162 403 167 415 q 157 380 157 391 q 161 356 157 366 q 178 338 165 347 q 215 321 191 329 q 279 304 239 313 q 343 284 313 296 q 397 254 374 273 q 433 210 420 236 q 446 149 446 184 q 431 85 446 115 q 389 34 416 56 q 327 0 363 12 q 251 -13 292 -13 q 192 -8 220 -13 q 138 4 163 -3 q 92 23 113 12 q 56 45 71 33 l 81 136 q 120 109 98 121 q 164 87 141 96 q 210 74 187 79 q 254 68 233 68 q 295 74 276 68 q 327 90 313 80 q 347 111 340 99 q 355 136 355 123 q 349 163 355 151 q 328 188 343 176 q 285 210 312 199 q 216 231 258 220 q 140 257 170 241 q 95 291 111 272 q 72 331 78 309 q 66 376 66 352 q 75 419 66 393 q 106 469 83 445 q 166 510 128 493 q 261 528 203 528 q 357 514 317 528 q 423 487 397 501 l 406 398 z "},"t":{"ha":423,"x_min":15,"x_max":385,"o":"m 15 505 l 117 505 l 117 669 l 211 669 l 211 505 l 376 505 l 376 431 l 211 431 l 211 198 q 215 134 211 159 q 226 95 218 109 q 246 76 234 81 q 275 71 258 71 q 385 109 319 71 l 385 28 q 318 -4 351 5 q 260 -13 286 -13 q 204 -6 230 -13 q 158 18 178 1 q 128 63 139 35 q 117 136 117 92 l 117 431 l 15 431 l 15 505 z "},"u":{"ha":601,"x_min":68,"x_max":553,"o":"m 467 0 q 451 45 459 18 q 439 101 443 73 q 343 16 393 45 q 241 -13 294 -13 q 79 205 79 -13 l 79 355 q 78 399 79 379 q 77 437 78 418 q 74 476 76 456 q 68 517 72 495 l 173 517 l 173 236 q 177 161 173 193 q 192 110 182 130 q 218 80 201 90 q 258 71 234 71 q 306 84 281 71 q 355 118 332 98 q 397 164 378 139 q 426 213 416 189 l 426 355 q 426 400 426 380 q 424 438 425 420 q 421 475 423 456 q 416 517 419 494 l 520 517 l 520 228 q 529 98 520 154 q 553 0 537 43 l 467 0 z "},"v":{"ha":543,"x_min":10,"x_max":532,"o":"m 532 517 q 510 470 522 496 q 489 420 499 445 q 469 374 478 396 q 454 338 460 353 q 440 304 449 326 q 421 257 432 283 q 399 202 411 231 q 376 144 388 173 q 319 0 349 77 l 223 0 q 168 139 195 73 q 145 196 157 167 q 123 252 134 225 q 104 300 113 278 q 89 338 95 323 q 74 375 83 353 q 54 421 64 397 q 32 471 43 446 q 10 517 20 496 l 117 517 l 271 101 l 426 517 l 532 517 z "},"w":{"ha":786,"x_min":23,"x_max":764,"o":"m 431 517 l 563 109 l 669 517 l 764 517 q 748 466 755 489 q 734 421 741 442 q 722 380 728 400 q 710 338 716 360 l 616 0 l 520 0 l 393 398 l 267 0 l 170 0 l 76 338 q 65 377 71 357 q 53 418 59 397 q 39 464 46 439 q 23 517 32 488 l 117 517 l 223 109 l 355 517 l 431 517 z "},"x":{"ha":551,"x_min":25,"x_max":525,"o":"m 272 190 l 139 0 l 25 0 q 60 45 46 27 q 85 79 75 64 q 105 107 96 94 q 126 136 115 120 l 216 267 l 136 380 q 114 412 124 397 q 91 441 103 426 q 65 474 79 456 q 31 517 51 492 l 147 517 l 279 334 l 404 517 l 517 517 q 484 473 498 492 q 459 440 471 455 q 438 411 448 425 q 416 380 429 397 l 333 258 l 420 136 q 445 104 434 117 q 466 76 455 90 q 491 44 477 62 q 525 0 505 26 l 408 0 l 272 190 z "},"y":{"ha":538,"x_min":-10,"x_max":528,"o":"m 332 0 q 280 -119 306 -73 q 229 -192 255 -165 q 175 -229 203 -218 q 114 -239 146 -239 q 49 -227 79 -239 q -10 -195 18 -216 l 20 -114 q 39 -127 28 -121 q 63 -140 50 -134 q 89 -149 75 -145 q 114 -152 102 -152 q 144 -147 130 -152 q 174 -126 159 -142 q 205 -84 189 -111 q 238 -14 220 -58 l 96 338 q 64 415 83 372 q 15 517 45 458 l 117 517 l 281 102 q 302 162 290 130 q 325 229 313 195 q 349 298 337 263 q 372 365 361 333 q 426 517 399 440 l 528 517 q 484 415 501 458 q 454 338 467 372 l 332 0 z "},"z":{"ha":466,"x_min":20,"x_max":446,"o":"m 438 517 l 438 470 l 137 76 l 355 76 q 400 77 377 76 q 446 83 423 78 l 446 0 l 20 0 l 20 56 l 311 441 l 114 441 q 70 440 92 441 q 35 433 49 439 l 35 517 l 438 517 z "},"{":{"ha":507,"x_min":106,"x_max":426,"o":"m 106 312 q 120 329 106 318 q 152 353 134 340 q 186 377 170 366 q 208 395 202 389 q 213 426 211 399 q 216 490 214 452 q 220 573 218 528 q 226 657 222 617 q 236 728 230 697 q 251 768 242 758 q 276 786 258 777 q 316 803 294 795 q 362 819 338 812 q 406 831 386 826 l 426 761 q 397 750 414 757 q 364 737 380 744 q 335 723 348 730 q 319 710 323 715 q 313 679 315 704 q 309 618 311 653 q 307 543 307 583 q 305 468 306 503 q 303 408 304 433 q 299 378 302 383 q 283 362 296 372 q 256 342 270 352 q 230 325 241 333 q 218 312 218 316 q 230 300 218 308 q 256 282 241 292 q 283 262 270 272 q 299 246 296 253 q 303 216 302 241 q 305 156 304 191 q 307 81 306 121 q 309 6 307 41 q 313 -55 311 -29 q 319 -86 315 -80 q 335 -98 323 -92 q 364 -112 348 -105 q 397 -126 380 -119 q 426 -137 414 -132 l 406 -208 q 362 -195 386 -203 q 316 -180 338 -188 q 276 -162 294 -172 q 251 -145 258 -153 q 236 -104 242 -135 q 226 -34 230 -74 q 220 51 222 6 q 216 133 218 95 q 212 198 214 172 q 208 228 210 224 q 186 247 202 235 q 152 271 170 258 q 120 295 134 283 q 106 312 106 306 z "},"|":{"ha":350,"x_min":136,"x_max":213,"o":"m 213 812 l 213 -199 l 136 -199 l 136 812 l 213 812 z "},"}":{"ha":507,"x_min":81,"x_max":401,"o":"m 401 312 q 387 295 401 306 q 355 271 373 283 q 321 247 338 258 q 299 228 304 235 q 294 198 296 224 q 291 133 292 172 q 287 51 289 95 q 280 -34 284 6 q 271 -104 277 -74 q 256 -145 265 -135 q 231 -162 249 -153 q 191 -180 213 -172 q 145 -195 169 -188 q 101 -208 121 -203 l 81 -137 q 110 -126 94 -132 q 143 -112 127 -119 q 171 -98 159 -105 q 187 -86 183 -92 q 194 -55 191 -80 q 198 6 197 -29 q 200 81 199 41 q 202 156 201 121 q 204 216 203 191 q 208 246 205 241 q 224 262 212 253 q 251 282 237 272 q 277 300 265 292 q 289 312 288 308 q 277 325 288 316 q 251 342 265 333 q 224 362 237 352 q 208 378 212 372 q 204 408 205 383 q 202 468 203 433 q 200 543 201 503 q 198 618 199 583 q 194 679 197 653 q 187 710 191 704 q 171 723 183 715 q 143 737 159 730 q 110 750 127 744 q 81 761 94 757 l 101 831 q 145 819 121 826 q 191 803 169 812 q 231 786 213 795 q 256 768 249 777 q 271 728 265 758 q 280 657 277 697 q 287 573 284 617 q 291 490 289 528 q 294 426 292 452 q 299 395 296 399 q 321 377 304 389 q 355 353 338 366 q 387 329 373 340 q 401 312 401 318 z "},"~":{"ha":566,"x_min":10,"x_max":547,"o":"m 10 190 q 17 235 10 213 q 38 274 24 257 q 73 302 52 292 q 122 312 94 312 q 201 303 164 312 q 275 285 238 295 q 350 267 311 275 q 433 258 389 258 q 460 263 449 258 q 478 275 471 268 q 490 292 486 283 q 495 309 494 300 l 547 309 q 540 262 547 285 q 518 221 533 239 q 481 193 504 203 q 429 182 459 182 q 344 191 385 182 q 265 209 303 199 q 191 228 227 219 q 122 236 155 236 q 78 222 92 236 q 64 190 65 209 l 10 190 z "},"€":{"ha":609,"x_min":10,"x_max":576,"o":"m 31 479 l 102 479 q 143 599 115 548 q 209 685 171 650 q 292 736 246 719 q 389 753 338 753 q 436 750 414 753 q 480 740 458 747 q 523 720 501 732 q 571 688 545 707 l 541 596 q 497 630 517 616 q 458 651 477 644 q 419 663 439 659 q 378 666 400 666 q 320 654 349 666 q 269 618 292 642 q 227 560 245 595 q 198 479 208 525 l 434 479 l 414 406 l 188 406 q 187 389 187 397 q 187 373 187 381 q 187 357 187 365 q 188 342 187 349 l 400 342 l 380 269 l 197 269 q 222 188 205 224 q 263 128 239 153 q 317 90 287 103 q 382 76 347 76 q 472 100 430 76 q 555 165 515 124 l 576 66 q 368 -13 492 -13 q 267 6 313 -13 q 187 62 222 26 q 130 151 153 99 q 98 269 107 203 l 10 269 l 31 342 l 92 342 l 92 360 q 92 383 92 372 q 93 406 92 394 l 10 406 l 31 479 z "},"‚":{"ha":385,"x_min":135,"x_max":277,"o":"m 135 76 q 144 98 137 88 q 160 113 151 107 q 181 123 170 119 q 203 126 192 126 q 231 120 218 126 q 255 104 245 115 q 271 78 265 93 q 277 43 277 62 q 254 -49 277 -3 q 187 -137 232 -95 l 136 -117 q 159 -89 147 -106 q 182 -54 172 -73 q 199 -14 192 -35 q 205 25 205 6 l 135 25 l 135 76 z "},"ƒ":{"ha":370,"x_min":-97,"x_max":398,"o":"m 10 505 l 111 505 l 111 593 q 158 765 111 708 q 287 822 204 822 q 346 812 317 822 q 398 786 374 803 l 375 710 q 332 732 356 724 q 287 741 309 741 q 226 711 247 741 q 205 613 205 682 l 205 505 l 342 505 l 342 431 l 205 431 l 205 250 q 205 115 205 176 q 204 13 204 54 q 191 -106 204 -58 q 153 -184 178 -155 q 93 -226 128 -214 q 15 -239 58 -239 q -11 -236 4 -239 q -40 -230 -25 -234 q -71 -220 -56 -226 q -97 -205 -85 -214 l -79 -122 q -58 -134 -71 -128 q -32 -143 -45 -139 q -5 -150 -18 -147 q 19 -152 8 -152 q 56 -144 39 -152 q 85 -120 73 -136 q 104 -77 98 -103 q 111 -13 111 -50 l 111 431 l 10 431 l 10 505 z "},"„":{"ha":578,"x_min":109,"x_max":470,"o":"m 109 76 q 135 113 115 100 q 177 126 155 126 q 205 120 192 126 q 229 104 219 115 q 245 78 239 93 q 251 43 251 62 q 229 -49 251 -3 q 162 -137 207 -95 l 111 -117 q 134 -89 122 -106 q 157 -54 146 -73 q 173 -14 167 -35 q 180 25 180 6 l 109 25 l 109 76 m 328 76 q 353 113 332 100 q 395 126 374 126 q 424 120 410 126 q 448 104 437 115 q 464 78 458 93 q 470 43 470 62 q 447 -49 470 -3 q 380 -137 425 -95 l 329 -117 q 353 -89 340 -106 q 375 -54 365 -73 q 392 -14 385 -35 q 398 25 398 6 l 328 25 l 328 76 z "},"…":{"ha":875,"x_min":94,"x_max":781,"o":"m 94 56 q 99 82 94 70 q 114 104 104 95 q 135 119 123 113 q 162 124 148 124 q 189 119 176 124 q 210 104 201 113 q 225 82 220 95 q 231 56 231 70 q 225 29 231 41 q 210 7 220 17 q 189 -7 201 -2 q 162 -13 176 -13 q 135 -7 148 -13 q 114 7 123 -2 q 99 29 104 17 q 94 56 94 41 m 368 56 q 373 82 368 70 q 388 104 378 95 q 409 119 397 113 q 436 124 422 124 q 463 119 450 124 q 484 104 475 113 q 499 82 494 95 q 505 56 505 70 q 499 29 505 41 q 484 7 494 17 q 463 -7 475 -2 q 436 -13 450 -13 q 409 -7 422 -13 q 388 7 397 -2 q 373 29 378 17 q 368 56 368 41 m 644 56 q 650 82 644 70 q 665 104 655 95 q 687 119 674 113 q 713 124 699 124 q 740 119 727 124 q 761 104 752 113 q 776 82 770 95 q 781 56 781 70 q 776 29 781 41 q 761 7 770 17 q 740 -7 752 -2 q 713 -13 727 -13 q 687 -7 699 -13 q 665 7 674 -2 q 650 29 655 17 q 644 56 644 41 z "},"†":{"ha":520,"x_min":15,"x_max":505,"o":"m 299 423 q 300 179 299 313 q 309 -119 302 46 l 211 -119 q 219 179 218 46 q 220 423 220 313 l 220 464 q 176 463 199 464 q 129 462 153 463 q 76 461 104 462 q 15 458 47 460 l 15 543 q 76 540 47 541 q 129 538 104 539 q 176 538 153 538 q 220 538 198 538 q 217 654 219 595 q 211 766 216 713 l 309 766 q 302 654 304 713 q 299 538 300 595 q 347 538 325 538 q 393 538 370 538 q 443 540 416 539 q 505 543 470 541 l 505 458 q 443 461 471 460 q 390 463 415 462 q 343 464 366 463 q 299 464 321 464 l 299 423 l 299 423 z "},"‡":{"ha":519,"x_min":15,"x_max":505,"o":"m 220 408 l 220 464 q 176 463 199 464 q 129 462 153 463 q 76 461 104 462 q 15 458 47 460 l 15 543 q 76 540 47 541 q 129 538 104 539 q 176 538 153 538 q 220 538 198 538 q 217 656 219 596 q 211 766 215 716 l 309 766 q 302 656 304 715 q 299 538 300 596 q 347 538 325 538 q 393 538 370 538 q 443 540 416 539 q 505 543 470 541 l 505 458 q 443 461 471 460 q 390 463 415 462 q 343 464 366 463 q 299 464 321 464 l 299 408 l 299 238 l 299 165 q 347 165 325 165 q 393 165 370 165 q 443 167 416 166 q 505 169 470 168 l 505 85 q 391 90 438 88 q 300 92 343 91 q 302 -18 300 37 q 309 -119 304 -73 l 211 -119 q 217 -18 215 -73 q 220 92 218 37 q 175 91 198 92 q 128 90 153 90 q 75 88 103 89 q 15 85 47 87 l 15 169 q 76 167 47 168 q 129 165 104 166 q 176 165 153 165 q 220 165 199 165 l 220 238 l 220 408 z "},"ˆ":{"ha":441,"x_min":5,"x_max":436,"o":"m 5 593 l 177 812 l 264 812 l 436 593 l 360 593 l 220 735 l 81 593 l 5 593 z "},"‰":{"ha":1117,"x_min":51,"x_max":1066,"o":"m 640 186 q 636 249 640 224 q 624 290 632 275 q 603 313 616 306 q 573 319 591 319 q 545 313 557 319 q 524 292 532 307 q 512 253 516 277 q 509 193 509 229 q 512 130 509 155 q 524 88 516 104 q 544 65 532 72 q 573 58 556 58 q 602 64 589 58 q 623 86 614 71 q 635 126 631 102 q 640 186 640 151 m 723 192 q 712 97 723 136 q 681 33 701 58 q 632 -2 661 9 q 571 -13 604 -13 q 511 -2 538 -13 q 464 33 484 9 q 434 95 445 57 q 424 186 424 133 q 435 278 424 240 q 467 342 446 317 q 515 379 487 367 q 576 391 543 391 q 636 379 609 391 q 683 343 663 368 q 712 281 702 319 q 723 192 723 243 m 628 751 l 233 -13 l 148 -13 l 545 751 l 628 751 m 267 546 q 262 610 267 584 q 250 651 258 635 q 230 673 242 667 q 199 680 217 680 q 171 673 183 680 q 151 652 159 667 q 139 613 142 637 q 135 553 135 589 q 139 489 135 515 q 150 448 142 463 q 170 425 158 432 q 199 418 182 418 q 228 425 216 418 q 249 447 241 432 q 262 487 258 463 q 267 546 267 511 m 350 553 q 339 457 350 496 q 307 394 328 418 q 259 359 287 370 q 198 348 231 348 q 138 359 165 348 q 91 394 111 370 q 61 455 72 418 q 51 547 51 493 q 62 639 51 600 q 93 702 73 677 q 141 739 113 727 q 202 751 169 751 q 262 739 235 751 q 309 703 290 728 q 339 642 328 679 q 350 553 350 604 m 983 186 q 979 249 983 224 q 966 290 975 275 q 946 313 958 306 q 916 319 933 319 q 887 313 899 319 q 866 292 874 307 q 854 253 858 277 q 850 193 850 229 q 854 130 850 155 q 866 88 858 104 q 886 65 874 72 q 916 58 899 58 q 945 64 932 58 q 966 86 958 71 q 978 126 974 102 q 983 186 983 151 m 1066 192 q 1055 97 1066 136 q 1023 33 1044 58 q 975 -2 1003 9 q 914 -13 947 -13 q 853 -2 880 -13 q 807 33 826 9 q 777 95 787 57 q 766 186 766 133 q 778 278 766 240 q 809 342 789 317 q 857 379 829 367 q 918 391 885 391 q 979 379 951 391 q 1026 343 1006 368 q 1056 281 1045 319 q 1066 192 1066 243 z "},"Š":{"ha":596,"x_min":48,"x_max":541,"o":"m 487 609 q 437 634 460 624 q 392 651 414 645 q 348 661 370 658 q 302 664 326 664 q 246 655 271 664 q 203 631 221 646 q 175 596 184 616 q 165 555 165 576 q 171 518 165 534 q 194 486 176 501 q 245 456 212 471 q 332 426 278 442 q 421 392 382 411 q 487 347 460 372 q 527 289 513 321 q 541 216 541 257 q 520 123 541 165 q 465 51 500 81 q 385 4 431 20 q 287 -13 338 -13 q 215 -8 250 -13 q 150 6 180 -3 q 93 28 119 16 q 48 56 67 41 l 71 160 q 176 96 121 115 q 287 76 231 76 q 346 84 317 76 q 396 110 374 93 q 431 150 418 126 q 444 205 444 174 q 438 243 444 225 q 412 278 431 261 q 356 313 393 296 q 261 347 320 330 q 164 386 202 365 q 105 433 127 408 q 76 486 84 458 q 68 547 68 515 q 82 616 68 580 q 124 683 96 652 q 199 733 153 713 q 307 753 244 753 q 362 751 336 753 q 411 743 387 748 q 459 728 435 737 q 507 707 483 720 l 487 609 m 166 1015 l 306 873 l 445 1015 l 522 1015 l 349 797 l 263 797 l 90 1015 l 166 1015 z "},"‹":{"ha":401,"x_min":38,"x_max":342,"o":"m 258 0 l 38 258 l 258 517 l 342 517 l 155 258 l 342 0 l 258 0 z "},"Œ":{"ha":989,"x_min":48,"x_max":928,"o":"m 541 0 l 541 83 q 449 13 500 39 q 340 -13 397 -13 q 227 12 280 -13 q 135 85 174 37 q 72 203 95 133 q 48 366 48 274 q 73 529 48 456 q 139 651 98 601 q 236 727 181 701 q 350 753 290 753 q 459 727 412 753 q 541 658 507 701 l 541 741 l 913 741 l 913 657 l 637 657 l 637 429 l 876 429 l 876 348 l 637 348 l 637 83 l 720 83 q 847 84 795 83 q 928 92 898 85 l 928 0 l 541 0 m 545 363 q 532 489 545 433 q 493 584 519 545 q 430 643 468 623 q 345 664 393 664 q 264 644 300 664 q 201 587 227 624 q 161 497 176 549 q 147 378 147 444 q 161 253 147 309 q 200 157 175 197 q 262 97 226 118 q 345 76 299 76 q 429 95 391 76 q 492 152 466 115 q 532 242 518 189 q 545 363 545 295 z "},"Ž":{"ha":624,"x_min":38,"x_max":576,"o":"m 560 675 l 157 83 l 355 83 q 488 86 431 83 q 576 94 545 88 l 576 0 l 38 0 l 38 64 l 441 657 l 269 657 q 146 655 194 657 q 68 647 99 653 l 68 741 l 560 741 l 560 675 m 165 1015 l 304 873 l 444 1015 l 520 1015 l 347 797 l 262 797 l 89 1015 l 165 1015 z "},"ˇ":{"ha":431,"x_min":0,"x_max":431,"o":"m 76 812 l 216 669 l 355 812 l 431 812 l 258 593 l 173 593 l 0 812 l 76 812 z "},"˚":{"ha":218,"x_min":0,"x_max":218,"o":"m 160 703 q 146 740 160 726 q 109 753 132 753 q 72 740 86 753 q 58 703 58 726 q 72 666 58 680 q 109 652 86 652 q 146 666 132 652 q 160 703 160 680 m 0 703 q 8 745 0 726 q 32 780 17 765 q 66 803 46 795 q 109 812 86 812 q 152 803 132 812 q 186 780 172 795 q 209 745 201 765 q 218 703 218 726 q 209 660 218 680 q 186 625 201 640 q 152 602 172 610 q 109 593 132 593 q 66 602 86 593 q 32 625 46 610 q 8 660 17 640 q 0 703 0 680 z "},"‘":{"ha":269,"x_min":79,"x_max":220,"o":"m 220 591 q 211 570 218 579 q 195 554 204 560 q 174 544 185 547 q 152 541 163 541 q 100 563 121 541 q 79 624 79 585 q 101 716 79 671 q 167 804 123 762 l 218 784 q 195 756 207 772 q 172 721 182 740 q 156 681 162 701 q 149 642 149 661 l 220 642 l 220 591 z "},"’":{"ha":277,"x_min":83,"x_max":226,"o":"m 83 753 q 93 775 86 766 q 109 791 100 784 q 130 801 119 798 q 152 804 141 804 q 204 782 182 804 q 226 720 226 759 q 203 628 226 673 q 136 541 181 583 l 85 560 q 109 588 97 571 q 132 623 121 604 q 148 663 142 642 q 155 703 155 683 l 83 703 l 83 753 z "},"“":{"ha":532,"x_min":104,"x_max":464,"o":"m 464 591 q 454 570 461 579 q 438 554 448 560 q 417 544 429 547 q 395 541 406 541 q 343 563 365 541 q 322 624 322 585 q 344 716 322 671 q 410 804 366 762 l 461 784 q 438 756 450 772 q 416 721 426 740 q 399 681 406 701 q 393 642 393 661 l 464 642 l 464 591 m 246 591 q 237 570 243 579 q 220 554 230 560 q 199 544 210 547 q 177 541 188 541 q 125 563 146 541 q 104 624 104 585 q 126 716 104 671 q 193 804 148 762 l 243 784 q 220 756 232 772 q 198 721 208 740 q 181 681 188 701 q 175 642 175 661 l 246 642 l 246 591 z "},"”":{"ha":512,"x_min":104,"x_max":464,"o":"m 104 753 q 113 775 106 766 q 130 791 120 784 q 151 801 140 798 q 173 804 162 804 q 201 799 188 804 q 224 782 214 793 q 240 755 235 770 q 246 720 246 739 q 224 628 246 673 q 157 541 202 583 l 106 560 q 130 588 117 571 q 152 623 142 604 q 169 663 162 642 q 175 703 175 683 l 104 703 l 104 753 m 322 753 q 331 775 324 766 q 348 791 338 784 q 369 801 357 798 q 391 804 380 804 q 443 782 421 804 q 464 720 464 759 q 442 628 464 673 q 376 541 420 583 l 325 560 q 348 588 336 571 q 370 623 359 604 q 386 663 380 642 q 393 703 393 683 l 322 703 l 322 753 z "},"•":{"ha":477,"x_min":126,"x_max":350,"o":"m 126 372 q 135 415 126 395 q 159 450 144 435 q 195 474 174 465 q 238 483 215 483 q 281 474 261 483 q 317 450 302 465 q 341 415 332 435 q 350 372 350 395 q 341 329 350 349 q 317 293 332 309 q 281 269 302 278 q 238 260 261 260 q 195 269 215 260 q 159 293 174 278 q 135 329 144 309 q 126 372 126 349 z "},"–":{"ha":535,"x_min":41,"x_max":495,"o":"m 41 357 l 495 357 l 495 281 l 41 281 l 41 357 z "},"—":{"ha":880,"x_min":41,"x_max":840,"o":"m 41 357 l 840 357 l 840 281 l 41 281 l 41 357 z "},"˜":{"ha":360,"x_min":0,"x_max":360,"o":"m 0 612 q 7 657 0 635 q 26 698 14 680 q 57 727 39 716 q 97 739 75 739 q 135 731 113 739 q 181 713 157 723 q 227 695 205 703 q 264 688 249 688 q 293 700 281 688 q 307 730 304 713 l 360 730 q 353 683 360 706 q 333 643 347 661 q 301 614 320 625 q 260 604 283 604 q 221 611 244 604 q 175 629 199 619 q 130 646 151 638 q 96 654 109 654 q 66 642 77 654 q 54 612 55 630 l 0 612 z "},"™":{"ha":844,"x_min":31,"x_max":779,"o":"m 696 741 l 760 741 q 766 557 763 641 q 769 486 768 522 q 772 420 771 450 q 775 367 774 389 q 779 334 777 344 l 726 334 l 718 663 l 604 334 l 549 334 l 434 663 l 426 334 l 373 334 q 376 367 374 344 q 379 420 377 389 q 382 486 380 450 q 385 557 384 522 q 393 741 389 641 l 457 741 l 576 391 l 696 741 m 353 741 l 353 688 q 319 692 335 691 q 284 693 303 693 l 218 693 l 218 455 q 220 382 218 414 q 224 334 221 350 l 159 334 q 163 382 162 350 q 164 455 164 414 l 164 693 l 98 693 q 63 692 79 693 q 31 688 47 691 l 31 741 l 353 741 z "},"š":{"ha":490,"x_min":31,"x_max":462,"o":"m 406 398 q 377 414 393 406 q 342 430 361 422 q 301 441 323 437 q 256 446 280 446 q 209 440 228 446 q 178 425 190 434 q 162 403 167 415 q 157 380 157 391 q 161 356 157 366 q 178 338 165 347 q 215 321 191 329 q 279 304 239 313 q 343 284 313 296 q 397 254 374 273 q 433 210 420 236 q 446 149 446 184 q 431 85 446 115 q 389 34 416 56 q 327 0 363 12 q 251 -13 292 -13 q 192 -8 220 -13 q 138 4 163 -3 q 92 23 113 12 q 56 45 71 33 l 81 136 q 120 109 98 121 q 164 87 141 96 q 210 74 187 79 q 254 68 233 68 q 295 74 276 68 q 327 90 313 80 q 347 111 340 99 q 355 136 355 123 q 349 163 355 151 q 328 188 343 176 q 285 210 312 199 q 216 231 258 220 q 140 257 170 241 q 95 291 111 272 q 72 331 78 309 q 66 376 66 352 q 75 419 66 393 q 106 469 83 445 q 166 510 128 493 q 261 528 203 528 q 357 514 317 528 q 423 487 397 501 l 406 398 m 106 812 l 246 669 l 385 812 l 462 812 l 289 593 l 203 593 l 31 812 l 106 812 z "},"›":{"ha":401,"x_min":38,"x_max":342,"o":"m 38 0 l 226 258 l 38 517 l 122 517 l 342 258 l 122 0 l 38 0 z "},"œ":{"ha":944,"x_min":48,"x_max":893,"o":"m 48 257 q 68 373 48 322 q 121 458 87 423 q 199 510 155 492 q 294 528 244 528 q 405 503 356 528 q 485 431 454 478 q 566 502 517 477 q 680 528 615 528 q 783 506 743 528 q 848 450 824 484 q 881 372 871 415 q 890 286 890 328 q 890 266 890 279 q 890 246 890 253 l 530 246 q 544 169 532 201 q 578 114 557 136 q 629 81 600 92 q 692 71 658 71 q 788 82 741 71 q 882 122 836 93 l 893 38 q 788 -1 839 10 q 680 -13 738 -13 q 568 12 620 -13 q 482 87 516 37 q 396 13 448 38 q 284 -13 345 -13 q 189 5 232 -13 q 114 57 145 22 q 65 141 83 91 q 48 257 48 192 m 142 257 q 153 177 142 212 q 183 118 163 142 q 229 81 202 94 q 289 68 256 68 q 346 81 319 68 q 393 118 373 94 q 425 177 413 142 q 436 257 436 212 q 425 337 436 302 q 395 396 414 372 q 349 433 376 420 q 289 446 321 446 q 231 433 258 446 q 184 396 204 420 q 153 337 165 372 q 142 257 142 302 m 673 451 q 581 418 616 451 q 534 317 545 386 l 799 317 q 789 375 799 350 q 763 417 780 400 q 723 443 746 434 q 673 451 700 451 z "},"ž":{"ha":466,"x_min":13,"x_max":446,"o":"m 438 517 l 438 470 l 137 76 l 355 76 q 400 77 377 76 q 446 83 423 78 l 446 0 l 20 0 l 20 56 l 311 441 l 114 441 q 70 440 92 441 q 35 433 49 439 l 35 517 l 438 517 m 89 812 l 229 669 l 368 812 l 444 812 l 271 593 l 186 593 l 13 812 l 89 812 z "},"Ÿ":{"ha":669,"x_min":18,"x_max":642,"o":"m 135 741 l 335 406 l 525 741 l 642 741 q 602 682 619 708 q 570 633 585 656 q 542 587 555 610 q 515 541 529 565 l 378 306 l 378 220 q 379 88 378 145 q 385 0 380 31 l 274 0 q 280 88 279 31 q 281 220 281 145 l 281 310 l 147 541 q 119 589 133 566 q 89 637 104 613 q 56 687 74 661 q 18 741 39 712 l 135 741 m 372 886 q 390 934 372 914 q 437 954 409 954 q 464 949 452 954 q 485 934 476 943 q 498 912 493 924 q 503 886 503 900 q 498 859 503 871 q 485 837 493 846 q 464 822 476 827 q 437 817 452 817 q 411 822 423 817 q 391 837 399 827 q 377 859 382 846 q 372 886 372 871 m 159 886 q 177 934 159 914 q 224 954 196 954 q 251 949 239 954 q 272 934 263 943 q 286 912 281 924 q 291 886 291 900 q 286 859 291 871 q 272 837 281 846 q 251 822 263 827 q 224 817 239 817 q 198 822 210 817 q 178 837 186 827 q 164 859 169 846 q 159 886 159 871 z "}," ":{"ha":307,"x_min":0,"x_max":0,"o":""},"¡":{"ha":388,"x_min":115,"x_max":251,"o":"m 225 335 q 227 219 226 279 q 230 91 228 158 q 236 -51 232 23 q 248 -208 240 -125 l 119 -208 q 129 -51 125 -125 q 135 91 133 23 q 138 219 137 158 q 140 335 139 279 l 225 335 m 115 496 q 120 523 115 510 q 135 544 125 535 q 157 559 144 553 q 184 564 170 564 q 210 559 197 564 q 231 544 222 553 q 245 523 240 535 q 251 496 251 510 q 245 469 251 481 q 231 448 240 457 q 210 434 222 439 q 184 429 197 429 q 157 434 170 429 q 135 448 144 439 q 120 469 125 457 q 115 496 115 481 z "},"¢":{"ha":609,"x_min":104,"x_max":504,"o":"m 373 669 l 373 538 q 445 525 414 536 q 499 498 475 514 l 483 410 q 429 443 455 431 q 373 458 402 454 l 373 106 q 437 124 408 110 q 495 163 467 139 l 504 79 q 443 43 473 56 q 373 26 413 30 l 373 -107 l 307 -107 l 307 27 q 227 51 264 32 q 163 102 190 71 q 120 178 136 134 q 104 274 104 221 q 118 366 104 322 q 159 444 132 410 q 223 503 185 479 q 307 534 260 526 l 307 669 l 373 669 m 195 279 q 225 168 195 212 q 307 110 254 123 l 307 454 q 227 395 258 440 q 195 279 195 351 z "},"£":{"ha":609,"x_min":73,"x_max":515,"o":"m 79 423 l 136 423 q 132 525 132 477 q 146 625 132 582 q 187 696 161 667 q 251 739 214 725 q 332 753 288 753 q 364 751 347 753 q 398 744 381 749 q 431 733 415 739 q 458 718 446 726 l 435 642 q 412 654 425 648 q 385 664 399 660 q 357 670 371 668 q 332 673 343 673 q 289 666 309 673 q 255 643 269 659 q 234 604 241 628 q 226 545 226 580 q 227 487 226 518 q 231 423 229 456 l 389 423 l 389 350 l 237 350 q 241 290 239 319 q 243 236 243 260 q 232 151 243 189 q 191 83 220 113 l 294 83 q 427 84 369 83 q 515 92 484 85 l 515 0 l 73 0 l 73 66 q 126 122 104 88 q 149 199 149 156 q 146 273 149 235 q 142 350 144 311 l 79 350 l 79 423 z "},"¤":{"ha":609,"x_min":19,"x_max":590,"o":"m 543 161 l 435 269 q 307 222 378 222 q 235 234 267 222 q 174 269 203 245 l 66 161 l 19 208 l 125 315 q 94 375 104 344 q 83 444 83 406 q 93 514 83 480 q 127 576 104 548 l 19 685 l 66 732 l 175 624 q 237 655 203 644 q 307 666 270 666 q 374 655 342 666 q 432 623 405 644 l 543 732 l 590 685 l 482 577 q 514 515 502 549 q 526 445 526 481 q 515 376 526 408 q 483 315 505 344 l 590 208 l 543 161 m 459 445 q 448 505 459 477 q 415 554 436 533 q 367 587 395 575 q 307 599 339 599 q 243 587 273 599 q 193 555 214 576 q 160 506 172 534 q 149 444 149 477 q 161 381 149 410 q 194 333 173 353 q 244 300 215 312 q 307 289 273 289 q 367 301 339 289 q 416 334 395 313 q 448 384 436 355 q 459 445 459 412 z "},"¥":{"ha":609,"x_min":32,"x_max":576,"o":"m 101 363 l 225 363 l 145 513 q 120 560 132 537 q 95 606 108 583 q 66 653 81 629 q 32 703 51 677 l 135 703 l 308 386 l 473 703 l 576 703 q 541 648 556 673 q 513 601 526 623 q 489 558 500 579 q 465 513 477 536 l 385 363 l 511 363 l 511 289 l 346 289 l 346 236 l 511 236 l 511 162 l 346 162 q 347 65 346 107 q 353 0 349 24 l 256 0 q 261 65 260 24 q 262 162 262 107 l 101 162 l 101 236 l 262 236 l 262 289 l 101 289 l 101 363 z "},"¦":{"ha":519,"x_min":223,"x_max":299,"o":"m 299 226 l 299 -199 l 223 -199 l 223 226 l 299 226 m 223 393 l 223 812 l 299 812 l 299 393 l 223 393 z "},"§":{"ha":519,"x_min":56,"x_max":446,"o":"m 446 260 q 420 163 446 205 q 349 98 394 121 q 423 16 399 58 q 446 -71 446 -25 q 431 -136 446 -105 q 389 -189 416 -166 q 327 -225 363 -212 q 251 -239 292 -239 q 192 -234 220 -239 q 138 -221 163 -229 q 92 -203 113 -214 q 56 -180 71 -192 l 81 -89 q 120 -117 98 -104 q 164 -139 141 -130 q 210 -153 187 -148 q 254 -158 233 -158 q 295 -152 276 -158 q 327 -134 313 -145 q 347 -111 340 -123 q 355 -84 355 -98 q 344 -39 355 -60 q 314 2 333 -18 q 267 42 294 22 q 205 85 239 62 q 145 132 171 109 q 101 178 119 154 q 75 229 83 201 q 66 290 66 256 q 92 378 66 341 q 162 434 118 414 q 89 508 112 473 q 66 581 66 543 q 76 643 66 612 q 110 698 86 673 q 170 738 133 723 q 261 753 207 753 q 357 740 317 753 q 423 713 397 727 l 406 624 q 377 640 393 631 q 342 656 361 649 q 301 668 323 663 q 256 673 280 673 q 211 667 230 673 q 181 650 193 661 q 163 627 169 640 q 157 602 157 614 q 168 566 157 583 q 199 531 179 549 q 246 493 218 513 q 307 449 273 473 q 367 402 341 424 q 411 358 393 380 q 437 312 429 336 q 446 260 446 288 m 355 243 q 350 272 355 258 q 333 302 345 287 q 302 335 321 318 q 253 373 282 353 q 184 350 210 372 q 157 292 157 328 q 162 261 157 276 q 180 230 168 246 q 212 196 192 214 q 264 157 233 178 q 330 185 304 161 q 355 243 355 210 z "},"¨":{"ha":345,"x_min":0,"x_max":345,"o":"m 213 682 q 232 731 213 711 q 279 751 250 751 q 305 745 293 751 q 326 730 317 740 q 339 709 334 721 q 345 682 345 696 q 339 655 345 668 q 326 633 334 643 q 305 618 317 624 q 279 613 293 613 q 253 618 264 613 q 232 633 241 624 q 218 655 223 643 q 213 682 213 668 m 0 682 q 19 731 0 711 q 66 751 37 751 q 92 745 80 751 q 113 730 104 740 q 127 709 122 721 q 132 682 132 696 q 127 655 132 668 q 113 633 122 643 q 92 618 104 624 q 66 613 80 613 q 40 618 52 613 q 19 633 28 624 q 5 655 10 643 q 0 682 0 668 z "},"©":{"ha":768,"x_min":25,"x_max":743,"o":"m 382 692 q 273 672 326 692 q 179 610 220 651 q 114 509 138 570 q 89 370 89 449 q 114 231 89 291 q 179 130 138 171 q 273 69 220 90 q 382 48 326 48 q 493 69 439 48 q 588 130 547 90 q 654 231 629 171 q 680 370 680 291 q 654 509 680 449 q 588 610 629 570 q 493 672 547 651 q 382 692 439 692 m 382 753 q 471 743 427 753 q 555 710 515 732 q 629 657 595 689 q 689 582 664 625 q 729 487 714 540 q 743 370 743 433 q 729 252 743 305 q 689 156 714 198 q 629 81 664 113 q 555 29 595 50 q 471 -2 515 8 q 382 -13 427 -13 q 250 11 315 -13 q 136 81 186 34 q 56 201 86 129 q 25 370 25 273 q 56 537 25 465 q 136 657 86 609 q 250 729 186 705 q 382 753 315 753 m 525 190 q 457 150 496 163 q 380 136 418 136 q 298 153 335 136 q 235 200 261 170 q 194 272 209 230 q 180 366 180 315 q 198 469 180 424 q 245 545 216 514 q 312 591 275 575 q 389 606 350 606 q 455 596 423 606 q 522 560 488 587 l 502 500 q 445 539 471 528 q 389 551 418 551 q 332 539 359 551 q 286 505 306 528 q 255 449 267 482 q 243 373 243 416 q 254 307 243 339 q 282 250 264 275 q 327 210 300 225 q 385 195 353 195 q 453 212 421 195 q 512 256 486 229 l 525 190 z "},"ª":{"ha":405,"x_min":37,"x_max":368,"o":"m 37 304 l 368 304 l 368 254 l 37 254 l 37 304 m 336 472 q 344 404 336 435 q 363 345 352 374 l 300 345 q 292 367 297 353 q 283 398 286 380 q 219 351 252 366 q 154 336 186 336 q 108 343 129 336 q 73 365 87 351 q 49 396 58 378 q 41 433 41 414 q 47 472 41 453 q 70 507 54 491 q 112 535 85 524 q 179 552 139 547 q 202 553 188 553 q 230 554 216 554 q 255 554 243 554 q 273 555 267 555 l 273 574 q 251 619 273 605 q 190 633 229 633 q 134 622 161 633 q 77 589 107 611 q 77 605 77 595 q 78 624 77 614 q 79 643 78 634 q 80 659 79 652 q 137 679 108 669 q 205 688 165 688 q 259 681 235 688 q 300 660 283 673 q 327 629 317 647 q 336 591 336 612 l 336 472 m 273 507 q 255 506 267 507 q 230 505 243 506 q 203 504 216 505 q 182 503 191 503 q 121 481 138 498 q 103 441 103 465 q 119 405 103 418 q 163 393 134 393 q 189 395 176 393 q 215 404 202 397 q 243 423 229 410 q 273 457 257 436 l 273 507 z "},"«":{"ha":660,"x_min":38,"x_max":601,"o":"m 260 0 l 38 260 l 258 517 l 353 517 l 155 260 l 353 0 l 260 0 m 509 0 l 287 260 l 507 517 l 601 517 l 404 260 l 601 0 l 509 0 z "},"¬":{"ha":609,"x_min":56,"x_max":541,"o":"m 464 173 l 464 329 l 56 329 l 56 406 l 541 406 l 541 173 l 464 173 z "},"­":{"ha":646,"x_min":43,"x_max":594,"o":"m 594 330 l 43 330 l 43 391 l 594 391 l 594 330 z "},"®":{"ha":819,"x_min":76,"x_max":794,"o":"m 433 753 q 522 743 477 753 q 606 710 566 732 q 680 657 646 689 q 740 582 715 625 q 780 487 765 540 q 794 370 794 433 q 780 252 794 305 q 740 156 765 198 q 680 81 715 113 q 606 29 646 50 q 522 -2 566 8 q 433 -13 477 -13 q 301 11 366 -13 q 187 81 237 34 q 106 201 137 129 q 76 370 76 273 q 106 537 76 465 q 187 657 137 609 q 301 729 237 705 q 433 753 366 753 m 433 692 q 323 672 376 692 q 230 610 271 651 q 164 509 189 570 q 139 370 139 449 q 164 231 139 291 q 230 130 189 171 q 323 69 271 90 q 433 48 376 48 q 544 69 490 48 q 639 130 597 90 q 705 231 680 171 q 730 370 730 291 q 705 509 730 449 q 639 610 680 570 q 544 672 597 651 q 433 692 490 692 m 342 278 q 343 198 342 230 q 348 147 344 167 l 277 147 q 280 198 280 167 q 281 278 281 230 l 281 456 q 280 538 281 503 q 277 593 280 574 q 311 596 292 595 q 352 598 328 597 q 404 599 375 599 q 470 591 439 599 q 524 567 501 583 q 558 527 546 551 q 571 470 571 503 q 562 420 571 441 q 538 384 553 399 q 504 359 523 368 q 467 345 486 349 q 489 315 475 333 q 517 277 502 297 q 548 235 532 256 q 577 196 564 214 q 602 165 591 178 q 616 147 612 152 l 538 147 l 406 339 l 342 339 l 342 278 m 342 389 l 401 389 q 480 409 453 389 q 507 464 507 428 q 482 524 507 503 q 401 546 457 546 q 370 545 384 546 q 342 544 355 545 l 342 389 z "},"¯":{"ha":481,"x_min":0,"x_max":481,"o":"m 0 943 l 481 943 l 481 841 l 0 841 l 0 943 z "},"ˉ":{"ha":431,"x_min":25,"x_max":406,"o":"m 25 705 l 406 705 l 406 629 l 25 629 l 25 705 z "},"°":{"ha":325,"x_min":35,"x_max":289,"o":"m 231 626 q 225 653 231 640 q 211 674 220 665 q 189 689 201 684 q 162 694 176 694 q 135 689 148 694 q 114 674 123 684 q 99 653 104 665 q 94 626 94 640 q 99 599 94 612 q 114 577 104 587 q 135 563 123 568 q 162 558 148 558 q 189 563 176 558 q 211 577 201 568 q 225 599 220 587 q 231 626 231 612 m 35 626 q 45 676 35 653 q 72 716 55 699 q 113 744 90 734 q 162 753 136 753 q 212 744 189 753 q 252 716 235 734 q 279 676 269 699 q 289 626 289 653 q 279 576 289 600 q 252 536 269 553 q 212 510 235 519 q 162 500 189 500 q 113 510 136 500 q 72 536 90 519 q 45 576 55 553 q 35 626 35 600 z "},"±":{"ha":609,"x_min":79,"x_max":530,"o":"m 79 500 l 267 500 l 267 692 l 342 692 l 342 500 l 530 500 l 530 423 l 342 423 l 342 238 l 267 238 l 267 423 l 79 423 l 79 500 m 79 177 l 530 177 l 530 101 l 79 101 l 79 177 z "},"²":{"ha":426,"x_min":45,"x_max":386,"o":"m 386 345 l 45 345 l 45 400 q 124 460 81 425 q 204 535 167 495 q 266 615 241 574 q 290 689 290 655 q 282 728 290 712 q 259 755 273 745 q 227 770 245 766 q 189 775 208 775 q 121 758 156 775 q 62 714 87 741 l 47 770 q 75 795 58 784 q 113 816 92 807 q 156 829 134 825 q 201 834 179 834 q 262 824 233 834 q 313 797 291 814 q 348 753 335 779 q 361 696 361 728 q 350 640 361 668 q 321 583 339 611 q 280 529 303 555 q 233 479 257 503 q 184 435 208 455 q 141 399 161 414 l 232 399 q 325 399 285 399 q 386 404 365 400 l 386 345 z "},"³":{"ha":426,"x_min":41,"x_max":389,"o":"m 173 631 q 223 638 199 631 q 265 656 247 645 q 294 682 283 668 q 304 712 304 696 q 296 741 304 729 q 274 761 288 753 q 245 772 261 768 q 212 776 229 776 q 140 765 171 776 q 79 726 109 754 l 67 782 q 126 819 88 804 q 209 834 164 834 q 271 826 241 834 q 323 804 301 819 q 359 768 346 789 q 372 720 372 747 q 361 679 372 698 q 334 645 351 660 q 297 621 317 631 q 258 608 277 612 q 300 597 277 605 q 342 573 323 589 q 376 535 362 558 q 389 478 389 511 q 373 423 389 449 q 331 378 357 397 q 270 348 304 359 q 197 336 235 336 q 110 351 149 336 q 41 391 70 366 l 51 461 q 117 412 79 431 q 203 394 155 394 q 245 400 224 394 q 282 417 266 406 q 310 445 299 428 q 321 485 321 462 q 310 522 321 505 q 278 550 298 538 q 231 569 258 562 q 173 575 204 575 l 148 575 l 148 631 l 173 631 z "},"´":{"ha":294,"x_min":0,"x_max":294,"o":"m 294 812 l 81 593 l 0 593 l 177 812 l 294 812 z "},"µ":{"ha":601,"x_min":68,"x_max":553,"o":"m 467 0 q 451 45 459 18 q 439 101 443 73 q 409 62 427 82 q 370 25 391 42 q 325 -2 349 9 q 277 -13 301 -13 q 243 -8 259 -13 q 214 4 227 -4 q 190 21 201 12 q 173 41 180 31 l 173 -77 q 174 -132 173 -107 q 176 -177 174 -157 q 180 -215 177 -197 q 186 -249 182 -233 l 79 -249 l 79 355 q 78 399 79 379 q 77 437 78 418 q 74 476 76 456 q 68 517 72 495 l 173 517 l 173 236 q 183 161 173 193 q 209 110 193 130 q 245 80 224 90 q 286 71 265 71 q 327 84 305 71 q 367 118 348 97 q 402 164 387 138 q 426 213 418 189 l 426 355 q 426 400 426 380 q 424 438 425 420 q 421 475 423 456 q 416 517 419 494 l 520 517 l 520 228 q 529 98 520 154 q 553 0 537 43 l 467 0 z "},"¶":{"ha":520,"x_min":25,"x_max":490,"o":"m 431 682 l 431 0 l 363 0 l 363 682 l 281 682 l 281 0 l 213 0 l 213 389 q 155 397 187 389 q 93 426 122 406 q 45 480 64 446 q 25 565 25 514 q 45 650 25 616 q 94 704 64 684 q 158 732 123 724 q 223 741 193 741 l 490 741 l 490 682 l 431 682 z "},"·":{"ha":344,"x_min":104,"x_max":240,"o":"m 104 360 q 110 386 104 374 q 124 408 115 399 q 146 422 134 417 q 172 428 158 428 q 199 422 186 428 q 220 408 211 417 q 235 386 229 399 q 240 360 240 374 q 235 333 240 346 q 220 312 229 321 q 199 297 211 302 q 172 292 186 292 q 146 297 158 292 q 124 312 134 302 q 110 333 115 321 q 104 360 104 346 z "},"∙":{"ha":344,"x_min":104,"x_max":240,"o":"m 104 360 q 110 386 104 374 q 124 408 115 399 q 146 422 134 417 q 172 428 158 428 q 199 422 186 428 q 220 408 211 417 q 235 386 229 399 q 240 360 240 374 q 235 333 240 346 q 220 312 229 321 q 199 297 211 302 q 172 292 186 292 q 146 297 158 292 q 124 312 134 302 q 110 333 115 321 q 104 360 104 346 z "},"¸":{"ha":198,"x_min":0,"x_max":198,"o":"m 94 25 l 94 -48 q 119 -45 102 -45 q 176 -70 153 -45 q 198 -132 198 -94 q 186 -179 198 -158 q 156 -214 174 -199 q 114 -236 137 -228 q 68 -243 91 -243 q 32 -238 49 -243 q 0 -224 16 -232 l 5 -173 q 28 -184 16 -181 q 56 -188 40 -188 q 78 -185 66 -188 q 100 -177 90 -182 q 117 -161 110 -171 q 124 -137 123 -151 q 110 -104 123 -117 q 75 -92 96 -92 q 51 -95 62 -92 q 31 -104 39 -99 l 31 25 l 94 25 z "},"¹":{"ha":426,"x_min":74,"x_max":260,"o":"m 254 501 q 254 464 254 485 q 255 420 254 442 q 257 378 256 398 q 260 345 258 358 l 186 345 l 186 760 l 83 699 l 74 758 l 186 826 l 254 826 l 254 501 z "},"º":{"ha":405,"x_min":36,"x_max":374,"o":"m 36 511 q 50 587 36 554 q 87 642 64 620 q 142 676 111 665 q 208 688 173 688 q 275 676 245 688 q 328 642 306 665 q 361 587 349 620 q 374 511 374 554 q 360 436 374 469 q 322 381 346 404 q 268 348 299 359 q 201 337 237 337 q 135 348 165 337 q 82 381 104 359 q 48 436 60 404 q 36 511 36 469 m 102 511 q 131 422 102 454 q 205 390 159 390 q 245 398 227 390 q 278 422 264 406 q 300 460 292 437 q 308 511 308 483 q 279 602 308 569 q 205 635 251 635 q 164 627 183 635 q 132 602 146 618 q 111 563 119 586 q 102 511 102 540 m 36 304 l 374 304 l 374 254 l 36 254 l 36 304 z "},"»":{"ha":660,"x_min":58,"x_max":622,"o":"m 307 0 l 505 260 l 307 517 l 401 517 l 622 260 l 399 0 l 307 0 m 58 0 l 256 260 l 58 517 l 152 517 l 373 260 l 151 0 l 58 0 z "},"¼":{"ha":812,"x_min":56,"x_max":771,"o":"m 705 132 q 705 98 705 117 q 707 62 706 80 q 710 27 708 43 q 713 0 711 11 l 637 0 l 637 132 l 439 132 l 439 186 l 637 451 l 705 451 l 705 186 l 771 186 l 771 132 l 705 132 m 731 812 l 182 -26 l 117 -26 l 665 812 l 731 812 m 227 504 q 227 468 227 488 q 228 427 227 448 q 230 387 229 406 q 233 355 231 368 l 162 355 l 162 749 l 64 692 l 56 748 l 162 812 l 227 812 l 227 504 m 507 186 l 637 186 l 637 366 l 507 186 z "},"½":{"ha":812,"x_min":56,"x_max":786,"o":"m 714 812 l 170 -26 l 104 -26 l 648 812 l 714 812 m 786 0 l 495 0 l 495 56 q 562 110 526 78 q 628 178 597 142 q 680 251 659 214 q 701 319 701 288 q 694 355 701 341 q 676 378 687 370 q 650 389 665 386 q 619 393 635 393 q 590 389 605 393 q 560 377 574 385 q 533 360 546 370 q 510 338 520 350 l 495 393 q 519 417 504 406 q 552 436 534 428 q 589 450 570 445 q 628 454 609 454 q 681 445 656 454 q 725 419 706 436 q 755 378 744 402 q 766 325 766 354 q 747 246 766 286 q 699 170 727 206 q 638 103 670 134 q 581 54 606 73 l 654 54 q 734 54 700 54 q 786 58 768 55 l 786 0 m 227 504 q 227 468 227 488 q 228 427 227 448 q 230 387 229 406 q 233 355 231 368 l 162 355 l 162 749 l 64 692 l 56 748 l 162 812 l 227 812 l 227 504 z "},"¾":{"ha":812,"x_min":64,"x_max":768,"o":"m 703 132 q 703 98 703 117 q 704 62 703 80 q 707 27 705 43 q 710 0 708 11 l 634 0 l 634 132 l 436 132 l 436 186 l 634 451 l 703 451 l 703 186 l 768 186 l 768 132 l 703 132 m 727 812 l 182 -26 l 117 -26 l 661 812 l 727 812 m 342 490 q 331 438 342 463 q 299 395 319 414 q 251 364 279 376 q 190 353 223 353 q 118 366 151 353 q 64 398 85 379 l 71 464 q 123 425 92 440 q 187 410 155 410 q 252 430 226 410 q 279 495 279 450 q 250 554 279 532 q 167 576 222 576 l 145 576 l 145 632 l 167 632 q 240 652 213 632 q 267 701 267 672 q 245 743 267 731 q 195 755 224 755 q 149 749 171 755 q 96 720 127 742 l 83 774 q 138 804 111 793 q 200 814 166 814 q 252 806 229 814 q 292 783 275 798 q 318 748 309 768 q 328 703 328 727 q 320 667 328 684 q 300 639 313 651 q 273 619 288 627 q 241 609 257 611 q 275 599 257 608 q 308 576 293 591 q 332 539 322 561 q 342 490 342 518 m 505 186 l 634 186 l 634 366 l 505 186 z "},"¿":{"ha":532,"x_min":71,"x_max":420,"o":"m 420 -152 q 390 -174 408 -164 q 351 -192 372 -184 q 306 -204 330 -200 q 258 -208 282 -208 q 183 -199 218 -208 q 124 -171 149 -189 q 85 -123 99 -152 q 71 -56 71 -95 q 75 -20 71 -37 q 89 15 79 -3 q 113 51 98 32 q 150 96 128 71 q 187 144 173 123 q 209 192 201 165 q 218 254 216 218 q 220 350 220 291 l 309 350 q 307 245 309 288 q 298 173 305 203 q 279 120 292 142 q 246 76 267 98 q 208 32 222 50 q 186 -2 193 13 q 177 -28 179 -16 q 175 -51 175 -40 q 180 -74 175 -62 q 196 -96 184 -86 q 226 -113 208 -106 q 273 -119 245 -119 q 336 -106 303 -119 q 398 -62 370 -92 l 420 -152 m 336 496 q 316 449 336 468 q 268 429 296 429 q 241 434 254 429 q 219 449 229 439 q 205 470 210 458 q 199 496 199 482 q 205 523 199 511 q 219 545 210 536 q 241 559 229 554 q 268 565 254 565 q 294 559 282 565 q 316 545 307 554 q 330 523 325 536 q 336 496 336 511 z "},"À":{"ha":707,"x_min":20,"x_max":677,"o":"m 20 0 q 34 32 26 16 q 50 70 41 49 q 68 117 58 91 q 92 180 79 144 l 294 741 l 404 741 l 606 180 q 629 118 619 144 q 648 70 640 91 q 664 32 656 49 q 677 0 671 15 l 573 0 l 504 195 l 192 195 l 124 0 l 20 0 m 348 642 l 220 274 l 477 274 l 348 642 m 283 1015 l 460 797 l 379 797 l 166 1015 l 283 1015 z "},"Á":{"ha":707,"x_min":20,"x_max":677,"o":"m 20 0 q 34 32 26 16 q 50 70 41 49 q 68 117 58 91 q 92 180 79 144 l 294 741 l 404 741 l 606 180 q 629 118 619 144 q 648 70 640 91 q 664 32 656 49 q 677 0 671 15 l 573 0 l 504 195 l 192 195 l 124 0 l 20 0 m 348 642 l 220 274 l 477 274 l 348 642 m 524 1015 l 311 797 l 229 797 l 406 1015 l 524 1015 z "},"Â":{"ha":707,"x_min":20,"x_max":677,"o":"m 20 0 q 34 32 26 16 q 50 70 41 49 q 68 117 58 91 q 92 180 79 144 l 294 741 l 404 741 l 606 180 q 629 118 619 144 q 648 70 640 91 q 664 32 656 49 q 677 0 671 15 l 573 0 l 504 195 l 192 195 l 124 0 l 20 0 m 348 642 l 220 274 l 477 274 l 348 642 m 137 797 l 309 1015 l 396 1015 l 568 797 l 492 797 l 353 939 l 214 797 l 137 797 z "},"Ã":{"ha":707,"x_min":20,"x_max":677,"o":"m 20 0 q 34 32 26 16 q 50 70 41 49 q 68 117 58 91 q 92 180 79 144 l 294 741 l 404 741 l 606 180 q 629 118 619 144 q 648 70 640 91 q 664 32 656 49 q 677 0 671 15 l 573 0 l 504 195 l 192 195 l 124 0 l 20 0 m 348 642 l 220 274 l 477 274 l 348 642 m 176 815 q 182 861 176 838 q 202 902 189 884 q 232 931 214 920 q 273 942 250 942 q 311 934 288 942 q 357 917 333 926 q 402 899 380 907 q 439 891 425 891 q 468 904 457 891 q 483 934 479 916 l 536 934 q 529 887 536 909 q 509 846 522 864 q 477 818 496 828 q 435 807 458 807 q 397 815 420 807 q 351 832 374 823 q 306 849 327 842 q 272 857 285 857 q 242 845 253 857 q 229 815 231 833 l 176 815 z "},"Ä":{"ha":707,"x_min":20,"x_max":677,"o":"m 20 0 q 34 32 26 16 q 50 70 41 49 q 68 117 58 91 q 92 180 79 144 l 294 741 l 404 741 l 606 180 q 629 118 619 144 q 648 70 640 91 q 664 32 656 49 q 677 0 671 15 l 573 0 l 504 195 l 192 195 l 124 0 l 20 0 m 348 642 l 220 274 l 477 274 l 348 642 m 388 886 q 407 934 388 914 q 454 954 425 954 q 480 949 468 954 q 501 934 492 943 q 514 912 509 924 q 519 886 519 900 q 514 859 519 871 q 501 837 509 846 q 480 822 492 827 q 454 817 468 817 q 428 822 439 817 q 407 837 416 827 q 393 859 398 846 q 388 886 388 871 m 175 886 q 194 934 175 914 q 241 954 212 954 q 267 949 255 954 q 288 934 279 943 q 302 912 297 924 q 307 886 307 900 q 302 859 307 871 q 288 837 297 846 q 267 822 279 827 q 241 817 255 817 q 215 822 227 817 q 194 837 203 827 q 180 859 185 846 q 175 886 175 871 z "},"Å":{"ha":707,"x_min":20,"x_max":677,"o":"m 20 0 q 34 32 26 16 q 50 70 41 49 q 68 117 58 91 q 92 180 79 144 l 294 741 l 404 741 l 606 180 q 629 118 619 144 q 648 70 640 91 q 664 32 656 49 q 677 0 671 15 l 573 0 l 504 195 l 192 195 l 124 0 l 20 0 m 348 642 l 220 274 l 477 274 l 348 642 m 399 906 q 385 943 399 929 q 349 957 371 957 q 311 943 326 957 q 297 906 297 929 q 311 869 297 884 q 349 855 326 855 q 385 869 371 855 q 399 906 399 884 m 239 906 q 248 949 239 929 q 271 983 256 968 q 306 1007 286 998 q 349 1015 326 1015 q 391 1007 372 1015 q 426 983 411 998 q 449 949 440 968 q 457 906 457 929 q 449 863 457 883 q 426 828 440 843 q 391 805 411 814 q 349 797 372 797 q 306 805 326 797 q 271 828 286 814 q 248 863 256 843 q 239 906 239 883 z "},"Æ":{"ha":916,"x_min":41,"x_max":855,"o":"m 563 348 l 563 83 l 646 83 q 773 84 722 83 q 855 92 825 85 l 855 0 l 459 0 q 462 22 460 9 q 464 57 463 35 q 465 112 465 79 q 466 195 466 145 l 238 195 l 142 0 l 41 0 q 72 54 58 28 q 99 103 86 79 q 124 151 112 127 q 149 202 136 176 l 410 741 l 840 741 l 840 657 l 563 657 l 563 429 l 802 429 l 802 348 l 563 348 m 277 274 l 467 274 l 467 657 l 277 274 z "},"Ç":{"ha":688,"x_min":48,"x_max":624,"o":"m 624 71 q 581 40 606 54 q 530 16 557 26 q 475 -1 503 5 q 420 -10 446 -7 l 420 -60 q 444 -57 427 -57 q 501 -81 479 -57 q 524 -144 524 -106 q 512 -190 524 -170 q 481 -225 500 -211 q 439 -247 463 -239 q 394 -255 416 -255 q 358 -249 374 -255 q 326 -235 341 -243 l 330 -184 q 353 -196 341 -193 q 381 -199 366 -199 q 404 -197 392 -199 q 426 -188 416 -194 q 442 -173 435 -182 q 450 -149 449 -163 q 435 -116 449 -129 q 401 -103 421 -103 q 376 -107 388 -103 q 356 -116 364 -111 l 356 -12 q 227 20 284 -8 q 131 96 170 47 q 70 211 91 144 q 48 360 48 278 q 77 532 48 458 q 153 655 105 606 q 262 729 200 704 q 391 753 323 753 q 504 738 446 753 q 616 682 562 723 l 586 591 q 487 650 538 634 q 391 667 437 667 q 293 648 338 667 q 216 593 248 629 q 165 501 183 556 q 147 373 147 446 q 165 250 147 304 q 215 156 183 195 q 290 97 247 117 q 385 76 334 76 q 444 83 414 76 q 502 102 473 90 q 556 131 530 114 q 604 170 582 149 l 624 71 z "},"È":{"ha":588,"x_min":81,"x_max":528,"o":"m 474 429 l 474 348 l 186 348 l 186 83 l 319 83 q 446 84 394 83 q 528 92 497 85 l 528 0 l 81 0 q 88 88 87 31 q 89 220 89 145 l 89 520 q 88 653 89 595 q 81 741 87 710 l 512 741 l 512 657 l 186 657 l 186 429 l 474 429 m 234 1015 l 412 797 l 330 797 l 117 1015 l 234 1015 z "},"É":{"ha":588,"x_min":81,"x_max":528,"o":"m 474 429 l 474 348 l 186 348 l 186 83 l 319 83 q 446 84 394 83 q 528 92 497 85 l 528 0 l 81 0 q 88 88 87 31 q 89 220 89 145 l 89 520 q 88 653 89 595 q 81 741 87 710 l 512 741 l 512 657 l 186 657 l 186 429 l 474 429 m 475 1015 l 262 797 l 180 797 l 357 1015 l 475 1015 z "},"Ê":{"ha":588,"x_min":81,"x_max":528,"o":"m 474 429 l 474 348 l 186 348 l 186 83 l 319 83 q 446 84 394 83 q 528 92 497 85 l 528 0 l 81 0 q 88 88 87 31 q 89 220 89 145 l 89 520 q 88 653 89 595 q 81 741 87 710 l 512 741 l 512 657 l 186 657 l 186 429 l 474 429 m 88 797 l 260 1015 l 347 1015 l 519 797 l 444 797 l 304 939 l 165 797 l 88 797 z "},"Ë":{"ha":588,"x_min":81,"x_max":528,"o":"m 474 429 l 474 348 l 186 348 l 186 83 l 319 83 q 446 84 394 83 q 528 92 497 85 l 528 0 l 81 0 q 88 88 87 31 q 89 220 89 145 l 89 520 q 88 653 89 595 q 81 741 87 710 l 512 741 l 512 657 l 186 657 l 186 429 l 474 429 m 339 886 q 358 934 339 914 q 405 954 376 954 q 431 949 419 954 q 452 934 444 943 q 466 912 460 924 q 471 886 471 900 q 466 859 471 871 q 452 837 460 846 q 431 822 444 827 q 405 817 419 817 q 379 822 391 817 q 358 837 367 827 q 344 859 349 846 q 339 886 339 871 m 126 886 q 145 934 126 914 q 192 954 163 954 q 218 949 206 954 q 239 934 231 943 q 253 912 248 924 q 258 886 258 900 q 253 859 258 871 q 239 837 248 846 q 218 822 231 827 q 192 817 206 817 q 166 822 178 817 q 145 837 154 827 q 131 859 136 846 q 126 886 126 871 z "},"Ì":{"ha":495,"x_min":62,"x_max":414,"o":"m 414 741 l 414 667 l 289 667 l 289 73 l 414 73 l 414 0 l 71 0 l 71 73 l 193 73 l 193 667 l 71 667 l 71 741 l 414 741 m 178 1015 l 356 797 l 275 797 l 62 1015 l 178 1015 z "},"Í":{"ha":495,"x_min":71,"x_max":419,"o":"m 414 741 l 414 667 l 289 667 l 289 73 l 414 73 l 414 0 l 71 0 l 71 73 l 193 73 l 193 667 l 71 667 l 71 741 l 414 741 m 419 1015 l 206 797 l 125 797 l 302 1015 l 419 1015 z "},"Î":{"ha":495,"x_min":33,"x_max":464,"o":"m 414 741 l 414 667 l 289 667 l 289 73 l 414 73 l 414 0 l 71 0 l 71 73 l 193 73 l 193 667 l 71 667 l 71 741 l 414 741 m 33 797 l 205 1015 l 292 1015 l 464 797 l 388 797 l 248 939 l 109 797 l 33 797 z "},"Ï":{"ha":495,"x_min":71,"x_max":415,"o":"m 414 741 l 414 667 l 289 667 l 289 73 l 414 73 l 414 0 l 71 0 l 71 73 l 193 73 l 193 667 l 71 667 l 71 741 l 414 741 m 283 886 q 302 934 283 914 q 349 954 321 954 q 376 949 363 954 q 396 934 388 943 q 410 912 405 924 q 415 886 415 900 q 410 859 415 871 q 396 837 405 846 q 376 822 388 827 q 349 817 363 817 q 323 822 335 817 q 302 837 311 827 q 289 859 294 846 q 283 886 283 871 m 71 886 q 89 934 71 914 q 136 954 108 954 q 163 949 151 954 q 184 934 175 943 q 198 912 193 924 q 203 886 203 900 q 198 859 203 871 q 184 837 193 846 q 163 822 175 827 q 136 817 151 817 q 110 822 122 817 q 90 837 98 827 q 76 859 81 846 q 71 886 71 871 z "},"Ð":{"ha":728,"x_min":0,"x_max":667,"o":"m 89 423 l 89 507 q 89 580 89 545 q 88 646 89 616 q 86 701 87 677 q 81 741 84 726 q 126 742 98 741 q 187 744 154 743 q 253 745 220 745 q 312 745 286 745 q 376 741 339 745 q 452 723 413 736 q 530 685 492 709 q 599 619 568 660 q 648 518 629 578 q 667 376 667 458 q 650 243 667 300 q 605 143 633 185 q 540 72 577 100 q 463 26 503 43 q 380 2 422 9 q 302 -5 339 -5 q 274 -5 290 -5 q 240 -4 258 -5 q 203 -4 222 -4 q 167 -3 184 -3 q 81 0 125 -1 q 86 39 84 15 q 88 93 87 63 q 89 158 89 123 q 89 231 89 193 l 89 350 l 0 350 l 0 423 l 89 423 m 186 423 l 378 423 l 378 350 l 186 350 l 186 83 q 232 80 203 82 q 297 79 260 79 q 397 94 348 79 q 484 144 446 110 q 545 232 522 178 q 568 366 568 287 q 547 508 568 450 q 488 600 525 565 q 403 649 452 634 q 299 664 354 664 q 271 664 287 664 q 239 664 255 664 q 210 663 224 663 q 186 663 195 663 l 186 423 z "},"Ñ":{"ha":761,"x_min":81,"x_max":667,"o":"m 173 583 l 173 0 l 81 0 q 88 88 87 31 q 89 220 89 145 l 89 520 q 88 653 89 595 q 81 741 87 710 l 173 741 l 576 155 l 576 741 l 667 741 q 661 653 662 710 q 660 520 660 595 l 660 0 l 576 0 l 173 583 m 197 815 q 204 861 197 838 q 223 902 211 884 q 254 931 236 920 q 294 942 272 942 q 332 934 310 942 q 378 917 355 926 q 424 899 402 907 q 461 891 446 891 q 490 904 479 891 q 505 934 501 916 l 557 934 q 551 887 557 909 q 531 846 544 864 q 499 818 517 828 q 457 807 480 807 q 419 815 441 807 q 372 832 396 823 q 328 849 349 842 q 294 857 307 857 q 263 845 275 857 q 251 815 252 833 l 197 815 z "},"Ò":{"ha":741,"x_min":48,"x_max":680,"o":"m 581 363 q 566 489 581 433 q 522 584 550 545 q 453 643 493 623 q 366 664 414 664 q 277 644 317 664 q 208 587 237 624 q 163 497 179 549 q 147 378 147 444 q 163 253 147 309 q 207 157 178 197 q 276 97 235 118 q 366 76 316 76 q 452 95 412 76 q 520 152 491 115 q 565 242 549 189 q 581 363 581 295 m 680 376 q 652 212 680 284 q 581 90 625 140 q 478 14 536 40 q 360 -13 421 -13 q 243 12 299 -13 q 143 85 186 37 q 74 203 100 133 q 48 366 48 274 q 75 529 48 456 q 148 651 102 601 q 251 727 193 701 q 370 753 309 753 q 487 729 431 753 q 585 656 543 704 q 654 537 628 608 q 680 376 680 467 m 304 1015 l 481 797 l 400 797 l 187 1015 l 304 1015 z "},"Ó":{"ha":741,"x_min":48,"x_max":680,"o":"m 581 363 q 566 489 581 433 q 522 584 550 545 q 453 643 493 623 q 366 664 414 664 q 277 644 317 664 q 208 587 237 624 q 163 497 179 549 q 147 378 147 444 q 163 253 147 309 q 207 157 178 197 q 276 97 235 118 q 366 76 316 76 q 452 95 412 76 q 520 152 491 115 q 565 242 549 189 q 581 363 581 295 m 680 376 q 652 212 680 284 q 581 90 625 140 q 478 14 536 40 q 360 -13 421 -13 q 243 12 299 -13 q 143 85 186 37 q 74 203 100 133 q 48 366 48 274 q 75 529 48 456 q 148 651 102 601 q 251 727 193 701 q 370 753 309 753 q 487 729 431 753 q 585 656 543 704 q 654 537 628 608 q 680 376 680 467 m 545 1015 l 332 797 l 250 797 l 427 1015 l 545 1015 z "},"Ô":{"ha":741,"x_min":48,"x_max":680,"o":"m 581 363 q 566 489 581 433 q 522 584 550 545 q 453 643 493 623 q 366 664 414 664 q 277 644 317 664 q 208 587 237 624 q 163 497 179 549 q 147 378 147 444 q 163 253 147 309 q 207 157 178 197 q 276 97 235 118 q 366 76 316 76 q 452 95 412 76 q 520 152 491 115 q 565 242 549 189 q 581 363 581 295 m 680 376 q 652 212 680 284 q 581 90 625 140 q 478 14 536 40 q 360 -13 421 -13 q 243 12 299 -13 q 143 85 186 37 q 74 203 100 133 q 48 366 48 274 q 75 529 48 456 q 148 651 102 601 q 251 727 193 701 q 370 753 309 753 q 487 729 431 753 q 585 656 543 704 q 654 537 628 608 q 680 376 680 467 m 158 797 l 330 1015 l 417 1015 l 589 797 l 513 797 l 374 939 l 235 797 l 158 797 z "},"Õ":{"ha":741,"x_min":48,"x_max":680,"o":"m 581 363 q 566 489 581 433 q 522 584 550 545 q 453 643 493 623 q 366 664 414 664 q 277 644 317 664 q 208 587 237 624 q 163 497 179 549 q 147 378 147 444 q 163 253 147 309 q 207 157 178 197 q 276 97 235 118 q 366 76 316 76 q 452 95 412 76 q 520 152 491 115 q 565 242 549 189 q 581 363 581 295 m 680 376 q 652 212 680 284 q 581 90 625 140 q 478 14 536 40 q 360 -13 421 -13 q 243 12 299 -13 q 143 85 186 37 q 74 203 100 133 q 48 366 48 274 q 75 529 48 456 q 148 651 102 601 q 251 727 193 701 q 370 753 309 753 q 487 729 431 753 q 585 656 543 704 q 654 537 628 608 q 680 376 680 467 m 197 815 q 203 861 197 838 q 223 902 210 884 q 253 931 235 920 q 294 942 271 942 q 332 934 309 942 q 378 917 354 926 q 424 899 401 907 q 460 891 446 891 q 489 904 478 891 q 504 934 500 916 l 557 934 q 550 887 557 909 q 530 846 543 864 q 498 818 517 828 q 456 807 479 807 q 418 815 441 807 q 372 832 395 823 q 327 849 348 842 q 293 857 306 857 q 263 845 274 857 q 250 815 252 833 l 197 815 z "},"Ö":{"ha":741,"x_min":48,"x_max":680,"o":"m 581 363 q 566 489 581 433 q 522 584 550 545 q 453 643 493 623 q 366 664 414 664 q 277 644 317 664 q 208 587 237 624 q 163 497 179 549 q 147 378 147 444 q 163 253 147 309 q 207 157 178 197 q 276 97 235 118 q 366 76 316 76 q 452 95 412 76 q 520 152 491 115 q 565 242 549 189 q 581 363 581 295 m 680 376 q 652 212 680 284 q 581 90 625 140 q 478 14 536 40 q 360 -13 421 -13 q 243 12 299 -13 q 143 85 186 37 q 74 203 100 133 q 48 366 48 274 q 75 529 48 456 q 148 651 102 601 q 251 727 193 701 q 370 753 309 753 q 487 729 431 753 q 585 656 543 704 q 654 537 628 608 q 680 376 680 467 m 409 886 q 428 934 409 914 q 475 954 446 954 q 501 949 489 954 q 522 934 513 943 q 535 912 530 924 q 541 886 541 900 q 535 859 541 871 q 522 837 530 846 q 501 822 513 827 q 475 817 489 817 q 449 822 460 817 q 428 837 437 827 q 414 859 419 846 q 409 886 409 871 m 196 886 q 215 934 196 914 q 262 954 233 954 q 288 949 276 954 q 309 934 300 943 q 323 912 318 924 q 328 886 328 900 q 323 859 328 871 q 309 837 318 846 q 288 822 300 827 q 262 817 276 817 q 236 822 248 817 q 215 837 224 827 q 201 859 206 846 q 196 886 196 871 z "},"×":{"ha":609,"x_min":100,"x_max":509,"o":"m 154 572 l 305 420 l 455 569 l 509 515 l 359 366 l 506 220 l 452 166 l 305 313 l 157 163 l 103 218 l 252 366 l 100 518 l 154 572 z "},"Ø":{"ha":741,"x_min":48,"x_max":680,"o":"m 612 776 l 560 680 q 647 556 614 632 q 680 376 680 480 q 652 212 680 284 q 581 90 625 140 q 478 14 536 40 q 360 -13 421 -13 q 282 -2 320 -13 q 210 29 244 8 l 174 -38 l 98 -38 l 157 71 q 78 193 108 119 q 48 366 48 267 q 75 529 48 456 q 148 651 102 601 q 251 727 193 701 q 370 753 309 753 q 507 718 442 753 l 538 776 l 612 776 m 581 363 q 564 496 581 438 q 513 593 546 555 l 254 111 q 366 76 300 76 q 452 95 412 76 q 520 152 491 115 q 565 242 549 189 q 581 363 581 295 m 147 378 q 162 254 147 309 q 205 159 177 199 l 463 637 q 417 657 441 650 q 366 664 393 664 q 277 644 317 664 q 208 587 237 624 q 163 497 179 549 q 147 378 147 444 z "},"Ù":{"ha":730,"x_min":81,"x_max":637,"o":"m 637 741 q 630 654 631 710 q 629 520 629 599 l 629 261 q 612 149 629 199 q 563 62 596 98 q 479 7 530 26 q 360 -13 429 -13 q 240 7 291 -13 q 155 62 189 26 q 105 149 121 98 q 89 261 89 199 l 89 520 q 87 653 89 595 q 81 741 86 710 l 186 741 l 186 284 q 194 194 186 234 q 223 126 203 155 q 276 83 243 98 q 360 68 310 68 q 442 83 409 68 q 495 126 475 98 q 524 194 515 155 q 532 284 532 234 l 532 741 l 637 741 m 294 1015 l 472 797 l 391 797 l 178 1015 l 294 1015 z "},"Ú":{"ha":730,"x_min":81,"x_max":637,"o":"m 637 741 q 630 654 631 710 q 629 520 629 599 l 629 261 q 612 149 629 199 q 563 62 596 98 q 479 7 530 26 q 360 -13 429 -13 q 240 7 291 -13 q 155 62 189 26 q 105 149 121 98 q 89 261 89 199 l 89 520 q 87 653 89 595 q 81 741 86 710 l 186 741 l 186 284 q 194 194 186 234 q 223 126 203 155 q 276 83 243 98 q 360 68 310 68 q 442 83 409 68 q 495 126 475 98 q 524 194 515 155 q 532 284 532 234 l 532 741 l 637 741 m 535 1015 l 322 797 l 241 797 l 418 1015 l 535 1015 z "},"Û":{"ha":730,"x_min":81,"x_max":637,"o":"m 637 741 q 630 654 631 710 q 629 520 629 599 l 629 261 q 612 149 629 199 q 563 62 596 98 q 479 7 530 26 q 360 -13 429 -13 q 240 7 291 -13 q 155 62 189 26 q 105 149 121 98 q 89 261 89 199 l 89 520 q 87 653 89 595 q 81 741 86 710 l 186 741 l 186 284 q 194 194 186 234 q 223 126 203 155 q 276 83 243 98 q 360 68 310 68 q 442 83 409 68 q 495 126 475 98 q 524 194 515 155 q 532 284 532 234 l 532 741 l 637 741 m 149 797 l 321 1015 l 408 1015 l 580 797 l 504 797 l 364 939 l 225 797 l 149 797 z "},"Ü":{"ha":730,"x_min":81,"x_max":637,"o":"m 637 741 q 630 654 631 710 q 629 520 629 599 l 629 261 q 612 149 629 199 q 563 62 596 98 q 479 7 530 26 q 360 -13 429 -13 q 240 7 291 -13 q 155 62 189 26 q 105 149 121 98 q 89 261 89 199 l 89 520 q 87 653 89 595 q 81 741 86 710 l 186 741 l 186 284 q 194 194 186 234 q 223 126 203 155 q 276 83 243 98 q 360 68 310 68 q 442 83 409 68 q 495 126 475 98 q 524 194 515 155 q 532 284 532 234 l 532 741 l 637 741 m 399 886 q 418 934 399 914 q 465 954 437 954 q 492 949 479 954 q 512 934 504 943 q 526 912 521 924 q 531 886 531 900 q 526 859 531 871 q 512 837 521 846 q 492 822 504 827 q 465 817 479 817 q 439 822 451 817 q 418 837 427 827 q 405 859 410 846 q 399 886 399 871 m 186 886 q 205 934 186 914 q 252 954 224 954 q 279 949 267 954 q 300 934 291 943 q 314 912 309 924 q 319 886 319 900 q 314 859 319 871 q 300 837 309 846 q 279 822 291 827 q 252 817 267 817 q 226 822 238 817 q 205 837 214 827 q 192 859 197 846 q 186 886 186 871 z "},"Ý":{"ha":669,"x_min":18,"x_max":642,"o":"m 135 741 l 335 406 l 525 741 l 642 741 q 602 682 619 708 q 570 633 585 656 q 542 587 555 610 q 515 541 529 565 l 378 306 l 378 220 q 379 88 378 145 q 385 0 380 31 l 274 0 q 280 88 279 31 q 281 220 281 145 l 281 310 l 147 541 q 119 589 133 566 q 89 637 104 613 q 56 687 74 661 q 18 741 39 712 l 135 741 m 507 1015 l 294 797 l 213 797 l 390 1015 l 507 1015 z "},"Þ":{"ha":607,"x_min":81,"x_max":566,"o":"m 186 149 q 186 90 186 118 q 189 40 187 65 q 193 0 190 15 l 81 0 q 88 88 87 31 q 89 220 89 145 l 89 507 q 89 580 89 545 q 88 646 89 616 q 86 701 87 677 q 81 741 84 726 l 186 741 l 186 608 q 239 608 212 608 q 297 609 267 609 q 408 595 359 609 q 493 553 458 581 q 547 483 528 525 q 566 385 566 441 q 548 284 566 329 q 494 209 529 240 q 409 162 459 178 q 297 145 359 145 q 239 146 269 145 q 186 149 210 147 m 186 228 q 235 224 210 225 q 289 223 260 223 q 377 235 342 223 q 433 269 412 248 q 462 317 454 290 q 470 376 470 345 q 461 434 470 406 q 432 482 452 461 q 377 515 411 503 q 292 528 342 528 q 260 527 274 528 q 233 527 245 527 q 210 526 221 526 q 186 525 199 526 l 186 228 z "},"ß":{"ha":627,"x_min":66,"x_max":600,"o":"m 387 429 q 395 396 387 410 q 418 371 404 382 q 449 352 432 361 q 483 333 466 343 q 523 307 502 321 q 561 272 543 292 q 589 225 578 252 q 600 166 600 199 q 585 91 600 124 q 544 35 570 58 q 482 -1 518 12 q 403 -13 446 -13 q 365 -9 385 -13 q 327 -1 345 -6 q 294 11 309 4 q 269 24 279 18 l 295 116 q 316 98 304 106 q 343 83 329 90 q 373 73 357 77 q 403 68 388 68 q 446 75 426 68 q 480 93 465 81 q 503 122 494 104 q 511 161 511 139 q 504 194 511 178 q 484 222 496 209 q 456 246 472 235 q 422 267 440 257 q 377 292 400 277 q 336 326 355 307 q 307 371 318 345 q 295 429 295 396 q 307 481 295 460 q 337 518 319 503 q 376 545 355 533 q 415 570 397 557 q 445 599 433 583 q 457 641 457 616 q 446 682 457 663 q 416 713 434 700 q 375 733 397 726 q 332 741 353 741 q 278 733 306 741 q 228 707 250 725 q 190 660 205 690 q 175 588 175 631 l 175 0 l 66 0 q 73 48 70 20 q 78 109 76 76 q 81 177 80 141 q 81 250 81 214 l 81 568 q 101 685 81 637 q 153 764 121 733 q 228 808 186 794 q 314 822 269 822 q 416 808 372 822 q 490 769 460 793 q 534 714 519 745 q 549 651 549 684 q 537 585 549 610 q 507 542 525 559 q 468 513 489 524 q 429 490 447 501 q 399 465 411 479 q 387 429 387 452 z "},"à":{"ha":568,"x_min":48,"x_max":520,"o":"m 482 187 q 493 87 482 132 q 520 0 503 43 l 429 0 q 416 33 424 12 q 404 79 409 54 q 309 9 358 31 q 213 -13 260 -13 q 147 -1 177 -13 q 95 30 117 10 q 61 75 73 50 q 48 130 48 101 q 58 188 48 158 q 91 243 67 218 q 153 286 114 268 q 251 310 192 304 q 284 313 264 311 q 325 317 304 315 q 363 320 345 319 q 389 322 380 321 l 389 360 q 356 426 389 406 q 267 446 323 446 q 186 430 226 446 q 101 382 146 414 q 102 405 102 391 q 103 433 102 418 q 104 460 104 447 q 106 482 105 474 q 146 498 125 490 q 188 513 166 507 q 235 524 210 519 q 289 528 260 528 q 368 517 332 528 q 429 487 404 506 q 468 441 454 467 q 482 385 482 416 l 482 187 m 389 251 q 361 249 379 251 q 325 245 344 248 q 287 241 305 243 q 256 238 269 239 q 201 225 224 234 q 165 203 179 216 q 145 175 151 191 q 139 142 139 159 q 163 89 139 107 q 228 71 186 71 q 267 74 248 71 q 305 87 286 77 q 345 116 324 97 q 389 165 366 134 l 389 251 m 209 812 l 387 593 l 305 593 l 92 812 l 209 812 z "},"á":{"ha":568,"x_min":48,"x_max":520,"o":"m 482 187 q 493 87 482 132 q 520 0 503 43 l 429 0 q 416 33 424 12 q 404 79 409 54 q 309 9 358 31 q 213 -13 260 -13 q 147 -1 177 -13 q 95 30 117 10 q 61 75 73 50 q 48 130 48 101 q 58 188 48 158 q 91 243 67 218 q 153 286 114 268 q 251 310 192 304 q 284 313 264 311 q 325 317 304 315 q 363 320 345 319 q 389 322 380 321 l 389 360 q 356 426 389 406 q 267 446 323 446 q 186 430 226 446 q 101 382 146 414 q 102 405 102 391 q 103 433 102 418 q 104 460 104 447 q 106 482 105 474 q 146 498 125 490 q 188 513 166 507 q 235 524 210 519 q 289 528 260 528 q 368 517 332 528 q 429 487 404 506 q 468 441 454 467 q 482 385 482 416 l 482 187 m 389 251 q 361 249 379 251 q 325 245 344 248 q 287 241 305 243 q 256 238 269 239 q 201 225 224 234 q 165 203 179 216 q 145 175 151 191 q 139 142 139 159 q 163 89 139 107 q 228 71 186 71 q 267 74 248 71 q 305 87 286 77 q 345 116 324 97 q 389 165 366 134 l 389 251 m 450 812 l 237 593 l 155 593 l 332 812 l 450 812 z "},"â":{"ha":568,"x_min":48,"x_max":520,"o":"m 482 187 q 493 87 482 132 q 520 0 503 43 l 429 0 q 416 33 424 12 q 404 79 409 54 q 309 9 358 31 q 213 -13 260 -13 q 147 -1 177 -13 q 95 30 117 10 q 61 75 73 50 q 48 130 48 101 q 58 188 48 158 q 91 243 67 218 q 153 286 114 268 q 251 310 192 304 q 284 313 264 311 q 325 317 304 315 q 363 320 345 319 q 389 322 380 321 l 389 360 q 356 426 389 406 q 267 446 323 446 q 186 430 226 446 q 101 382 146 414 q 102 405 102 391 q 103 433 102 418 q 104 460 104 447 q 106 482 105 474 q 146 498 125 490 q 188 513 166 507 q 235 524 210 519 q 289 528 260 528 q 368 517 332 528 q 429 487 404 506 q 468 441 454 467 q 482 385 482 416 l 482 187 m 389 251 q 361 249 379 251 q 325 245 344 248 q 287 241 305 243 q 256 238 269 239 q 201 225 224 234 q 165 203 179 216 q 145 175 151 191 q 139 142 139 159 q 163 89 139 107 q 228 71 186 71 q 267 74 248 71 q 305 87 286 77 q 345 116 324 97 q 389 165 366 134 l 389 251 m 63 593 l 235 812 l 322 812 l 494 593 l 418 593 l 279 735 l 140 593 l 63 593 z "},"ã":{"ha":568,"x_min":48,"x_max":520,"o":"m 482 187 q 493 87 482 132 q 520 0 503 43 l 429 0 q 416 33 424 12 q 404 79 409 54 q 309 9 358 31 q 213 -13 260 -13 q 147 -1 177 -13 q 95 30 117 10 q 61 75 73 50 q 48 130 48 101 q 58 188 48 158 q 91 243 67 218 q 153 286 114 268 q 251 310 192 304 q 284 313 264 311 q 325 317 304 315 q 363 320 345 319 q 389 322 380 321 l 389 360 q 356 426 389 406 q 267 446 323 446 q 186 430 226 446 q 101 382 146 414 q 102 405 102 391 q 103 433 102 418 q 104 460 104 447 q 106 482 105 474 q 146 498 125 490 q 188 513 166 507 q 235 524 210 519 q 289 528 260 528 q 368 517 332 528 q 429 487 404 506 q 468 441 454 467 q 482 385 482 416 l 482 187 m 389 251 q 361 249 379 251 q 325 245 344 248 q 287 241 305 243 q 256 238 269 239 q 201 225 224 234 q 165 203 179 216 q 145 175 151 191 q 139 142 139 159 q 163 89 139 107 q 228 71 186 71 q 267 74 248 71 q 305 87 286 77 q 345 116 324 97 q 389 165 366 134 l 389 251 m 102 612 q 109 657 102 635 q 128 698 115 680 q 158 727 140 716 q 199 739 176 739 q 237 731 214 739 q 283 713 259 723 q 329 695 307 703 q 366 688 351 688 q 394 700 383 688 q 409 730 406 713 l 462 730 q 455 683 462 706 q 435 643 448 661 q 403 614 422 625 q 361 604 385 604 q 323 611 346 604 q 277 629 300 619 q 232 646 253 638 q 198 654 211 654 q 168 642 179 654 q 155 612 157 630 l 102 612 z "},"ä":{"ha":568,"x_min":48,"x_max":520,"o":"m 482 187 q 493 87 482 132 q 520 0 503 43 l 429 0 q 416 33 424 12 q 404 79 409 54 q 309 9 358 31 q 213 -13 260 -13 q 147 -1 177 -13 q 95 30 117 10 q 61 75 73 50 q 48 130 48 101 q 58 188 48 158 q 91 243 67 218 q 153 286 114 268 q 251 310 192 304 q 284 313 264 311 q 325 317 304 315 q 363 320 345 319 q 389 322 380 321 l 389 360 q 356 426 389 406 q 267 446 323 446 q 186 430 226 446 q 101 382 146 414 q 102 405 102 391 q 103 433 102 418 q 104 460 104 447 q 106 482 105 474 q 146 498 125 490 q 188 513 166 507 q 235 524 210 519 q 289 528 260 528 q 368 517 332 528 q 429 487 404 506 q 468 441 454 467 q 482 385 482 416 l 482 187 m 389 251 q 361 249 379 251 q 325 245 344 248 q 287 241 305 243 q 256 238 269 239 q 201 225 224 234 q 165 203 179 216 q 145 175 151 191 q 139 142 139 159 q 163 89 139 107 q 228 71 186 71 q 267 74 248 71 q 305 87 286 77 q 345 116 324 97 q 389 165 366 134 l 389 251 m 314 682 q 333 731 314 711 q 380 751 351 751 q 406 745 394 751 q 427 730 418 740 q 440 709 435 721 q 446 682 446 696 q 440 655 446 668 q 427 633 435 643 q 406 618 418 624 q 380 613 394 613 q 354 618 366 613 q 333 633 342 624 q 319 655 324 643 q 314 682 314 668 m 101 682 q 120 731 101 711 q 167 751 138 751 q 193 745 181 751 q 214 730 205 740 q 228 709 223 721 q 233 682 233 696 q 228 655 233 668 q 214 633 223 643 q 193 618 205 624 q 167 613 181 613 q 141 618 153 613 q 120 633 129 624 q 106 655 111 643 q 101 682 101 668 z "},"å":{"ha":568,"x_min":48,"x_max":520,"o":"m 482 187 q 493 87 482 132 q 520 0 503 43 l 429 0 q 416 33 424 12 q 404 79 409 54 q 309 9 358 31 q 213 -13 260 -13 q 147 -1 177 -13 q 95 30 117 10 q 61 75 73 50 q 48 130 48 101 q 58 188 48 158 q 91 243 67 218 q 153 286 114 268 q 251 310 192 304 q 284 313 264 311 q 325 317 304 315 q 363 320 345 319 q 389 322 380 321 l 389 360 q 356 426 389 406 q 267 446 323 446 q 186 430 226 446 q 101 382 146 414 q 102 405 102 391 q 103 433 102 418 q 104 460 104 447 q 106 482 105 474 q 146 498 125 490 q 188 513 166 507 q 235 524 210 519 q 289 528 260 528 q 368 517 332 528 q 429 487 404 506 q 468 441 454 467 q 482 385 482 416 l 482 187 m 389 251 q 361 249 379 251 q 325 245 344 248 q 287 241 305 243 q 256 238 269 239 q 201 225 224 234 q 165 203 179 216 q 145 175 151 191 q 139 142 139 159 q 163 89 139 107 q 228 71 186 71 q 267 74 248 71 q 305 87 286 77 q 345 116 324 97 q 389 165 366 134 l 389 251 m 326 703 q 311 740 326 726 q 275 753 297 753 q 237 740 252 753 q 223 703 223 726 q 237 666 223 680 q 275 652 252 652 q 311 666 297 652 q 326 703 326 680 m 165 703 q 174 745 165 726 q 197 780 182 765 q 232 803 212 795 q 275 812 252 812 q 317 803 298 812 q 352 780 337 795 q 375 745 366 765 q 383 703 383 726 q 375 660 383 680 q 352 625 366 640 q 317 602 337 610 q 275 593 298 593 q 232 602 252 593 q 197 625 212 610 q 174 660 182 640 q 165 703 165 680 z "},"æ":{"ha":885,"x_min":48,"x_max":835,"o":"m 632 528 q 729 506 691 528 q 790 450 768 484 q 822 373 813 416 q 831 287 831 330 l 831 246 l 471 246 q 486 169 473 201 q 522 114 500 136 q 574 81 545 92 q 639 71 604 71 q 733 82 688 71 q 825 122 778 93 l 835 38 q 783 14 808 24 q 733 -1 758 5 q 682 -10 708 -7 q 626 -13 655 -13 q 509 15 563 -13 q 420 99 454 43 q 410 86 416 93 q 397 74 404 80 q 307 6 353 26 q 213 -13 260 -13 q 147 -1 177 -13 q 95 30 117 10 q 61 75 73 50 q 48 130 48 101 q 58 187 48 158 q 91 240 68 216 q 151 283 113 265 q 246 309 189 302 q 279 312 259 311 q 319 314 299 313 q 357 316 340 315 q 382 317 375 316 l 382 360 q 373 399 382 383 q 346 426 363 416 q 304 441 328 437 q 251 446 279 446 q 214 442 231 446 q 178 430 196 438 q 142 410 161 422 q 101 382 123 398 q 102 405 102 391 q 103 433 102 418 q 104 460 104 447 q 106 482 105 474 q 144 498 126 490 q 181 513 162 507 q 223 524 201 519 q 274 528 245 528 q 372 506 326 528 q 446 439 419 484 q 529 505 481 481 q 632 528 576 528 m 382 246 q 356 245 373 245 q 319 244 338 245 q 281 241 300 243 q 251 238 263 240 q 198 223 219 233 q 164 202 177 214 q 147 175 152 190 q 142 142 142 159 q 165 91 142 112 q 228 71 189 71 q 266 74 248 71 q 304 87 285 77 q 342 116 323 97 q 382 165 361 134 q 391 177 389 171 q 385 211 387 193 q 382 246 382 228 m 624 451 q 529 418 568 451 q 477 317 490 386 l 741 317 q 731 375 741 350 q 706 417 722 400 q 669 443 690 434 q 624 451 648 451 z "},"ç":{"ha":517,"x_min":48,"x_max":470,"o":"m 470 43 q 400 4 435 18 q 317 -12 364 -9 l 317 -59 q 342 -56 325 -56 q 399 -81 376 -56 q 421 -143 421 -105 q 409 -190 421 -169 q 379 -224 397 -210 q 337 -247 360 -239 q 292 -254 314 -254 q 255 -249 272 -254 q 223 -235 239 -243 l 228 -184 q 251 -195 239 -192 q 279 -199 263 -199 q 301 -196 290 -199 q 323 -188 313 -193 q 340 -172 333 -182 q 347 -148 347 -162 q 333 -115 347 -128 q 298 -102 319 -102 q 274 -106 286 -102 q 254 -115 262 -110 l 254 -9 q 172 17 210 -3 q 107 71 135 38 q 64 149 79 104 q 48 248 48 193 q 67 357 48 306 q 120 446 85 408 q 203 506 154 484 q 312 528 252 528 q 399 516 363 528 q 464 484 436 504 l 446 393 q 377 431 412 418 q 304 444 343 444 q 241 431 270 444 q 191 394 212 418 q 157 334 170 370 q 145 254 145 298 q 156 179 145 213 q 188 121 167 146 q 238 84 208 97 q 304 71 267 71 q 388 86 351 71 q 459 132 426 102 l 470 43 z "},"è":{"ha":555,"x_min":48,"x_max":505,"o":"m 142 246 q 156 169 143 201 q 190 114 168 136 q 240 81 211 92 q 304 71 269 71 q 401 82 353 71 q 495 122 448 93 l 505 38 q 452 14 477 24 q 400 -1 427 5 q 348 -10 374 -7 q 292 -13 321 -13 q 199 4 243 -13 q 121 54 155 21 q 68 137 87 87 q 48 251 48 186 q 65 365 48 314 q 114 452 82 416 q 190 508 145 488 q 292 528 235 528 q 395 506 355 528 q 460 450 436 484 q 493 372 484 415 q 502 286 502 328 l 502 246 l 142 246 m 284 451 q 192 419 228 451 q 146 317 157 387 l 410 317 q 401 375 410 350 q 375 417 391 400 q 335 443 358 434 q 284 451 311 451 m 221 812 l 399 593 l 317 593 l 104 812 l 221 812 z "},"é":{"ha":555,"x_min":48,"x_max":505,"o":"m 142 246 q 156 169 143 201 q 190 114 168 136 q 240 81 211 92 q 304 71 269 71 q 401 82 353 71 q 495 122 448 93 l 505 38 q 452 14 477 24 q 400 -1 427 5 q 348 -10 374 -7 q 292 -13 321 -13 q 199 4 243 -13 q 121 54 155 21 q 68 137 87 87 q 48 251 48 186 q 65 365 48 314 q 114 452 82 416 q 190 508 145 488 q 292 528 235 528 q 395 506 355 528 q 460 450 436 484 q 493 372 484 415 q 502 286 502 328 l 502 246 l 142 246 m 284 451 q 192 419 228 451 q 146 317 157 387 l 410 317 q 401 375 410 350 q 375 417 391 400 q 335 443 358 434 q 284 451 311 451 m 462 812 l 249 593 l 168 593 l 345 812 l 462 812 z "},"ê":{"ha":555,"x_min":48,"x_max":507,"o":"m 142 246 q 156 169 143 201 q 190 114 168 136 q 240 81 211 92 q 304 71 269 71 q 401 82 353 71 q 495 122 448 93 l 505 38 q 452 14 477 24 q 400 -1 427 5 q 348 -10 374 -7 q 292 -13 321 -13 q 199 4 243 -13 q 121 54 155 21 q 68 137 87 87 q 48 251 48 186 q 65 365 48 314 q 114 452 82 416 q 190 508 145 488 q 292 528 235 528 q 395 506 355 528 q 460 450 436 484 q 493 372 484 415 q 502 286 502 328 l 502 246 l 142 246 m 284 451 q 192 419 228 451 q 146 317 157 387 l 410 317 q 401 375 410 350 q 375 417 391 400 q 335 443 358 434 q 284 451 311 451 m 75 593 l 248 812 l 334 812 l 507 593 l 431 593 l 291 735 l 152 593 l 75 593 z "},"ë":{"ha":555,"x_min":48,"x_max":505,"o":"m 142 246 q 156 169 143 201 q 190 114 168 136 q 240 81 211 92 q 304 71 269 71 q 401 82 353 71 q 495 122 448 93 l 505 38 q 452 14 477 24 q 400 -1 427 5 q 348 -10 374 -7 q 292 -13 321 -13 q 199 4 243 -13 q 121 54 155 21 q 68 137 87 87 q 48 251 48 186 q 65 365 48 314 q 114 452 82 416 q 190 508 145 488 q 292 528 235 528 q 395 506 355 528 q 460 450 436 484 q 493 372 484 415 q 502 286 502 328 l 502 246 l 142 246 m 284 451 q 192 419 228 451 q 146 317 157 387 l 410 317 q 401 375 410 350 q 375 417 391 400 q 335 443 358 434 q 284 451 311 451 m 326 682 q 345 731 326 711 q 392 751 363 751 q 418 745 406 751 q 439 730 431 740 q 453 709 448 721 q 458 682 458 696 q 453 655 458 668 q 439 633 448 643 q 418 618 431 624 q 392 613 406 613 q 366 618 378 613 q 345 633 354 624 q 331 655 336 643 q 326 682 326 668 m 113 682 q 132 731 113 711 q 179 751 151 751 q 205 745 193 751 q 227 730 218 740 q 240 709 235 721 q 245 682 245 696 q 240 655 245 668 q 227 633 235 643 q 205 618 218 624 q 179 613 193 613 q 153 618 165 613 q 132 633 141 624 q 118 655 123 643 q 113 682 113 668 z "},"ì":{"ha":287,"x_min":-45,"x_max":250,"o":"m 190 241 q 191 183 190 216 q 193 116 191 150 q 196 51 194 82 q 200 0 197 20 l 96 0 l 96 269 q 96 342 96 306 q 95 410 96 378 q 93 470 94 442 q 89 517 92 497 l 190 517 l 190 241 m 72 812 l 250 593 l 168 593 l -45 812 l 72 812 z "},"í":{"ha":287,"x_min":18,"x_max":313,"o":"m 190 241 q 191 183 190 216 q 193 116 191 150 q 196 51 194 82 q 200 0 197 20 l 96 0 l 96 269 q 96 342 96 306 q 95 410 96 378 q 93 470 94 442 q 89 517 92 497 l 190 517 l 190 241 m 313 812 l 100 593 l 18 593 l 195 812 l 313 812 z "},"î":{"ha":287,"x_min":-74,"x_max":357,"o":"m 190 241 q 191 183 190 216 q 193 116 191 150 q 196 51 194 82 q 200 0 197 20 l 96 0 l 96 269 q 96 342 96 306 q 95 410 96 378 q 93 470 94 442 q 89 517 92 497 l 190 517 l 190 241 m -74 593 l 98 812 l 185 812 l 357 593 l 281 593 l 142 735 l 3 593 l -74 593 z "},"ï":{"ha":287,"x_min":-36,"x_max":309,"o":"m 190 241 q 191 183 190 216 q 193 116 191 150 q 196 51 194 82 q 200 0 197 20 l 96 0 l 96 269 q 96 342 96 306 q 95 410 96 378 q 93 470 94 442 q 89 517 92 497 l 190 517 l 190 241 m 177 682 q 196 731 177 711 q 243 751 214 751 q 269 745 257 751 q 290 730 281 740 q 303 709 298 721 q 309 682 309 696 q 303 655 309 668 q 290 633 298 643 q 269 618 281 624 q 243 613 257 613 q 217 618 229 613 q 196 633 205 624 q 182 655 187 643 q 177 682 177 668 m -36 682 q -17 731 -36 711 q 30 751 1 751 q 56 745 44 751 q 77 730 68 740 q 91 709 86 721 q 96 682 96 696 q 91 655 96 668 q 77 633 86 643 q 56 618 68 624 q 30 613 44 613 q 4 618 16 613 q -17 633 -8 624 q -31 655 -26 643 q -36 682 -36 668 z "},"ð":{"ha":588,"x_min":48,"x_max":532,"o":"m 395 685 q 450 602 425 646 q 493 509 475 557 q 522 410 511 460 q 532 307 532 359 q 515 167 532 227 q 467 67 498 107 q 389 7 435 27 q 284 -13 342 -13 q 189 4 232 -13 q 114 54 145 21 q 65 135 83 87 q 48 247 48 184 q 68 357 48 309 q 120 438 88 405 q 190 490 151 472 q 267 507 229 507 q 320 503 297 507 q 362 490 344 498 q 398 469 381 481 q 432 441 414 457 q 388 543 416 492 q 323 640 360 595 l 205 567 l 163 622 l 277 692 q 161 777 220 749 l 250 822 q 351 739 302 790 l 462 807 l 505 753 l 395 685 m 142 247 q 153 172 142 205 q 183 115 163 138 q 229 80 202 92 q 289 68 256 68 q 351 81 323 68 q 397 117 378 94 q 426 173 416 140 q 436 247 436 206 q 425 323 436 290 q 395 379 414 356 q 349 414 376 402 q 289 426 321 426 q 227 413 254 426 q 181 377 200 400 q 152 320 162 353 q 142 247 142 288 z "},"ñ":{"ha":601,"x_min":54,"x_max":532,"o":"m 439 0 l 439 279 q 433 357 439 326 q 414 406 427 388 q 382 432 401 425 q 338 439 363 439 q 284 426 310 439 q 236 392 258 413 q 198 346 214 372 q 173 294 181 320 l 173 0 l 79 0 l 79 312 q 70 439 79 387 q 54 517 62 492 l 145 517 q 151 496 148 509 q 156 469 153 484 q 161 441 159 455 q 165 418 163 428 q 262 502 214 477 q 366 528 311 528 q 490 475 447 528 q 532 317 532 422 l 532 0 l 439 0 m 127 612 q 134 657 127 635 q 153 698 140 680 q 183 727 165 716 q 224 739 201 739 q 262 731 239 739 q 308 713 284 723 q 354 695 332 703 q 391 688 376 688 q 419 700 408 688 q 434 730 431 713 l 487 730 q 480 683 487 706 q 460 643 473 661 q 428 614 447 625 q 387 604 410 604 q 348 611 371 604 q 302 629 326 619 q 257 646 278 638 q 223 654 236 654 q 193 642 204 654 q 180 612 182 630 l 127 612 z "},"ò":{"ha":578,"x_min":48,"x_max":530,"o":"m 48 256 q 68 373 48 322 q 121 458 87 423 q 199 510 155 492 q 294 528 244 528 q 390 510 347 528 q 465 458 433 492 q 513 373 496 423 q 530 256 530 322 q 511 141 530 191 q 457 56 491 90 q 379 5 424 22 q 284 -13 334 -13 q 189 5 232 -13 q 114 56 145 22 q 65 141 83 90 q 48 256 48 191 m 142 256 q 153 177 142 212 q 183 118 163 142 q 229 81 202 94 q 289 68 256 68 q 346 81 319 68 q 393 118 373 94 q 425 177 413 142 q 436 256 436 212 q 425 336 436 301 q 395 396 414 372 q 349 433 376 420 q 289 446 321 446 q 231 433 258 446 q 184 396 204 420 q 153 336 165 372 q 142 256 142 301 m 226 812 l 404 593 l 322 593 l 109 812 l 226 812 z "},"ó":{"ha":578,"x_min":48,"x_max":530,"o":"m 48 256 q 68 373 48 322 q 121 458 87 423 q 199 510 155 492 q 294 528 244 528 q 390 510 347 528 q 465 458 433 492 q 513 373 496 423 q 530 256 530 322 q 511 141 530 191 q 457 56 491 90 q 379 5 424 22 q 284 -13 334 -13 q 189 5 232 -13 q 114 56 145 22 q 65 141 83 90 q 48 256 48 191 m 142 256 q 153 177 142 212 q 183 118 163 142 q 229 81 202 94 q 289 68 256 68 q 346 81 319 68 q 393 118 373 94 q 425 177 413 142 q 436 256 436 212 q 425 336 436 301 q 395 396 414 372 q 349 433 376 420 q 289 446 321 446 q 231 433 258 446 q 184 396 204 420 q 153 336 165 372 q 142 256 142 301 m 467 812 l 254 593 l 172 593 l 349 812 l 467 812 z "},"ô":{"ha":578,"x_min":48,"x_max":530,"o":"m 48 256 q 68 373 48 322 q 121 458 87 423 q 199 510 155 492 q 294 528 244 528 q 390 510 347 528 q 465 458 433 492 q 513 373 496 423 q 530 256 530 322 q 511 141 530 191 q 457 56 491 90 q 379 5 424 22 q 284 -13 334 -13 q 189 5 232 -13 q 114 56 145 22 q 65 141 83 90 q 48 256 48 191 m 142 256 q 153 177 142 212 q 183 118 163 142 q 229 81 202 94 q 289 68 256 68 q 346 81 319 68 q 393 118 373 94 q 425 177 413 142 q 436 256 436 212 q 425 336 436 301 q 395 396 414 372 q 349 433 376 420 q 289 446 321 446 q 231 433 258 446 q 184 396 204 420 q 153 336 165 372 q 142 256 142 301 m 80 593 l 252 812 l 339 812 l 511 593 l 435 593 l 296 735 l 157 593 l 80 593 z "},"õ":{"ha":578,"x_min":48,"x_max":530,"o":"m 48 256 q 68 373 48 322 q 121 458 87 423 q 199 510 155 492 q 294 528 244 528 q 390 510 347 528 q 465 458 433 492 q 513 373 496 423 q 530 256 530 322 q 511 141 530 191 q 457 56 491 90 q 379 5 424 22 q 284 -13 334 -13 q 189 5 232 -13 q 114 56 145 22 q 65 141 83 90 q 48 256 48 191 m 142 256 q 153 177 142 212 q 183 118 163 142 q 229 81 202 94 q 289 68 256 68 q 346 81 319 68 q 393 118 373 94 q 425 177 413 142 q 436 256 436 212 q 425 336 436 301 q 395 396 414 372 q 349 433 376 420 q 289 446 321 446 q 231 433 258 446 q 184 396 204 420 q 153 336 165 372 q 142 256 142 301 m 119 612 q 125 657 119 635 q 145 698 132 680 q 175 727 157 716 q 216 739 193 739 q 254 731 231 739 q 300 713 276 723 q 346 695 323 703 q 382 688 368 688 q 411 700 400 688 q 426 730 422 713 l 479 730 q 472 683 479 706 q 452 643 465 661 q 420 614 439 625 q 378 604 401 604 q 340 611 363 604 q 294 629 317 619 q 249 646 270 638 q 215 654 228 654 q 185 642 196 654 q 172 612 174 630 l 119 612 z "},"ö":{"ha":578,"x_min":48,"x_max":530,"o":"m 48 256 q 68 373 48 322 q 121 458 87 423 q 199 510 155 492 q 294 528 244 528 q 390 510 347 528 q 465 458 433 492 q 513 373 496 423 q 530 256 530 322 q 511 141 530 191 q 457 56 491 90 q 379 5 424 22 q 284 -13 334 -13 q 189 5 232 -13 q 114 56 145 22 q 65 141 83 90 q 48 256 48 191 m 142 256 q 153 177 142 212 q 183 118 163 142 q 229 81 202 94 q 289 68 256 68 q 346 81 319 68 q 393 118 373 94 q 425 177 413 142 q 436 256 436 212 q 425 336 436 301 q 395 396 414 372 q 349 433 376 420 q 289 446 321 446 q 231 433 258 446 q 184 396 204 420 q 153 336 165 372 q 142 256 142 301 m 331 682 q 350 731 331 711 q 397 751 368 751 q 423 745 411 751 q 444 730 435 740 q 457 709 452 721 q 463 682 463 696 q 457 655 463 668 q 444 633 452 643 q 423 618 435 624 q 397 613 411 613 q 371 618 382 613 q 350 633 359 624 q 336 655 341 643 q 331 682 331 668 m 118 682 q 137 731 118 711 q 184 751 155 751 q 210 745 198 751 q 231 730 222 740 q 245 709 240 721 q 250 682 250 696 q 245 655 250 668 q 231 633 240 643 q 210 618 222 624 q 184 613 198 613 q 158 618 170 613 q 137 633 146 624 q 123 655 128 643 q 118 682 118 668 z "},"÷":{"ha":609,"x_min":79,"x_max":530,"o":"m 232 206 q 238 233 232 220 q 254 256 243 246 q 277 271 264 266 q 304 277 290 277 q 331 271 318 277 q 354 256 344 266 q 369 233 363 246 q 374 206 374 220 q 369 179 374 192 q 354 156 363 165 q 331 141 344 146 q 304 135 318 135 q 277 141 290 135 q 254 156 264 146 q 238 179 243 165 q 232 206 232 192 m 232 530 q 238 557 232 545 q 254 580 243 570 q 277 595 264 589 q 304 600 290 600 q 331 595 318 600 q 354 580 344 589 q 369 557 363 570 q 374 530 374 545 q 369 503 374 516 q 354 480 363 490 q 331 465 344 471 q 304 459 318 459 q 277 465 290 459 q 254 480 264 471 q 238 503 243 490 q 232 530 232 516 m 79 406 l 530 406 l 530 329 l 79 329 l 79 406 z "},"ø":{"ha":578,"x_min":48,"x_max":530,"o":"m 481 560 l 439 481 q 506 391 481 447 q 530 257 530 335 q 511 141 530 192 q 457 57 491 91 q 379 5 424 22 q 284 -13 334 -13 q 183 7 229 -13 l 159 -38 l 83 -38 l 127 43 q 69 131 90 78 q 48 257 48 184 q 68 373 48 322 q 121 458 87 423 q 199 510 155 492 q 294 528 244 528 q 339 524 318 528 q 380 513 361 520 l 406 560 l 481 560 m 436 257 q 425 338 436 302 q 394 397 414 373 l 224 83 q 289 68 252 68 q 346 81 319 68 q 393 118 373 94 q 425 177 413 142 q 436 257 436 212 m 142 257 q 150 185 142 217 q 174 130 159 153 l 340 437 q 289 446 315 446 q 231 433 258 446 q 184 396 204 420 q 153 337 165 372 q 142 257 142 302 z "},"ù":{"ha":601,"x_min":68,"x_max":553,"o":"m 467 0 q 451 45 459 18 q 439 101 443 73 q 343 16 393 45 q 241 -13 294 -13 q 79 205 79 -13 l 79 355 q 78 399 79 379 q 77 437 78 418 q 74 476 76 456 q 68 517 72 495 l 173 517 l 173 236 q 177 161 173 193 q 192 110 182 130 q 218 80 201 90 q 258 71 234 71 q 306 84 281 71 q 355 118 332 98 q 397 164 378 139 q 426 213 416 189 l 426 355 q 426 400 426 380 q 424 438 425 420 q 421 475 423 456 q 416 517 419 494 l 520 517 l 520 228 q 529 98 520 154 q 553 0 537 43 l 467 0 m 230 812 l 408 593 l 326 593 l 113 812 l 230 812 z "},"ú":{"ha":601,"x_min":68,"x_max":553,"o":"m 467 0 q 451 45 459 18 q 439 101 443 73 q 343 16 393 45 q 241 -13 294 -13 q 79 205 79 -13 l 79 355 q 78 399 79 379 q 77 437 78 418 q 74 476 76 456 q 68 517 72 495 l 173 517 l 173 236 q 177 161 173 193 q 192 110 182 130 q 218 80 201 90 q 258 71 234 71 q 306 84 281 71 q 355 118 332 98 q 397 164 378 139 q 426 213 416 189 l 426 355 q 426 400 426 380 q 424 438 425 420 q 421 475 423 456 q 416 517 419 494 l 520 517 l 520 228 q 529 98 520 154 q 553 0 537 43 l 467 0 m 471 812 l 258 593 l 176 593 l 353 812 l 471 812 z "},"û":{"ha":601,"x_min":68,"x_max":553,"o":"m 467 0 q 451 45 459 18 q 439 101 443 73 q 343 16 393 45 q 241 -13 294 -13 q 79 205 79 -13 l 79 355 q 78 399 79 379 q 77 437 78 418 q 74 476 76 456 q 68 517 72 495 l 173 517 l 173 236 q 177 161 173 193 q 192 110 182 130 q 218 80 201 90 q 258 71 234 71 q 306 84 281 71 q 355 118 332 98 q 397 164 378 139 q 426 213 416 189 l 426 355 q 426 400 426 380 q 424 438 425 420 q 421 475 423 456 q 416 517 419 494 l 520 517 l 520 228 q 529 98 520 154 q 553 0 537 43 l 467 0 m 84 593 l 256 812 l 343 812 l 515 593 l 439 593 l 300 735 l 161 593 l 84 593 z "},"ü":{"ha":601,"x_min":68,"x_max":553,"o":"m 467 0 q 451 45 459 18 q 439 101 443 73 q 343 16 393 45 q 241 -13 294 -13 q 79 205 79 -13 l 79 355 q 78 399 79 379 q 77 437 78 418 q 74 476 76 456 q 68 517 72 495 l 173 517 l 173 236 q 177 161 173 193 q 192 110 182 130 q 218 80 201 90 q 258 71 234 71 q 306 84 281 71 q 355 118 332 98 q 397 164 378 139 q 426 213 416 189 l 426 355 q 426 400 426 380 q 424 438 425 420 q 421 475 423 456 q 416 517 419 494 l 520 517 l 520 228 q 529 98 520 154 q 553 0 537 43 l 467 0 m 335 682 q 354 731 335 711 q 401 751 372 751 q 427 745 415 751 q 448 730 439 740 q 461 709 456 721 q 467 682 467 696 q 461 655 467 668 q 448 633 456 643 q 427 618 439 624 q 401 613 415 613 q 375 618 387 613 q 354 633 363 624 q 340 655 345 643 q 335 682 335 668 m 122 682 q 141 731 122 711 q 188 751 159 751 q 214 745 202 751 q 235 730 227 740 q 249 709 244 721 q 254 682 254 696 q 249 655 254 668 q 235 633 244 643 q 214 618 227 624 q 188 613 202 613 q 162 618 174 613 q 141 633 150 624 q 127 655 132 643 q 122 682 122 668 z "},"ý":{"ha":538,"x_min":-10,"x_max":528,"o":"m 332 0 q 280 -119 306 -73 q 229 -192 255 -165 q 175 -229 203 -218 q 114 -239 146 -239 q 49 -227 79 -239 q -10 -195 18 -216 l 20 -114 q 39 -127 28 -121 q 63 -140 50 -134 q 89 -149 75 -145 q 114 -152 102 -152 q 144 -147 130 -152 q 174 -126 159 -142 q 205 -84 189 -111 q 238 -14 220 -58 l 96 338 q 64 415 83 372 q 15 517 45 458 l 117 517 l 281 102 q 302 162 290 130 q 325 229 313 195 q 349 298 337 263 q 372 365 361 333 q 426 517 399 440 l 528 517 q 484 415 501 458 q 454 338 467 372 l 332 0 m 457 812 l 244 593 l 163 593 l 340 812 l 457 812 z "},"þ":{"ha":593,"x_min":68,"x_max":545,"o":"m 173 812 l 173 431 q 207 468 188 450 q 249 498 226 485 q 298 519 272 511 q 353 528 324 528 q 432 508 396 528 q 492 455 467 489 q 531 374 517 421 q 545 271 545 327 q 527 154 545 206 q 478 64 509 101 q 404 7 446 27 q 315 -13 362 -13 q 241 2 274 -13 q 173 43 208 18 l 173 -77 q 174 -132 173 -107 q 176 -177 174 -157 q 180 -215 177 -197 q 186 -249 182 -233 l 79 -249 l 79 573 q 76 708 79 648 q 68 812 74 768 l 173 812 m 173 132 q 218 102 199 114 q 252 83 237 90 q 282 73 268 76 q 315 71 297 71 q 366 83 342 71 q 410 120 391 96 q 440 179 429 144 q 451 256 451 213 q 443 333 451 298 q 420 391 435 367 q 384 428 406 415 q 335 441 362 441 q 290 432 313 441 q 246 404 267 422 q 205 356 224 385 q 173 292 186 328 l 173 132 z "},"ÿ":{"ha":538,"x_min":-10,"x_max":528,"o":"m 332 0 q 280 -119 306 -73 q 229 -192 255 -165 q 175 -229 203 -218 q 114 -239 146 -239 q 49 -227 79 -239 q -10 -195 18 -216 l 20 -114 q 39 -127 28 -121 q 63 -140 50 -134 q 89 -149 75 -145 q 114 -152 102 -152 q 144 -147 130 -152 q 174 -126 159 -142 q 205 -84 189 -111 q 238 -14 220 -58 l 96 338 q 64 415 83 372 q 15 517 45 458 l 117 517 l 281 102 q 302 162 290 130 q 325 229 313 195 q 349 298 337 263 q 372 365 361 333 q 426 517 399 440 l 528 517 q 484 415 501 458 q 454 338 467 372 l 332 0 m 321 682 q 340 731 321 711 q 387 751 359 751 q 414 745 401 751 q 434 730 426 740 q 448 709 443 721 q 453 682 453 696 q 448 655 453 668 q 434 633 443 643 q 414 618 426 624 q 387 613 401 613 q 361 618 373 613 q 340 633 349 624 q 327 655 332 643 q 321 682 321 668 m 109 682 q 127 731 109 711 q 174 751 146 751 q 201 745 189 751 q 222 730 213 740 q 236 709 231 721 q 241 682 241 696 q 236 655 241 668 q 222 633 231 643 q 201 618 213 624 q 174 613 189 613 q 148 618 160 613 q 127 633 136 624 q 114 655 119 643 q 109 682 109 668 z "},"ı":{"ha":287,"x_min":89,"x_max":200,"o":"m 190 241 q 191 183 190 216 q 193 116 191 150 q 196 51 194 82 q 200 0 197 20 l 96 0 l 96 269 q 96 342 96 306 q 95 410 96 378 q 93 470 94 442 q 89 517 92 497 l 190 517 l 190 241 z "}," ":{"ha":669,"x_min":0,"x_max":0,"o":""}," ":{"ha":1339,"x_min":0,"x_max":0,"o":""}," ":{"ha":669,"x_min":0,"x_max":0,"o":""}," ":{"ha":1339,"x_min":0,"x_max":0,"o":""}," ":{"ha":446,"x_min":0,"x_max":0,"o":""}," ":{"ha":335,"x_min":0,"x_max":0,"o":""}," ":{"ha":223,"x_min":0,"x_max":0,"o":""}," ":{"ha":669,"x_min":0,"x_max":0,"o":""}," ":{"ha":342,"x_min":0,"x_max":0,"o":""}," ":{"ha":223,"x_min":0,"x_max":0,"o":""}," ":{"ha":112,"x_min":0,"x_max":0,"o":""},"​":{"ha":0,"x_min":0,"x_max":0,"o":""},"‌":{"ha":0,"x_min":-150,"x_max":150,"o":"m 150 703 l 111 664 l 29 746 l 29 -283 l -29 -283 l -29 746 l -111 664 l -150 703 l -39 812 l -150 924 l -111 962 l 0 852 l 111 962 l 150 924 l 39 812 l 150 703 z "},"‍":{"ha":0,"x_min":-28,"x_max":28,"o":"m 28 -283 l -28 -283 l -28 920 l 28 920 l 28 -283 z "},"‎":{"ha":0,"x_min":-28,"x_max":278,"o":"m 278 812 l 127 664 l 87 703 l 171 785 l 28 785 l 28 -283 l -28 -283 l -28 840 l 171 840 l 87 924 l 127 962 l 278 812 z "},"‏":{"ha":0,"x_min":-278,"x_max":28,"o":"m 28 -283 l -28 -283 l -28 785 l -171 785 l -87 703 l -127 664 l -278 812 l -127 962 l -87 924 l -171 840 l 28 840 l 28 -283 z "},"‐":{"ha":637,"x_min":43,"x_max":594,"o":"m 594 330 l 43 330 l 43 391 l 594 391 l 594 330 z "},"‑":{"ha":637,"x_min":43,"x_max":594,"o":"m 594 330 l 43 330 l 43 391 l 594 391 l 594 330 z "},"‒":{"ha":669,"x_min":0,"x_max":669,"o":"m 669 330 l 0 330 l 0 391 l 669 391 l 669 330 z "},"―":{"ha":1133,"x_min":62,"x_max":1072,"o":"m 1072 314 l 62 314 l 62 402 l 1072 402 l 1072 314 z "},"‧":{"ha":309,"x_min":78,"x_max":231,"o":"m 231 412 q 224 382 231 396 q 208 358 218 369 q 183 341 197 347 q 155 335 170 335 q 125 341 139 335 q 101 358 112 347 q 84 382 90 369 q 78 412 78 396 q 84 440 78 427 q 101 465 90 454 q 125 481 112 475 q 155 488 139 488 q 183 481 170 488 q 208 465 197 475 q 224 440 218 454 q 231 412 231 427 z "}," ":{"ha":0,"x_min":0,"x_max":0,"o":""}," ":{"ha":0,"x_min":0,"x_max":0,"o":""},"‪":{"ha":0,"x_min":-37,"x_max":151,"o":"m 59 -145 l 59 -81 l -37 -81 l -37 642 l 1 642 l 1 -43 l 59 -43 l 59 21 l 151 -62 l 59 -145 z "},"‫":{"ha":0,"x_min":-151,"x_max":37,"o":"m -59 -81 l -59 -145 l -151 -62 l -59 21 l -59 -43 l -1 -43 l -1 642 l 37 642 l 37 -81 l -59 -81 z "},"‬":{"ha":0,"x_min":-83,"x_max":83,"o":"m 19 640 l 19 -43 l 75 -43 l 75 -81 l -75 -81 l -75 -43 l -19 -43 l -19 640 l -83 640 l 0 732 l 83 640 l 19 640 z "},"‭":{"ha":0,"x_min":-131,"x_max":151,"o":"m 59 911 l 59 975 l -131 975 l -131 1011 l 59 1011 l 59 1075 l 151 994 l 59 911 m 31 838 q 22 816 31 825 q 0 807 13 807 q -22 816 -13 807 q -31 838 -31 825 q -22 859 -31 850 q 0 868 -13 868 q 22 859 13 868 q 31 838 31 850 m 31 703 q 22 682 31 690 q 0 673 13 673 q -22 682 -13 673 q -31 703 -31 690 q -22 723 -31 715 q 0 732 -13 732 q 22 723 13 732 q 31 703 31 715 m 31 569 q 22 547 31 555 q 0 538 13 538 q -22 547 -13 538 q -31 569 -31 555 q -22 589 -31 581 q 0 597 -13 597 q 22 589 13 597 q 31 569 31 581 m 31 433 q 22 413 31 421 q 0 405 13 405 q -22 413 -13 405 q -31 433 -31 421 q -22 455 -31 446 q 0 463 -13 463 q 22 455 13 463 q 31 433 31 446 m 31 299 q 22 278 31 287 q 0 269 13 269 q -22 278 -13 269 q -31 299 -31 287 q -22 320 -31 311 q 0 329 -13 329 q 22 320 13 329 q 31 299 31 311 m 31 164 q 22 143 31 152 q 0 135 13 135 q -22 143 -13 135 q -31 164 -31 152 q -22 184 -31 176 q 0 193 -13 193 q 22 184 13 193 q 31 164 31 176 m 31 31 q 22 8 31 17 q 0 0 13 0 q -22 8 -13 0 q -31 31 -31 17 q -22 50 -31 42 q 0 58 -13 58 q 22 50 13 58 q 31 31 31 42 z "},"‮":{"ha":0,"x_min":-151,"x_max":131,"o":"m -59 975 l -59 911 l -151 994 l -59 1075 l -59 1011 l 131 1011 l 131 975 l -59 975 m 31 838 q 22 816 31 825 q 0 807 13 807 q -22 816 -13 807 q -31 838 -31 825 q -22 859 -31 850 q 0 868 -13 868 q 22 859 13 868 q 31 838 31 850 m 31 703 q 22 682 31 690 q 0 673 13 673 q -22 682 -13 673 q -31 703 -31 690 q -22 723 -31 715 q 0 732 -13 732 q 22 723 13 732 q 31 703 31 715 m 31 569 q 22 547 31 555 q 0 538 13 538 q -22 547 -13 538 q -31 569 -31 555 q -22 589 -31 581 q 0 597 -13 597 q 22 589 13 597 q 31 569 31 581 m 31 433 q 22 413 31 421 q 0 405 13 405 q -22 413 -13 405 q -31 433 -31 421 q -22 455 -31 446 q 0 463 -13 463 q 22 455 13 463 q 31 433 31 446 m 31 299 q 22 278 31 287 q 0 269 13 269 q -22 278 -13 269 q -31 299 -31 287 q -22 320 -31 311 q 0 329 -13 329 q 22 320 13 329 q 31 299 31 311 m 31 164 q 22 143 31 152 q 0 135 13 135 q -22 143 -13 135 q -31 164 -31 152 q -22 184 -31 176 q 0 193 -13 193 q 22 184 13 193 q 31 164 31 176 m 31 31 q 22 8 31 17 q 0 0 13 0 q -22 8 -13 0 q -31 31 -31 17 q -22 50 -31 42 q 0 58 -13 58 q 22 50 13 58 q 31 31 31 42 z "}," ":{"ha":223,"x_min":0,"x_max":0,"o":""},"⁠":{"ha":0,"x_min":0,"x_max":0,"o":""},"⁬":{"ha":694,"x_min":21,"x_max":673,"o":"m 673 632 q 667 616 673 623 q 653 610 661 610 q 637 616 644 610 q 631 632 631 623 q 637 648 631 642 q 653 654 644 654 q 667 648 661 654 q 673 632 673 642 m 572 632 q 566 616 572 623 q 550 610 559 610 q 535 616 542 610 q 529 632 529 623 q 535 648 529 642 q 550 654 542 654 q 566 648 559 654 q 572 632 572 642 m 673 530 q 667 515 673 521 q 653 509 661 509 q 637 515 644 509 q 631 530 631 521 q 637 545 631 539 q 653 551 644 551 q 667 545 661 551 q 673 530 673 539 m 471 632 q 465 616 471 623 q 449 610 458 610 q 434 616 440 610 q 428 632 428 623 q 434 648 428 642 q 449 654 440 654 q 465 648 458 654 q 471 632 471 642 m 673 429 q 667 413 673 420 q 653 407 661 407 q 637 413 644 407 q 631 429 631 420 q 637 444 631 437 q 653 450 644 450 q 667 444 661 450 q 673 429 673 437 m 370 632 q 363 616 370 623 q 347 610 357 610 q 331 616 338 610 q 325 632 325 623 q 331 648 325 642 q 347 654 338 654 q 363 648 357 654 q 370 632 370 642 m 673 326 q 667 312 673 318 q 653 306 661 306 q 637 312 644 306 q 631 326 631 318 q 637 342 631 336 q 653 349 644 349 q 667 342 661 349 q 673 326 673 336 m 267 632 q 260 616 267 623 q 245 610 254 610 q 230 616 236 610 q 224 632 224 623 q 230 648 224 642 q 245 654 236 654 q 260 648 254 654 q 267 632 267 642 m 673 225 q 667 210 673 216 q 653 203 661 203 q 637 210 644 203 q 631 225 631 216 q 637 241 631 235 q 653 248 644 248 q 667 241 661 248 q 673 225 673 235 m 313 349 q 305 356 305 349 q 313 363 305 363 l 340 363 l 340 554 l 313 554 q 305 562 305 554 q 313 568 305 568 l 382 568 q 389 562 389 568 q 382 554 389 554 l 354 554 l 354 363 l 382 363 q 389 356 389 363 q 382 349 389 349 l 313 349 m 673 123 q 667 108 673 114 q 653 102 661 102 q 637 108 644 102 q 631 123 631 114 q 637 138 631 132 q 653 144 644 144 q 667 138 661 144 q 673 123 673 132 m 165 632 q 159 616 165 623 q 144 610 153 610 q 129 616 135 610 q 122 632 122 623 q 129 648 122 642 q 144 654 135 654 q 159 648 153 654 q 165 632 165 642 m 578 94 q 575 90 578 92 q 571 87 573 87 l 461 87 q 455 95 455 87 q 461 102 455 102 l 564 102 l 564 191 l 461 191 q 454 197 454 191 l 454 300 q 456 304 454 302 q 461 307 458 307 l 571 307 q 577 300 577 307 q 571 293 577 293 l 468 293 l 468 203 l 571 203 q 575 201 573 203 q 578 197 578 199 l 578 94 m 64 632 q 57 616 64 623 q 41 610 51 610 q 27 616 33 610 q 21 632 21 623 q 27 648 21 642 q 41 654 33 654 q 57 648 51 654 q 64 632 64 642 m 673 22 q 667 6 673 13 q 653 0 661 0 q 637 6 644 0 q 631 22 631 13 q 637 37 631 31 q 653 43 644 43 q 667 37 661 43 q 673 22 673 31 m 64 530 q 57 515 64 521 q 41 509 51 509 q 27 515 33 509 q 21 530 21 521 q 27 545 21 539 q 41 551 33 551 q 57 545 51 551 q 64 530 64 539 m 572 22 q 566 6 572 13 q 550 0 559 0 q 535 6 542 0 q 529 22 529 13 q 535 37 529 31 q 550 43 542 43 q 566 37 559 43 q 572 22 572 31 m 319 293 l 319 203 l 403 203 q 409 197 409 203 q 408 193 409 195 q 403 191 406 191 l 319 191 l 319 94 q 313 88 319 88 q 306 94 306 88 l 306 300 q 308 304 306 302 q 313 307 309 307 l 427 307 q 434 300 434 307 q 427 293 434 293 l 319 293 m 64 429 q 57 413 64 420 q 41 407 51 407 q 27 413 33 407 q 21 429 21 420 q 27 444 21 437 q 41 450 33 450 q 57 444 51 450 q 64 429 64 437 m 471 22 q 465 6 471 13 q 449 0 458 0 q 434 6 440 0 q 428 22 428 13 q 434 37 428 31 q 449 43 440 43 q 465 37 458 43 q 471 22 471 31 m 280 94 q 273 89 280 89 q 267 93 269 89 l 237 174 l 155 174 l 125 93 q 118 89 123 89 q 111 95 111 89 q 113 99 111 95 q 121 122 114 102 q 146 183 129 141 q 193 302 163 225 q 199 308 195 308 q 205 301 203 308 l 279 97 l 280 94 m 64 326 q 57 312 64 318 q 41 306 51 306 q 27 312 33 306 q 21 326 21 318 q 27 342 21 336 q 41 349 33 349 q 57 342 51 349 q 64 326 64 336 m 370 22 q 363 6 370 13 q 347 0 357 0 q 331 6 338 0 q 325 22 325 13 q 331 37 325 31 q 347 43 338 43 q 363 37 357 43 q 370 22 370 31 m 64 225 q 57 210 64 216 q 41 203 51 203 q 27 210 33 203 q 21 225 21 216 q 27 241 21 235 q 41 248 33 248 q 57 241 51 248 q 64 225 64 235 m 267 22 q 260 6 267 13 q 245 0 254 0 q 230 6 236 0 q 224 22 224 13 q 230 37 224 31 q 245 43 236 43 q 260 37 254 43 q 267 22 267 31 m 64 123 q 57 108 64 114 q 41 102 51 102 q 27 108 33 102 q 21 123 21 114 q 27 138 21 132 q 41 144 33 144 q 57 138 51 144 q 64 123 64 132 m 165 22 q 159 6 165 13 q 144 0 153 0 q 129 6 135 0 q 122 22 122 13 q 129 37 122 31 q 144 43 135 43 q 159 37 153 43 q 165 22 165 31 m 64 22 q 57 6 64 13 q 41 0 51 0 q 27 6 33 0 q 21 22 21 13 q 27 37 21 31 q 41 43 33 43 q 57 37 51 43 q 64 22 64 31 m 199 281 l 161 186 l 233 186 l 199 281 z "},"⁭":{"ha":694,"x_min":21,"x_max":673,"o":"m 673 632 q 667 616 673 623 q 653 610 661 610 q 637 616 644 610 q 631 632 631 623 q 637 648 631 642 q 653 654 644 654 q 667 648 661 654 q 673 632 673 642 m 572 632 q 566 616 572 623 q 550 610 559 610 q 535 616 542 610 q 529 632 529 623 q 535 648 529 642 q 550 654 542 654 q 566 648 559 654 q 572 632 572 642 m 673 530 q 667 515 673 521 q 653 509 661 509 q 637 515 644 509 q 631 530 631 521 q 637 545 631 539 q 653 551 644 551 q 667 545 661 551 q 673 530 673 539 m 471 632 q 465 616 471 623 q 449 610 458 610 q 434 616 440 610 q 428 632 428 623 q 434 648 428 642 q 449 654 440 654 q 465 648 458 654 q 471 632 471 642 m 673 429 q 667 413 673 420 q 653 407 661 407 q 637 413 644 407 q 631 429 631 420 q 637 444 631 437 q 653 450 644 450 q 667 444 661 450 q 673 429 673 437 m 370 632 q 363 616 370 623 q 347 610 357 610 q 331 616 338 610 q 325 632 325 623 q 331 648 325 642 q 347 654 338 654 q 363 648 357 654 q 370 632 370 642 m 673 326 q 667 312 673 318 q 653 306 661 306 q 637 312 644 306 q 631 326 631 318 q 637 342 631 336 q 653 349 644 349 q 667 342 661 349 q 673 326 673 336 m 267 632 q 260 616 267 623 q 245 610 254 610 q 230 616 236 610 q 224 632 224 623 q 230 648 224 642 q 245 654 236 654 q 260 648 254 654 q 267 632 267 642 m 673 225 q 667 210 673 216 q 653 203 661 203 q 637 210 644 203 q 631 225 631 216 q 637 241 631 235 q 653 248 644 248 q 667 241 661 248 q 673 225 673 235 m 429 355 q 422 350 429 350 q 415 354 417 350 l 386 435 l 304 435 l 272 354 q 266 350 271 350 q 262 351 264 350 q 260 356 260 353 q 261 361 260 357 q 271 385 263 366 q 295 447 279 405 q 340 564 311 488 q 347 569 344 569 q 354 562 352 569 l 428 358 l 429 355 m 165 632 q 159 616 165 623 q 144 610 153 610 q 129 616 135 610 q 122 632 122 623 q 129 648 122 642 q 144 654 135 654 q 159 648 153 654 q 165 632 165 642 m 673 123 q 667 108 673 114 q 653 102 661 102 q 637 108 644 102 q 631 123 631 114 q 637 138 631 132 q 653 144 644 144 q 667 138 661 144 q 673 123 673 132 m 64 632 q 57 616 64 623 q 41 610 51 610 q 27 616 33 610 q 21 632 21 623 q 27 648 21 642 q 41 654 33 654 q 57 648 51 654 q 64 632 64 642 m 673 22 q 667 6 673 13 q 653 0 661 0 q 637 6 644 0 q 631 22 631 13 q 637 37 631 31 q 653 43 644 43 q 667 37 661 43 q 673 22 673 31 m 64 530 q 57 515 64 521 q 41 509 51 509 q 27 515 33 509 q 21 530 21 521 q 27 545 21 539 q 41 551 33 551 q 57 545 51 551 q 64 530 64 539 m 572 22 q 566 6 572 13 q 550 0 559 0 q 535 6 542 0 q 529 22 529 13 q 535 37 529 31 q 550 43 542 43 q 566 37 559 43 q 572 22 572 31 m 319 293 l 319 203 l 403 203 q 409 197 409 203 q 408 193 409 195 q 403 191 406 191 l 319 191 l 319 94 q 313 88 319 88 q 306 94 306 88 l 306 300 q 308 304 306 302 q 313 307 309 307 l 427 307 q 434 300 434 307 q 427 293 434 293 l 319 293 m 64 429 q 57 413 64 420 q 41 407 51 407 q 27 413 33 407 q 21 429 21 420 q 27 444 21 437 q 41 450 33 450 q 57 444 51 450 q 64 429 64 437 m 471 22 q 465 6 471 13 q 449 0 458 0 q 434 6 440 0 q 428 22 428 13 q 434 37 428 31 q 449 43 440 43 q 465 37 458 43 q 471 22 471 31 m 64 326 q 57 312 64 318 q 41 306 51 306 q 27 312 33 306 q 21 326 21 318 q 27 342 21 336 q 41 349 33 349 q 57 342 51 349 q 64 326 64 336 m 370 22 q 363 6 370 13 q 347 0 357 0 q 331 6 338 0 q 325 22 325 13 q 331 37 325 31 q 347 43 338 43 q 363 37 357 43 q 370 22 370 31 m 64 225 q 57 210 64 216 q 41 203 51 203 q 27 210 33 203 q 21 225 21 216 q 27 241 21 235 q 41 248 33 248 q 57 241 51 248 q 64 225 64 235 m 267 22 q 260 6 267 13 q 245 0 254 0 q 230 6 236 0 q 224 22 224 13 q 230 37 224 31 q 245 43 236 43 q 260 37 254 43 q 267 22 267 31 m 64 123 q 57 108 64 114 q 41 102 51 102 q 27 108 33 102 q 21 123 21 114 q 27 138 21 132 q 41 144 33 144 q 57 138 51 144 q 64 123 64 132 m 165 22 q 159 6 165 13 q 144 0 153 0 q 129 6 135 0 q 122 22 122 13 q 129 37 122 31 q 144 43 135 43 q 159 37 153 43 q 165 22 165 31 m 64 22 q 57 6 64 13 q 41 0 51 0 q 27 6 33 0 q 21 22 21 13 q 27 37 21 31 q 41 43 33 43 q 57 37 51 43 q 64 22 64 31 m 347 542 l 310 447 l 382 447 l 347 542 m 578 94 q 575 90 578 92 q 571 87 573 87 l 461 87 q 455 95 455 87 q 461 102 455 102 l 564 102 l 564 191 l 461 191 q 454 197 454 191 l 454 300 q 456 304 454 302 q 461 307 458 307 l 571 307 q 577 300 577 307 q 571 293 577 293 l 468 293 l 468 203 l 571 203 q 575 201 573 203 q 578 197 578 199 l 578 94 m 280 94 q 273 89 280 89 q 267 93 269 89 l 237 174 l 155 174 l 125 93 q 118 89 123 89 q 111 95 111 89 q 113 99 111 95 q 121 122 114 102 q 146 183 129 141 q 193 302 163 225 q 199 308 195 308 q 205 301 203 308 l 279 97 l 280 94 m 199 281 l 161 186 l 233 186 l 199 281 z "},"⁦":{"ha":694,"x_min":21,"x_max":673,"o":"m 673 632 q 667 616 673 623 q 653 610 661 610 q 637 616 644 610 q 631 632 631 623 q 637 648 631 642 q 653 654 644 654 q 667 648 661 654 q 673 632 673 642 m 572 632 q 566 616 572 623 q 550 610 559 610 q 535 616 542 610 q 529 632 529 623 q 535 648 529 642 q 550 654 542 654 q 566 648 559 654 q 572 632 572 642 m 673 530 q 667 515 673 521 q 653 509 661 509 q 637 515 644 509 q 631 530 631 521 q 637 545 631 539 q 653 551 644 551 q 667 545 661 551 q 673 530 673 539 m 471 632 q 465 616 471 623 q 449 610 458 610 q 434 616 440 610 q 428 632 428 623 q 434 648 428 642 q 449 654 440 654 q 465 648 458 654 q 471 632 471 642 m 673 429 q 667 413 673 420 q 653 407 661 407 q 637 413 644 407 q 631 429 631 420 q 637 444 631 437 q 653 450 644 450 q 667 444 661 450 q 673 429 673 437 m 370 632 q 363 616 370 623 q 347 610 357 610 q 331 616 338 610 q 325 632 325 623 q 331 648 325 642 q 347 654 338 654 q 363 648 357 654 q 370 632 370 642 m 673 326 q 667 312 673 318 q 653 306 661 306 q 637 312 644 306 q 631 326 631 318 q 637 342 631 336 q 653 349 644 349 q 667 342 661 349 q 673 326 673 336 m 267 632 q 260 616 267 623 q 245 610 254 610 q 230 616 236 610 q 224 632 224 623 q 230 648 224 642 q 245 654 236 654 q 260 648 254 654 q 267 632 267 642 m 673 225 q 667 210 673 216 q 653 203 661 203 q 637 210 644 203 q 631 225 631 216 q 637 241 631 235 q 653 248 644 248 q 667 241 661 248 q 673 225 673 235 m 673 123 q 667 108 673 114 q 653 102 661 102 q 637 108 644 102 q 631 123 631 114 q 637 138 631 132 q 653 144 644 144 q 667 138 661 144 q 673 123 673 132 m 165 632 q 159 616 165 623 q 144 610 153 610 q 129 616 135 610 q 122 632 122 623 q 129 648 122 642 q 144 654 135 654 q 159 648 153 654 q 165 632 165 642 m 64 632 q 57 616 64 623 q 41 610 51 610 q 27 616 33 610 q 21 632 21 623 q 27 648 21 642 q 41 654 33 654 q 57 648 51 654 q 64 632 64 642 m 673 22 q 667 6 673 13 q 653 0 661 0 q 637 6 644 0 q 631 22 631 13 q 637 37 631 31 q 653 43 644 43 q 667 37 661 43 q 673 22 673 31 m 64 530 q 57 515 64 521 q 41 509 51 509 q 27 515 33 509 q 21 530 21 521 q 27 545 21 539 q 41 551 33 551 q 57 545 51 551 q 64 530 64 539 m 572 22 q 566 6 572 13 q 550 0 559 0 q 535 6 542 0 q 529 22 529 13 q 535 37 529 31 q 550 43 542 43 q 566 37 559 43 q 572 22 572 31 m 64 429 q 57 413 64 420 q 41 407 51 407 q 27 413 33 407 q 21 429 21 420 q 27 444 21 437 q 41 450 33 450 q 57 444 51 450 q 64 429 64 437 m 471 22 q 465 6 471 13 q 449 0 458 0 q 434 6 440 0 q 428 22 428 13 q 434 37 428 31 q 449 43 440 43 q 465 37 458 43 q 471 22 471 31 m 64 326 q 57 312 64 318 q 41 306 51 306 q 27 312 33 306 q 21 326 21 318 q 27 342 21 336 q 41 349 33 349 q 57 342 51 349 q 64 326 64 336 m 370 22 q 363 6 370 13 q 347 0 357 0 q 331 6 338 0 q 325 22 325 13 q 331 37 325 31 q 347 43 338 43 q 363 37 357 43 q 370 22 370 31 m 64 225 q 57 210 64 216 q 41 203 51 203 q 27 210 33 203 q 21 225 21 216 q 27 241 21 235 q 41 248 33 248 q 57 241 51 248 q 64 225 64 235 m 267 22 q 260 6 267 13 q 245 0 254 0 q 230 6 236 0 q 224 22 224 13 q 230 37 224 31 q 245 43 236 43 q 260 37 254 43 q 267 22 267 31 m 64 123 q 57 108 64 114 q 41 102 51 102 q 27 108 33 102 q 21 123 21 114 q 27 138 21 132 q 41 144 33 144 q 57 138 51 144 q 64 123 64 132 m 165 22 q 159 6 165 13 q 144 0 153 0 q 129 6 135 0 q 122 22 122 13 q 129 37 122 31 q 144 43 135 43 q 159 37 153 43 q 165 22 165 31 m 64 22 q 57 6 64 13 q 41 0 51 0 q 27 6 33 0 q 21 22 21 13 q 27 37 21 31 q 41 43 33 43 q 57 37 51 43 q 64 22 64 31 m 273 218 q 281 210 281 218 q 273 203 281 203 l 159 203 q 154 206 156 203 q 153 211 153 209 l 153 416 q 159 422 153 422 q 166 416 166 422 l 166 218 l 273 218 m 456 203 q 449 211 449 203 q 456 218 449 218 l 484 218 l 484 409 l 456 409 q 449 416 449 409 q 456 423 449 423 l 526 423 q 533 416 533 423 q 526 409 533 409 l 498 409 l 498 218 l 526 218 q 533 211 533 218 q 526 203 533 203 l 456 203 m 321 212 q 315 204 320 204 q 308 211 309 204 l 308 416 q 315 423 309 423 l 353 423 q 404 405 387 423 q 420 364 420 387 q 409 330 420 346 q 375 307 397 313 l 422 213 q 422 210 422 212 q 416 203 422 203 q 410 207 411 203 l 361 304 l 321 304 l 321 212 m 321 318 l 351 318 q 393 332 379 318 q 408 363 408 346 q 393 395 408 381 q 351 410 379 410 l 321 410 l 321 318 z "},"⁧":{"ha":694,"x_min":21,"x_max":673,"o":"m 673 632 q 667 616 673 623 q 653 610 661 610 q 637 616 644 610 q 631 632 631 623 q 637 648 631 642 q 653 654 644 654 q 667 648 661 654 q 673 632 673 642 m 572 632 q 566 616 572 623 q 550 610 559 610 q 535 616 542 610 q 529 632 529 623 q 535 648 529 642 q 550 654 542 654 q 566 648 559 654 q 572 632 572 642 m 673 530 q 667 515 673 521 q 653 509 661 509 q 637 515 644 509 q 631 530 631 521 q 637 545 631 539 q 653 551 644 551 q 667 545 661 551 q 673 530 673 539 m 471 632 q 465 616 471 623 q 449 610 458 610 q 434 616 440 610 q 428 632 428 623 q 434 648 428 642 q 449 654 440 654 q 465 648 458 654 q 471 632 471 642 m 673 429 q 667 413 673 420 q 653 407 661 407 q 637 413 644 407 q 631 429 631 420 q 637 444 631 437 q 653 450 644 450 q 667 444 661 450 q 673 429 673 437 m 370 632 q 363 616 370 623 q 347 610 357 610 q 331 616 338 610 q 325 632 325 623 q 331 648 325 642 q 347 654 338 654 q 363 648 357 654 q 370 632 370 642 m 673 326 q 667 312 673 318 q 653 306 661 306 q 637 312 644 306 q 631 326 631 318 q 637 342 631 336 q 653 349 644 349 q 667 342 661 349 q 673 326 673 336 m 267 632 q 260 616 267 623 q 245 610 254 610 q 230 616 236 610 q 224 632 224 623 q 230 648 224 642 q 245 654 236 654 q 260 648 254 654 q 267 632 267 642 m 673 225 q 667 210 673 216 q 653 203 661 203 q 637 210 644 203 q 631 225 631 216 q 637 241 631 235 q 653 248 644 248 q 667 241 661 248 q 673 225 673 235 m 673 123 q 667 108 673 114 q 653 102 661 102 q 637 108 644 102 q 631 123 631 114 q 637 138 631 132 q 653 144 644 144 q 667 138 661 144 q 673 123 673 132 m 165 632 q 159 616 165 623 q 144 610 153 610 q 129 616 135 610 q 122 632 122 623 q 129 648 122 642 q 144 654 135 654 q 159 648 153 654 q 165 632 165 642 m 64 632 q 57 616 64 623 q 41 610 51 610 q 27 616 33 610 q 21 632 21 623 q 27 648 21 642 q 41 654 33 654 q 57 648 51 654 q 64 632 64 642 m 673 22 q 667 6 673 13 q 653 0 661 0 q 637 6 644 0 q 631 22 631 13 q 637 37 631 31 q 653 43 644 43 q 667 37 661 43 q 673 22 673 31 m 64 530 q 57 515 64 521 q 41 509 51 509 q 27 515 33 509 q 21 530 21 521 q 27 545 21 539 q 41 551 33 551 q 57 545 51 551 q 64 530 64 539 m 572 22 q 566 6 572 13 q 550 0 559 0 q 535 6 542 0 q 529 22 529 13 q 535 37 529 31 q 550 43 542 43 q 566 37 559 43 q 572 22 572 31 m 64 429 q 57 413 64 420 q 41 407 51 407 q 27 413 33 407 q 21 429 21 420 q 27 444 21 437 q 41 450 33 450 q 57 444 51 450 q 64 429 64 437 m 471 22 q 465 6 471 13 q 449 0 458 0 q 434 6 440 0 q 428 22 428 13 q 434 37 428 31 q 449 43 440 43 q 465 37 458 43 q 471 22 471 31 m 64 326 q 57 312 64 318 q 41 306 51 306 q 27 312 33 306 q 21 326 21 318 q 27 342 21 336 q 41 349 33 349 q 57 342 51 349 q 64 326 64 336 m 370 22 q 363 6 370 13 q 347 0 357 0 q 331 6 338 0 q 325 22 325 13 q 331 37 325 31 q 347 43 338 43 q 363 37 357 43 q 370 22 370 31 m 64 225 q 57 210 64 216 q 41 203 51 203 q 27 210 33 203 q 21 225 21 216 q 27 241 21 235 q 41 248 33 248 q 57 241 51 248 q 64 225 64 235 m 267 22 q 260 6 267 13 q 245 0 254 0 q 230 6 236 0 q 224 22 224 13 q 230 37 224 31 q 245 43 236 43 q 260 37 254 43 q 267 22 267 31 m 64 123 q 57 108 64 114 q 41 102 51 102 q 27 108 33 102 q 21 123 21 114 q 27 138 21 132 q 41 144 33 144 q 57 138 51 144 q 64 123 64 132 m 165 22 q 159 6 165 13 q 144 0 153 0 q 129 6 135 0 q 122 22 122 13 q 129 37 122 31 q 144 43 135 43 q 159 37 153 43 q 165 22 165 31 m 64 22 q 57 6 64 13 q 41 0 51 0 q 27 6 33 0 q 21 22 21 13 q 27 37 21 31 q 41 43 33 43 q 57 37 51 43 q 64 22 64 31 m 416 218 q 423 210 423 218 q 416 203 423 203 l 302 203 q 297 206 298 203 q 295 211 295 209 l 295 416 q 302 422 295 422 q 309 416 309 422 l 309 218 l 416 218 m 456 203 q 449 211 449 203 q 456 218 449 218 l 484 218 l 484 409 l 456 409 q 449 416 449 409 q 456 423 449 423 l 526 423 q 533 416 533 423 q 526 409 533 409 l 498 409 l 498 218 l 526 218 q 533 211 533 218 q 526 203 533 203 l 456 203 m 166 212 q 159 204 165 204 q 153 211 154 204 l 153 416 q 160 423 153 423 l 197 423 q 248 405 231 423 q 265 364 265 387 q 254 330 265 346 q 220 307 242 313 l 267 213 q 267 210 267 212 q 260 203 267 203 q 254 207 256 203 l 206 304 l 166 304 l 166 212 m 166 318 l 195 318 q 238 332 224 318 q 252 363 252 346 q 238 395 252 381 q 195 410 224 410 l 166 410 l 166 318 z "},"⁨":{"ha":694,"x_min":21,"x_max":673,"o":"m 673 632 q 667 616 673 623 q 653 610 661 610 q 637 616 644 610 q 631 632 631 623 q 637 648 631 642 q 653 654 644 654 q 667 648 661 654 q 673 632 673 642 m 572 632 q 566 616 572 623 q 550 610 559 610 q 535 616 542 610 q 529 632 529 623 q 535 648 529 642 q 550 654 542 654 q 566 648 559 654 q 572 632 572 642 m 673 530 q 667 515 673 521 q 653 509 661 509 q 637 515 644 509 q 631 530 631 521 q 637 545 631 539 q 653 551 644 551 q 667 545 661 551 q 673 530 673 539 m 471 632 q 465 616 471 623 q 449 610 458 610 q 434 616 440 610 q 428 632 428 623 q 434 648 428 642 q 449 654 440 654 q 465 648 458 654 q 471 632 471 642 m 673 429 q 667 413 673 420 q 653 407 661 407 q 637 413 644 407 q 631 429 631 420 q 637 444 631 437 q 653 450 644 450 q 667 444 661 450 q 673 429 673 437 m 370 632 q 363 616 370 623 q 347 610 357 610 q 331 616 338 610 q 325 632 325 623 q 331 648 325 642 q 347 654 338 654 q 363 648 357 654 q 370 632 370 642 m 673 326 q 667 312 673 318 q 653 306 661 306 q 637 312 644 306 q 631 326 631 318 q 637 342 631 336 q 653 349 644 349 q 667 342 661 349 q 673 326 673 336 m 267 632 q 260 616 267 623 q 245 610 254 610 q 230 616 236 610 q 224 632 224 623 q 230 648 224 642 q 245 654 236 654 q 260 648 254 654 q 267 632 267 642 m 673 225 q 667 210 673 216 q 653 203 661 203 q 637 210 644 203 q 631 225 631 216 q 637 241 631 235 q 653 248 644 248 q 667 241 661 248 q 673 225 673 235 m 673 123 q 667 108 673 114 q 653 102 661 102 q 637 108 644 102 q 631 123 631 114 q 637 138 631 132 q 653 144 644 144 q 667 138 661 144 q 673 123 673 132 m 165 632 q 159 616 165 623 q 144 610 153 610 q 129 616 135 610 q 122 632 122 623 q 129 648 122 642 q 144 654 135 654 q 159 648 153 654 q 165 632 165 642 m 64 632 q 57 616 64 623 q 41 610 51 610 q 27 616 33 610 q 21 632 21 623 q 27 648 21 642 q 41 654 33 654 q 57 648 51 654 q 64 632 64 642 m 673 22 q 667 6 673 13 q 653 0 661 0 q 637 6 644 0 q 631 22 631 13 q 637 37 631 31 q 653 43 644 43 q 667 37 661 43 q 673 22 673 31 m 64 530 q 57 515 64 521 q 41 509 51 509 q 27 515 33 509 q 21 530 21 521 q 27 545 21 539 q 41 551 33 551 q 57 545 51 551 q 64 530 64 539 m 572 22 q 566 6 572 13 q 550 0 559 0 q 535 6 542 0 q 529 22 529 13 q 535 37 529 31 q 550 43 542 43 q 566 37 559 43 q 572 22 572 31 m 64 429 q 57 413 64 420 q 41 407 51 407 q 27 413 33 407 q 21 429 21 420 q 27 444 21 437 q 41 450 33 450 q 57 444 51 450 q 64 429 64 437 m 471 22 q 465 6 471 13 q 449 0 458 0 q 434 6 440 0 q 428 22 428 13 q 434 37 428 31 q 449 43 440 43 q 465 37 458 43 q 471 22 471 31 m 64 326 q 57 312 64 318 q 41 306 51 306 q 27 312 33 306 q 21 326 21 318 q 27 342 21 336 q 41 349 33 349 q 57 342 51 349 q 64 326 64 336 m 370 22 q 363 6 370 13 q 347 0 357 0 q 331 6 338 0 q 325 22 325 13 q 331 37 325 31 q 347 43 338 43 q 363 37 357 43 q 370 22 370 31 m 64 225 q 57 210 64 216 q 41 203 51 203 q 27 210 33 203 q 21 225 21 216 q 27 241 21 235 q 41 248 33 248 q 57 241 51 248 q 64 225 64 235 m 267 22 q 260 6 267 13 q 245 0 254 0 q 230 6 236 0 q 224 22 224 13 q 230 37 224 31 q 245 43 236 43 q 260 37 254 43 q 267 22 267 31 m 64 123 q 57 108 64 114 q 41 102 51 102 q 27 108 33 102 q 21 123 21 114 q 27 138 21 132 q 41 144 33 144 q 57 138 51 144 q 64 123 64 132 m 165 22 q 159 6 165 13 q 144 0 153 0 q 129 6 135 0 q 122 22 122 13 q 129 37 122 31 q 144 43 135 43 q 159 37 153 43 q 165 22 165 31 m 64 22 q 57 6 64 13 q 41 0 51 0 q 27 6 33 0 q 21 22 21 13 q 27 37 21 31 q 41 43 33 43 q 57 37 51 43 q 64 22 64 31 m 172 409 l 172 319 l 255 319 q 261 313 261 319 q 260 309 261 311 q 255 307 258 307 l 172 307 l 172 210 q 165 204 172 204 q 158 210 158 204 l 158 416 q 160 420 158 418 q 165 423 161 423 l 279 423 q 286 416 286 423 q 279 409 286 409 l 172 409 m 430 210 q 428 206 430 208 q 423 203 425 203 l 313 203 q 307 211 307 203 q 313 218 307 218 l 416 218 l 416 307 l 313 307 q 307 313 307 307 l 307 416 q 308 420 307 418 q 313 423 310 423 l 423 423 q 429 416 429 423 q 423 409 429 409 l 320 409 l 320 319 l 423 319 q 428 317 425 319 q 430 313 430 315 l 430 210 m 464 203 q 456 211 456 203 q 464 218 456 218 l 492 218 l 492 409 l 464 409 q 456 416 456 409 q 464 423 456 423 l 533 423 q 541 416 541 423 q 533 409 541 409 l 505 409 l 505 218 l 533 218 q 541 211 541 218 q 533 203 541 203 l 464 203 z "},"⁩":{"ha":694,"x_min":21,"x_max":673,"o":"m 673 632 q 667 616 673 623 q 653 610 661 610 q 637 616 644 610 q 631 632 631 623 q 637 648 631 642 q 653 654 644 654 q 667 648 661 654 q 673 632 673 642 m 572 632 q 566 616 572 623 q 550 610 559 610 q 535 616 542 610 q 529 632 529 623 q 535 648 529 642 q 550 654 542 654 q 566 648 559 654 q 572 632 572 642 m 673 530 q 667 515 673 521 q 653 509 661 509 q 637 515 644 509 q 631 530 631 521 q 637 545 631 539 q 653 551 644 551 q 667 545 661 551 q 673 530 673 539 m 471 632 q 465 616 471 623 q 449 610 458 610 q 434 616 440 610 q 428 632 428 623 q 434 648 428 642 q 449 654 440 654 q 465 648 458 654 q 471 632 471 642 m 673 429 q 667 413 673 420 q 653 407 661 407 q 637 413 644 407 q 631 429 631 420 q 637 444 631 437 q 653 450 644 450 q 667 444 661 450 q 673 429 673 437 m 370 632 q 363 616 370 623 q 347 610 357 610 q 331 616 338 610 q 325 632 325 623 q 331 648 325 642 q 347 654 338 654 q 363 648 357 654 q 370 632 370 642 m 673 326 q 667 312 673 318 q 653 306 661 306 q 637 312 644 306 q 631 326 631 318 q 637 342 631 336 q 653 349 644 349 q 667 342 661 349 q 673 326 673 336 m 267 632 q 260 616 267 623 q 245 610 254 610 q 230 616 236 610 q 224 632 224 623 q 230 648 224 642 q 245 654 236 654 q 260 648 254 654 q 267 632 267 642 m 673 225 q 667 210 673 216 q 653 203 661 203 q 637 210 644 203 q 631 225 631 216 q 637 241 631 235 q 653 248 644 248 q 667 241 661 248 q 673 225 673 235 m 673 123 q 667 108 673 114 q 653 102 661 102 q 637 108 644 102 q 631 123 631 114 q 637 138 631 132 q 653 144 644 144 q 667 138 661 144 q 673 123 673 132 m 165 632 q 159 616 165 623 q 144 610 153 610 q 129 616 135 610 q 122 632 122 623 q 129 648 122 642 q 144 654 135 654 q 159 648 153 654 q 165 632 165 642 m 64 632 q 57 616 64 623 q 41 610 51 610 q 27 616 33 610 q 21 632 21 623 q 27 648 21 642 q 41 654 33 654 q 57 648 51 654 q 64 632 64 642 m 673 22 q 667 6 673 13 q 653 0 661 0 q 637 6 644 0 q 631 22 631 13 q 637 37 631 31 q 653 43 644 43 q 667 37 661 43 q 673 22 673 31 m 64 530 q 57 515 64 521 q 41 509 51 509 q 27 515 33 509 q 21 530 21 521 q 27 545 21 539 q 41 551 33 551 q 57 545 51 551 q 64 530 64 539 m 572 22 q 566 6 572 13 q 550 0 559 0 q 535 6 542 0 q 529 22 529 13 q 535 37 529 31 q 550 43 542 43 q 566 37 559 43 q 572 22 572 31 m 64 429 q 57 413 64 420 q 41 407 51 407 q 27 413 33 407 q 21 429 21 420 q 27 444 21 437 q 41 450 33 450 q 57 444 51 450 q 64 429 64 437 m 471 22 q 465 6 471 13 q 449 0 458 0 q 434 6 440 0 q 428 22 428 13 q 434 37 428 31 q 449 43 440 43 q 465 37 458 43 q 471 22 471 31 m 64 326 q 57 312 64 318 q 41 306 51 306 q 27 312 33 306 q 21 326 21 318 q 27 342 21 336 q 41 349 33 349 q 57 342 51 349 q 64 326 64 336 m 370 22 q 363 6 370 13 q 347 0 357 0 q 331 6 338 0 q 325 22 325 13 q 331 37 325 31 q 347 43 338 43 q 363 37 357 43 q 370 22 370 31 m 64 225 q 57 210 64 216 q 41 203 51 203 q 27 210 33 203 q 21 225 21 216 q 27 241 21 235 q 41 248 33 248 q 57 241 51 248 q 64 225 64 235 m 267 22 q 260 6 267 13 q 245 0 254 0 q 230 6 236 0 q 224 22 224 13 q 230 37 224 31 q 245 43 236 43 q 260 37 254 43 q 267 22 267 31 m 64 123 q 57 108 64 114 q 41 102 51 102 q 27 108 33 102 q 21 123 21 114 q 27 138 21 132 q 41 144 33 144 q 57 138 51 144 q 64 123 64 132 m 165 22 q 159 6 165 13 q 144 0 153 0 q 129 6 135 0 q 122 22 122 13 q 129 37 122 31 q 144 43 135 43 q 159 37 153 43 q 165 22 165 31 m 64 22 q 57 6 64 13 q 41 0 51 0 q 27 6 33 0 q 21 22 21 13 q 27 37 21 31 q 41 43 33 43 q 57 37 51 43 q 64 22 64 31 m 452 203 q 444 211 444 203 q 452 218 444 218 l 479 218 l 479 409 l 452 409 q 444 416 444 409 q 452 423 444 423 l 521 423 q 528 416 528 423 q 521 409 528 409 l 493 409 l 493 218 l 521 218 q 528 211 528 218 q 521 203 528 203 l 452 203 m 178 212 q 172 204 177 204 q 165 211 166 204 l 165 416 q 172 423 165 423 l 210 423 q 260 405 243 423 q 277 364 277 387 q 260 323 277 342 q 210 304 243 304 l 178 304 l 178 212 m 178 318 l 208 318 q 250 332 236 318 q 264 363 264 346 q 250 395 264 381 q 208 410 236 410 l 178 410 l 178 318 m 304 416 q 312 423 305 423 l 349 423 q 400 405 383 423 q 417 364 417 387 l 417 263 q 400 222 417 241 q 349 203 383 203 l 304 203 l 304 416 m 318 217 l 347 217 q 390 231 376 217 q 404 262 404 245 l 404 363 q 390 395 404 381 q 347 410 376 410 l 318 410 l 318 217 z "},"−":{"ha":669,"x_min":43,"x_max":628,"o":"m 628 393 l 43 393 l 43 454 l 628 454 l 628 393 z "},"◌":{"ha":976,"x_min":88,"x_max":888,"o":"m 779 722 q 770 702 779 710 q 749 693 762 693 q 729 702 737 693 q 720 722 720 710 q 729 743 720 734 q 749 752 737 752 q 770 743 762 752 q 779 722 779 734 m 660 802 q 650 781 660 789 q 630 772 641 772 q 608 781 616 772 q 600 802 600 789 q 608 822 600 814 q 630 831 616 831 q 651 822 643 831 q 660 802 660 814 m 859 602 q 850 580 859 589 q 830 572 842 572 q 808 580 817 572 q 800 602 800 589 q 808 623 800 613 q 830 632 817 632 q 850 624 842 632 q 859 602 859 615 m 518 830 q 509 810 518 819 q 488 802 500 802 q 467 810 475 802 q 458 830 458 819 q 467 851 458 843 q 488 860 475 860 q 509 851 500 860 q 518 830 518 843 m 888 460 q 879 439 888 448 q 858 431 871 431 q 838 439 846 431 q 829 460 829 448 q 838 481 829 473 q 858 490 846 490 q 879 481 871 490 q 888 460 888 473 m 377 802 q 369 781 377 789 q 347 772 360 772 q 326 781 336 772 q 317 802 317 789 q 325 822 317 814 q 347 831 334 831 q 369 822 360 831 q 377 802 377 814 m 859 319 q 850 297 859 306 q 830 289 842 289 q 808 298 817 289 q 800 319 800 308 q 808 341 800 332 q 830 349 817 349 q 850 341 842 349 q 859 319 859 332 m 255 722 q 247 702 255 710 q 227 693 239 693 q 205 702 214 693 q 196 722 196 710 q 205 743 196 734 q 227 752 214 752 q 247 743 239 752 q 255 722 255 734 m 779 199 q 770 177 779 186 q 749 168 762 168 q 729 177 737 168 q 720 199 720 186 q 729 219 720 211 q 749 227 737 227 q 770 219 762 227 q 779 199 779 211 m 176 602 q 168 580 176 589 q 146 572 159 572 q 126 580 134 572 q 117 602 117 589 q 126 624 117 615 q 146 632 134 632 q 168 623 159 632 q 176 602 176 613 m 660 119 q 651 99 660 107 q 630 90 643 90 q 608 99 616 90 q 600 119 600 107 q 608 141 600 132 q 630 149 616 149 q 650 141 641 149 q 660 119 660 132 m 146 460 q 138 439 146 448 q 118 431 130 431 q 97 439 105 431 q 88 460 88 448 q 97 481 88 473 q 118 490 105 490 q 138 481 130 490 q 146 460 146 473 m 518 91 q 509 70 518 78 q 488 61 500 61 q 467 70 475 61 q 458 91 458 78 q 467 111 458 102 q 488 119 475 119 q 509 111 500 119 q 518 91 518 102 m 176 319 q 168 298 176 308 q 146 289 159 289 q 126 297 134 289 q 117 319 117 306 q 126 341 117 332 q 146 349 134 349 q 168 341 159 349 q 176 319 176 332 m 377 119 q 369 99 377 107 q 347 90 360 90 q 325 99 334 90 q 317 119 317 107 q 326 141 317 132 q 347 149 336 149 q 369 141 360 149 q 377 119 377 132 m 255 199 q 247 177 255 186 q 227 168 239 168 q 205 177 214 168 q 196 199 196 186 q 205 219 196 211 q 227 227 214 227 q 247 219 239 227 q 255 199 255 211 z "},"":{"ha":231,"x_min":31,"x_max":231,"o":"m 193 -200 l 193 -38 l 31 -38 l 31 0 l 231 0 l 231 -200 l 193 -200 z "},"":{"ha":231,"x_min":0,"x_max":200,"o":"m 38 -38 l 38 -200 l 0 -200 l 0 0 l 200 0 l 200 -38 l 38 -38 z "},"﻿":{"ha":0,"x_min":0,"x_max":0,"o":""},"آ":{"ha":257,"x_min":-77,"x_max":332,"o":"m 189 662 q 189 584 189 634 q 188 472 189 534 q 186 342 187 410 q 184 210 185 274 q 181 90 182 145 q 178 -1 180 35 q 161 -17 171 -10 q 138 -30 151 -24 q 113 -38 126 -35 q 87 -43 100 -41 q 89 5 88 -21 q 89 62 89 32 q 88 187 89 120 q 85 321 87 254 q 82 451 83 388 q 78 563 80 513 q 76 644 77 612 q 75 682 75 676 q 95 703 81 694 q 125 720 109 713 q 158 732 142 728 q 186 739 174 736 q 187 721 186 732 q 189 697 188 709 q 189 675 189 685 q 189 662 189 665 m 323 821 q 277 795 313 806 q 178 784 240 784 q 101 789 134 784 q 33 794 67 794 q -17 788 8 794 q -68 763 -41 781 q -75 784 -73 772 q -77 808 -77 795 q -74 833 -77 821 q -65 856 -71 845 q -52 874 -59 867 q -37 886 -45 882 q -20 890 -28 889 q -3 891 -12 891 q 43 888 18 891 q 97 881 68 885 q 157 874 125 877 q 221 871 188 871 q 285 877 258 871 q 329 897 313 882 q 332 867 332 885 q 330 840 332 853 q 323 821 328 827 z "},"أ":{"ha":257,"x_min":24,"x_max":258,"o":"m 199 662 q 199 584 199 634 q 198 472 199 534 q 196 342 197 410 q 194 210 195 274 q 191 90 193 145 q 188 -1 190 35 q 171 -17 181 -10 q 149 -30 161 -24 q 123 -38 136 -35 q 98 -43 110 -41 q 99 5 98 -21 q 99 62 99 32 q 98 187 99 120 q 95 321 97 254 q 92 451 94 388 q 89 563 90 513 q 86 644 87 612 q 85 682 85 676 q 105 703 91 694 q 135 720 119 713 q 168 732 152 728 q 196 739 184 736 q 197 721 197 732 q 199 697 198 709 q 199 675 199 685 q 199 662 199 665 m 258 978 q 249 962 255 970 q 235 947 242 954 q 221 936 228 941 q 212 930 215 931 q 182 949 201 943 q 144 955 163 955 q 111 948 125 955 q 96 928 96 941 q 103 912 96 920 q 126 896 110 905 q 171 876 143 886 q 242 851 199 865 q 238 836 240 844 q 233 821 235 828 q 227 809 230 814 q 222 804 224 804 q 116 787 158 798 q 58 770 73 775 q 36 792 45 777 q 24 817 26 807 q 66 827 39 823 q 129 838 93 832 q 57 877 80 857 q 35 929 35 897 q 43 961 35 945 q 66 988 51 977 q 105 1007 82 1000 q 156 1014 127 1014 q 217 1004 192 1014 q 258 978 243 994 z "},"إ":{"ha":257,"x_min":20,"x_max":255,"o":"m 196 662 q 196 584 196 634 q 195 472 195 534 q 193 342 194 410 q 191 210 192 274 q 188 90 189 145 q 184 -1 186 35 q 168 -17 178 -10 q 145 -30 157 -24 q 120 -38 133 -35 q 94 -43 106 -41 q 95 5 95 -21 q 96 62 96 32 q 95 187 96 120 q 92 321 94 254 q 89 451 90 388 q 85 563 87 513 q 82 644 83 612 q 81 682 81 676 q 101 703 87 694 q 132 720 115 713 q 165 732 149 728 q 193 739 181 736 q 194 721 193 732 q 195 697 195 709 q 196 675 196 685 q 196 662 196 665 m 255 -128 q 245 -144 252 -136 q 232 -159 239 -152 q 218 -170 224 -165 q 208 -176 212 -175 q 179 -157 197 -163 q 141 -151 160 -151 q 107 -158 121 -151 q 93 -178 93 -165 q 100 -194 93 -186 q 123 -211 106 -201 q 168 -231 140 -220 q 239 -255 196 -241 q 234 -270 237 -262 q 229 -285 232 -278 q 224 -297 227 -292 q 218 -302 221 -302 q 112 -319 155 -308 q 54 -336 70 -331 q 32 -314 41 -329 q 20 -289 23 -299 q 63 -279 36 -283 q 125 -269 90 -274 q 54 -229 77 -249 q 31 -177 31 -209 q 39 -145 31 -161 q 63 -118 47 -130 q 101 -99 79 -106 q 153 -92 124 -92 q 214 -102 189 -92 q 255 -128 239 -113 z "},"ا":{"ha":257,"x_min":75,"x_max":189,"o":"m 189 662 q 189 584 189 634 q 188 472 189 534 q 186 342 187 410 q 184 210 185 274 q 181 90 182 145 q 178 -1 180 35 q 161 -17 171 -10 q 138 -30 151 -24 q 113 -38 126 -35 q 87 -43 100 -41 q 89 5 88 -21 q 89 62 89 32 q 88 187 89 120 q 85 321 87 254 q 82 451 83 388 q 78 563 80 513 q 76 644 77 612 q 75 682 75 676 q 95 703 81 694 q 125 720 109 713 q 158 732 142 728 q 186 739 174 736 q 187 721 186 732 q 189 697 188 709 q 189 675 189 685 q 189 662 189 665 z "},"ٱ":{"ha":257,"x_min":-54,"x_max":290,"o":"m 189 662 q 189 584 189 634 q 188 472 189 534 q 186 342 187 410 q 184 210 185 274 q 181 90 182 145 q 178 -1 180 35 q 161 -17 171 -10 q 138 -30 151 -24 q 113 -38 126 -35 q 87 -43 100 -41 q 89 5 88 -21 q 89 62 89 32 q 88 187 89 120 q 85 321 87 254 q 82 451 83 388 q 78 563 80 513 q 76 644 77 612 q 75 682 75 676 q 95 703 81 694 q 125 720 109 713 q 158 732 142 728 q 186 739 174 736 q 187 721 186 732 q 189 697 188 709 q 189 675 189 685 q 189 662 189 665 m 203 939 q 269 918 248 939 q 290 864 290 897 q 281 825 290 843 q 255 794 273 808 q 212 774 238 781 q 153 766 186 766 q 88 770 123 766 q 20 774 54 774 q -19 772 0 774 q -54 762 -38 770 q -52 778 -54 769 q -49 796 -51 787 q -44 811 -47 804 q -39 820 -41 817 q -8 826 -24 825 q 22 827 7 827 q 47 827 35 827 q 72 825 60 826 q 90 863 79 843 q 117 900 101 884 q 154 928 133 917 q 203 939 176 939 m 153 817 q 190 821 174 817 q 214 832 205 825 q 228 846 224 838 q 232 861 232 854 q 224 880 232 871 q 197 889 216 889 q 158 873 178 889 q 125 819 138 857 q 139 818 132 818 q 153 817 145 817 z "},"ؤ":{"ha":585,"x_min":-14,"x_max":530,"o":"m 294 356 q 365 341 330 356 q 426 295 399 326 q 472 216 454 264 q 494 101 490 168 q 510 111 502 106 q 524 122 517 116 q 530 83 530 106 q 528 53 530 67 q 524 31 526 39 q 509 22 516 26 q 492 14 501 18 q 452 -135 484 -63 q 362 -269 419 -208 q 223 -378 304 -331 q 37 -452 142 -425 q 21 -435 29 -446 q 6 -413 13 -425 q -6 -388 -1 -401 q -14 -361 -11 -374 q 142 -313 72 -344 q 266 -238 213 -281 q 352 -138 319 -194 q 397 -16 386 -83 q 337 -26 366 -23 q 285 -29 308 -29 q 205 -19 243 -29 q 139 11 168 -9 q 94 64 111 32 q 77 140 77 96 q 96 232 77 192 q 144 300 114 273 q 213 342 174 328 q 294 356 252 356 m 299 56 q 345 59 317 56 q 402 68 372 62 q 394 147 401 111 q 372 210 387 183 q 335 251 357 236 q 279 266 312 266 q 238 259 258 266 q 202 239 218 253 q 177 204 186 225 q 168 155 168 183 q 178 110 168 129 q 207 80 189 92 q 249 62 225 68 q 299 56 273 56 m 372 650 q 362 635 369 643 q 349 620 356 627 q 335 608 342 613 q 326 602 329 604 q 296 621 315 615 q 258 627 277 627 q 224 621 239 627 q 210 600 210 614 q 217 585 210 593 q 240 568 224 577 q 285 548 257 559 q 356 524 313 537 q 352 509 354 517 q 347 493 349 500 q 341 481 344 486 q 336 476 338 476 q 230 459 272 471 q 172 442 187 448 q 150 465 159 450 q 138 490 140 479 q 180 500 153 495 q 243 510 207 505 q 171 550 194 530 q 149 602 149 570 q 157 633 149 618 q 180 661 165 649 q 219 679 196 672 q 270 686 241 686 q 331 676 306 686 q 372 650 357 666 z "},"و":{"ha":585,"x_min":-14,"x_max":530,"o":"m 294 356 q 365 341 330 356 q 426 295 399 326 q 472 216 454 264 q 494 101 490 168 q 510 111 502 106 q 524 122 517 116 q 530 83 530 106 q 528 53 530 67 q 524 31 526 39 q 509 22 516 26 q 492 14 501 18 q 452 -135 484 -63 q 362 -269 419 -208 q 223 -378 304 -331 q 37 -452 142 -425 q 21 -435 29 -446 q 6 -413 13 -425 q -6 -388 -1 -401 q -14 -361 -11 -374 q 142 -313 72 -344 q 266 -238 213 -281 q 352 -138 319 -194 q 397 -16 386 -83 q 337 -26 366 -23 q 285 -29 308 -29 q 205 -19 243 -29 q 139 11 168 -9 q 94 64 111 32 q 77 140 77 96 q 96 232 77 192 q 144 300 114 273 q 213 342 174 328 q 294 356 252 356 m 299 56 q 345 59 317 56 q 402 68 372 62 q 394 147 401 111 q 372 210 387 183 q 335 251 357 236 q 279 266 312 266 q 238 259 258 266 q 202 239 218 253 q 177 204 186 225 q 168 155 168 183 q 178 110 168 129 q 207 80 189 92 q 249 62 225 68 q 299 56 273 56 z "},"ۆ":{"ha":585,"x_min":-14,"x_max":530,"o":"m 294 356 q 365 341 330 356 q 426 295 399 326 q 472 216 454 264 q 494 101 490 168 q 510 111 502 106 q 524 122 517 116 q 530 83 530 106 q 528 53 530 67 q 524 31 526 39 q 509 22 516 26 q 492 14 501 18 q 452 -135 484 -63 q 362 -269 419 -208 q 223 -378 304 -331 q 37 -452 142 -425 q 21 -435 29 -446 q 6 -413 13 -425 q -6 -388 -1 -401 q -14 -361 -11 -374 q 142 -313 72 -344 q 266 -238 213 -281 q 352 -138 319 -194 q 397 -16 386 -83 q 337 -26 366 -23 q 285 -29 308 -29 q 205 -19 243 -29 q 139 11 168 -9 q 94 64 111 32 q 77 140 77 96 q 96 232 77 192 q 144 300 114 273 q 213 342 174 328 q 294 356 252 356 m 299 56 q 345 59 317 56 q 402 68 372 62 q 394 147 401 111 q 372 210 387 183 q 335 251 357 236 q 279 266 312 266 q 238 259 258 266 q 202 239 218 253 q 177 204 186 225 q 168 155 168 183 q 178 110 168 129 q 207 80 189 92 q 249 62 225 68 q 299 56 273 56 m 262 542 q 291 570 275 554 q 320 603 306 586 q 347 635 334 620 q 368 663 360 651 q 374 659 370 663 q 384 648 378 654 q 393 631 389 641 q 401 611 398 622 q 363 562 385 588 q 318 514 340 536 q 277 478 296 492 q 252 463 259 463 q 235 471 246 463 q 211 490 224 478 q 182 517 197 502 q 153 546 167 532 q 126 574 138 561 q 106 595 114 587 q 112 620 108 608 q 121 641 116 631 q 131 656 126 650 q 138 662 136 662 q 201 594 169 627 q 262 542 233 562 z "},"ۈ":{"ha":585,"x_min":-14,"x_max":530,"o":"m 294 356 q 365 341 330 356 q 426 295 399 326 q 472 216 454 264 q 494 101 490 168 q 510 111 502 106 q 524 122 517 116 q 530 83 530 106 q 528 53 530 67 q 524 31 526 39 q 509 22 516 26 q 492 14 501 18 q 452 -135 484 -63 q 362 -269 419 -208 q 223 -378 304 -331 q 37 -452 142 -425 q 21 -435 29 -446 q 6 -413 13 -425 q -6 -388 -1 -401 q -14 -361 -11 -374 q 142 -313 72 -344 q 266 -238 213 -281 q 352 -138 319 -194 q 397 -16 386 -83 q 337 -26 366 -23 q 285 -29 308 -29 q 205 -19 243 -29 q 139 11 168 -9 q 94 64 111 32 q 77 140 77 96 q 96 232 77 192 q 144 300 114 273 q 213 342 174 328 q 294 356 252 356 m 299 56 q 345 59 317 56 q 402 68 372 62 q 394 147 401 111 q 372 210 387 183 q 335 251 357 236 q 279 266 312 266 q 238 259 258 266 q 202 239 218 253 q 177 204 186 225 q 168 155 168 183 q 178 110 168 129 q 207 80 189 92 q 249 62 225 68 q 299 56 273 56 m 222 437 l 222 671 l 282 708 l 282 474 l 222 437 z "},"ۉ":{"ha":585,"x_min":-14,"x_max":530,"o":"m 294 356 q 365 341 330 356 q 426 295 399 326 q 472 216 454 264 q 494 101 490 168 q 510 111 502 106 q 524 122 517 116 q 530 83 530 106 q 528 53 530 67 q 524 31 526 39 q 509 22 516 26 q 492 14 501 18 q 452 -135 484 -63 q 362 -269 419 -208 q 223 -378 304 -331 q 37 -452 142 -425 q 21 -435 29 -446 q 6 -413 13 -425 q -6 -388 -1 -401 q -14 -361 -11 -374 q 142 -313 72 -344 q 266 -238 213 -281 q 352 -138 319 -194 q 397 -16 386 -83 q 337 -26 366 -23 q 285 -29 308 -29 q 205 -19 243 -29 q 139 11 168 -9 q 94 64 111 32 q 77 140 77 96 q 96 232 77 192 q 144 300 114 273 q 213 342 174 328 q 294 356 252 356 m 299 56 q 345 59 317 56 q 402 68 372 62 q 394 147 401 111 q 372 210 387 183 q 335 251 357 236 q 279 266 312 266 q 238 259 258 266 q 202 239 218 253 q 177 204 186 225 q 168 155 168 183 q 178 110 168 129 q 207 80 189 92 q 249 62 225 68 q 299 56 273 56 m 259 575 q 230 547 245 563 q 201 514 215 531 q 174 481 186 497 q 153 454 161 466 q 147 458 151 454 q 137 469 142 463 q 127 486 132 476 q 119 506 122 495 q 158 555 136 529 q 203 603 180 581 q 243 639 225 625 q 269 654 262 654 q 286 646 275 654 q 310 627 296 639 q 339 600 323 615 q 368 571 354 585 q 395 543 382 556 q 414 522 407 530 q 409 497 413 509 q 400 476 405 486 q 390 461 395 467 q 383 455 385 455 q 320 523 352 490 q 259 575 288 555 z "},"ۊ":{"ha":585,"x_min":-14,"x_max":530,"o":"m 294 356 q 365 341 330 356 q 426 295 399 326 q 472 216 454 264 q 494 101 490 168 q 510 111 502 106 q 524 122 517 116 q 530 83 530 106 q 528 53 530 67 q 524 31 526 39 q 509 22 516 26 q 492 14 501 18 q 452 -135 484 -63 q 362 -269 419 -208 q 223 -378 304 -331 q 37 -452 142 -425 q 21 -435 29 -446 q 6 -413 13 -425 q -6 -388 -1 -401 q -14 -361 -11 -374 q 142 -313 72 -344 q 266 -238 213 -281 q 352 -138 319 -194 q 397 -16 386 -83 q 337 -26 366 -23 q 285 -29 308 -29 q 205 -19 243 -29 q 139 11 168 -9 q 94 64 111 32 q 77 140 77 96 q 96 232 77 192 q 144 300 114 273 q 213 342 174 328 q 294 356 252 356 m 299 56 q 345 59 317 56 q 402 68 372 62 q 394 147 401 111 q 372 210 387 183 q 335 251 357 236 q 279 266 312 266 q 238 259 258 266 q 202 239 218 253 q 177 204 186 225 q 168 155 168 183 q 178 110 168 129 q 207 80 189 92 q 249 62 225 68 q 299 56 273 56 m 248 555 l 315 630 l 412 553 q 360 493 383 514 q 330 469 337 472 q 256 529 281 505 q 211 478 231 496 q 184 458 191 460 q 124 505 147 484 q 96 536 100 526 l 169 618 l 248 555 z "},"ۋ":{"ha":585,"x_min":-14,"x_max":530,"o":"m 294 356 q 365 341 330 356 q 426 295 399 326 q 472 216 454 264 q 494 101 490 168 q 510 111 502 106 q 524 122 517 116 q 530 83 530 106 q 528 53 530 67 q 524 31 526 39 q 509 22 516 26 q 492 14 501 18 q 452 -135 484 -63 q 362 -269 419 -208 q 223 -378 304 -331 q 37 -452 142 -425 q 21 -435 29 -446 q 6 -413 13 -425 q -6 -388 -1 -401 q -14 -361 -11 -374 q 142 -313 72 -344 q 266 -238 213 -281 q 352 -138 319 -194 q 397 -16 386 -83 q 337 -26 366 -23 q 285 -29 308 -29 q 205 -19 243 -29 q 139 11 168 -9 q 94 64 111 32 q 77 140 77 96 q 96 232 77 192 q 144 300 114 273 q 213 342 174 328 q 294 356 252 356 m 299 56 q 345 59 317 56 q 402 68 372 62 q 394 147 401 111 q 372 210 387 183 q 335 251 357 236 q 279 266 312 266 q 238 259 258 266 q 202 239 218 253 q 177 204 186 225 q 168 155 168 183 q 178 110 168 129 q 207 80 189 92 q 249 62 225 68 q 299 56 273 56 m 251 540 l 314 618 l 411 539 q 363 480 382 500 q 336 456 343 459 q 290 492 310 475 q 259 519 271 508 q 215 466 233 485 q 190 444 197 448 q 130 492 153 471 q 101 524 106 513 l 168 606 l 251 540 m 316 696 q 268 636 288 658 q 241 613 248 615 q 181 661 204 640 q 152 692 157 682 l 219 774 l 316 696 z "},"ۏ":{"ha":585,"x_min":-14,"x_max":530,"o":"m 294 356 q 365 341 330 356 q 426 295 399 326 q 472 216 454 264 q 494 101 490 168 q 510 111 502 106 q 524 122 517 116 q 530 83 530 106 q 528 53 530 67 q 524 31 526 39 q 509 22 516 26 q 492 14 501 18 q 452 -135 484 -63 q 362 -269 419 -208 q 223 -378 304 -331 q 37 -452 142 -425 q 21 -435 29 -446 q 6 -413 13 -425 q -6 -388 -1 -401 q -14 -361 -11 -374 q 142 -313 72 -344 q 266 -238 213 -281 q 352 -138 319 -194 q 397 -16 386 -83 q 337 -26 366 -23 q 285 -29 308 -29 q 205 -19 243 -29 q 139 11 168 -9 q 94 64 111 32 q 77 140 77 96 q 96 232 77 192 q 144 300 114 273 q 213 342 174 328 q 294 356 252 356 m 299 56 q 345 59 317 56 q 402 68 372 62 q 394 147 401 111 q 372 210 387 183 q 335 251 357 236 q 279 266 312 266 q 238 259 258 266 q 202 239 218 253 q 177 204 186 225 q 168 155 168 183 q 178 110 168 129 q 207 80 189 92 q 249 62 225 68 q 299 56 273 56 m 343 547 q 293 484 313 507 q 264 459 272 462 q 200 509 225 487 q 171 542 176 532 l 241 629 l 343 547 z "},"د":{"ha":530,"x_min":50,"x_max":493,"o":"m 456 50 q 367 1 420 19 q 248 -17 314 -17 q 192 -12 219 -17 q 139 1 164 -7 q 91 20 113 9 q 50 43 68 31 q 52 68 50 54 q 56 96 54 82 q 63 122 59 110 q 71 139 66 134 q 117 112 92 123 q 167 92 142 100 q 214 79 192 83 q 253 75 237 75 q 343 86 309 75 q 392 109 376 98 q 318 179 349 144 q 264 247 288 213 q 225 315 241 281 q 195 385 208 349 q 211 412 201 399 q 233 436 221 425 q 258 456 245 448 q 284 470 271 465 q 320 374 298 422 q 369 281 342 326 q 429 199 397 237 q 493 134 460 161 q 479 89 490 112 q 456 50 468 65 z "},"ذ":{"ha":530,"x_min":50,"x_max":493,"o":"m 456 50 q 367 1 420 19 q 248 -17 314 -17 q 192 -12 219 -17 q 139 1 164 -7 q 91 20 113 9 q 50 43 68 31 q 52 68 50 54 q 56 96 54 82 q 63 122 59 110 q 71 139 66 134 q 117 112 92 123 q 167 92 142 100 q 214 79 192 83 q 253 75 237 75 q 343 86 309 75 q 392 109 376 98 q 318 179 349 144 q 264 247 288 213 q 225 315 241 281 q 195 385 208 349 q 211 412 201 399 q 233 436 221 425 q 258 456 245 448 q 284 470 271 465 q 320 374 298 422 q 369 281 342 326 q 429 199 397 237 q 493 134 460 161 q 479 89 490 112 q 456 50 468 65 m 268 590 q 217 527 238 549 q 189 502 197 505 q 125 552 150 530 q 96 585 100 574 l 165 671 l 268 590 z "},"ډ":{"ha":530,"x_min":50,"x_max":493,"o":"m 456 50 q 401 15 432 30 q 331 -8 370 -1 q 359 -48 349 -25 q 368 -94 368 -71 q 361 -135 368 -115 q 339 -171 354 -155 q 302 -196 324 -186 q 250 -205 280 -205 q 199 -196 221 -205 q 162 -171 177 -186 q 141 -136 148 -156 q 134 -96 134 -117 q 143 -48 134 -71 q 172 -8 153 -25 q 105 13 136 -1 q 50 43 74 26 q 52 68 50 54 q 56 96 54 82 q 63 122 59 110 q 71 139 66 134 q 117 112 92 123 q 167 92 142 100 q 214 79 192 83 q 253 75 237 75 q 343 86 309 75 q 392 109 376 98 q 318 179 349 144 q 264 247 288 213 q 225 315 241 281 q 195 385 208 349 q 211 412 201 399 q 233 436 221 425 q 258 456 245 448 q 284 470 271 465 q 320 374 298 422 q 369 281 342 326 q 429 199 397 237 q 493 134 460 161 q 479 89 490 112 q 456 50 468 65 m 252 -151 q 297 -133 282 -151 q 311 -94 311 -116 q 307 -72 311 -83 q 295 -52 303 -60 q 276 -38 288 -43 q 250 -33 265 -33 q 205 -51 220 -33 q 191 -92 191 -70 q 194 -114 191 -103 q 205 -132 198 -124 q 224 -145 213 -140 q 252 -151 236 -151 z "},"ڊ":{"ha":530,"x_min":50,"x_max":493,"o":"m 456 50 q 367 1 420 19 q 248 -17 314 -17 q 192 -12 219 -17 q 139 1 164 -7 q 91 20 113 9 q 50 43 68 31 q 52 68 50 54 q 56 96 54 82 q 63 122 59 110 q 71 139 66 134 q 117 112 92 123 q 167 92 142 100 q 214 79 192 83 q 253 75 237 75 q 343 86 309 75 q 392 109 376 98 q 318 179 349 144 q 264 247 288 213 q 225 315 241 281 q 195 385 208 349 q 211 412 201 399 q 233 436 221 425 q 258 456 245 448 q 284 470 271 465 q 320 374 298 422 q 369 281 342 326 q 429 199 397 237 q 493 134 460 161 q 479 89 490 112 q 456 50 468 65 m 351 -157 q 300 -220 321 -197 q 271 -245 279 -242 q 208 -195 233 -217 q 178 -162 183 -172 l 248 -75 l 351 -157 z "},"ڋ":{"ha":530,"x_min":-6,"x_max":493,"o":"m 456 50 q 367 1 420 19 q 248 -17 314 -17 q 192 -12 219 -17 q 139 1 164 -7 q 91 20 113 9 q 50 43 68 31 q 52 68 50 54 q 56 96 54 82 q 63 122 59 110 q 71 139 66 134 q 117 112 92 123 q 167 92 142 100 q 214 79 192 83 q 253 75 237 75 q 343 86 309 75 q 392 109 376 98 q 318 179 349 144 q 264 247 288 213 q 225 315 241 281 q 195 385 208 349 q 211 412 201 399 q 233 436 221 425 q 258 456 245 448 q 284 470 271 465 q 320 374 298 422 q 369 281 342 326 q 429 199 397 237 q 493 134 460 161 q 479 89 490 112 q 456 50 468 65 m 10 492 q -1 519 3 505 q -6 549 -5 534 q 3 549 -3 549 q 16 548 9 549 q 28 548 22 548 q 36 547 34 547 q 48 559 42 553 q 62 572 55 565 q 58 701 62 652 q 54 768 54 749 q 64 781 56 774 q 80 794 71 788 q 97 805 88 800 q 111 810 105 809 q 114 794 113 804 q 116 771 116 784 q 114 688 116 729 q 110 618 111 647 q 161 654 134 639 q 220 669 189 669 q 279 649 256 669 q 302 596 302 628 q 294 553 302 574 q 268 516 285 532 q 226 491 251 500 q 170 481 201 481 q 83 487 123 481 q 10 492 43 492 m 247 585 q 239 608 247 599 q 215 616 231 616 q 183 609 199 616 q 150 591 166 602 q 119 565 134 579 q 94 538 104 551 q 127 536 107 537 q 171 534 147 534 q 201 539 187 534 q 225 550 215 543 q 241 567 235 557 q 247 585 247 576 m 351 -157 q 300 -220 321 -197 q 271 -245 279 -242 q 208 -195 233 -217 q 178 -162 183 -172 l 248 -75 l 351 -157 z "},"ڌ":{"ha":530,"x_min":20,"x_max":493,"o":"m 456 50 q 367 1 420 19 q 248 -17 314 -17 q 192 -12 219 -17 q 139 1 164 -7 q 91 20 113 9 q 50 43 68 31 q 52 68 50 54 q 56 96 54 82 q 63 122 59 110 q 71 139 66 134 q 117 112 92 123 q 167 92 142 100 q 214 79 192 83 q 253 75 237 75 q 343 86 309 75 q 392 109 376 98 q 318 179 349 144 q 264 247 288 213 q 225 315 241 281 q 195 385 208 349 q 211 412 201 399 q 233 436 221 425 q 258 456 245 448 q 284 470 271 465 q 320 374 298 422 q 369 281 342 326 q 429 199 397 237 q 493 134 460 161 q 479 89 490 112 q 456 50 468 65 m 173 597 l 239 673 l 336 595 q 285 536 308 557 q 254 512 262 515 q 181 572 205 547 q 136 521 156 539 q 109 500 116 503 q 48 548 72 526 q 20 579 25 569 l 94 661 l 173 597 z "},"ڍ":{"ha":530,"x_min":50,"x_max":493,"o":"m 456 50 q 367 1 420 19 q 248 -17 314 -17 q 192 -12 219 -17 q 139 1 164 -7 q 91 20 113 9 q 50 43 68 31 q 52 68 50 54 q 56 96 54 82 q 63 122 59 110 q 71 139 66 134 q 117 112 92 123 q 167 92 142 100 q 214 79 192 83 q 253 75 237 75 q 343 86 309 75 q 392 109 376 98 q 318 179 349 144 q 264 247 288 213 q 225 315 241 281 q 195 385 208 349 q 211 412 201 399 q 233 436 221 425 q 258 456 245 448 q 284 470 271 465 q 320 374 298 422 q 369 281 342 326 q 429 199 397 237 q 493 134 460 161 q 479 89 490 112 q 456 50 468 65 m 250 -150 l 316 -75 l 413 -152 q 361 -212 385 -191 q 331 -235 338 -233 q 258 -176 282 -200 q 213 -227 233 -208 q 185 -247 193 -245 q 125 -200 149 -221 q 97 -168 102 -178 l 170 -86 l 250 -150 z "},"ڎ":{"ha":530,"x_min":26,"x_max":493,"o":"m 456 50 q 367 1 420 19 q 248 -17 314 -17 q 192 -12 219 -17 q 139 1 164 -7 q 91 20 113 9 q 50 43 68 31 q 52 68 50 54 q 56 96 54 82 q 63 122 59 110 q 71 139 66 134 q 117 112 92 123 q 167 92 142 100 q 214 79 192 83 q 253 75 237 75 q 343 86 309 75 q 392 109 376 98 q 318 179 349 144 q 264 247 288 213 q 225 315 241 281 q 195 385 208 349 q 211 412 201 399 q 233 436 221 425 q 258 456 245 448 q 284 470 271 465 q 320 374 298 422 q 369 281 342 326 q 429 199 397 237 q 493 134 460 161 q 479 89 490 112 q 456 50 468 65 m 176 583 l 239 661 l 336 582 q 288 523 307 543 q 260 499 268 502 q 215 534 235 518 q 184 562 195 551 q 140 509 158 528 q 115 487 121 490 q 55 534 78 513 q 26 566 31 555 l 93 648 l 176 583 m 241 739 q 193 679 212 701 q 165 656 173 658 q 105 704 129 682 q 77 734 82 725 l 144 817 l 241 739 z "},"ڏ":{"ha":530,"x_min":-4,"x_max":493,"o":"m 456 50 q 367 1 420 19 q 248 -17 314 -17 q 192 -12 219 -17 q 139 1 164 -7 q 91 20 113 9 q 50 43 68 31 q 52 68 50 54 q 56 96 54 82 q 63 122 59 110 q 71 139 66 134 q 117 112 92 123 q 167 92 142 100 q 214 79 192 83 q 253 75 237 75 q 343 86 309 75 q 392 109 376 98 q 318 179 349 144 q 264 247 288 213 q 225 315 241 281 q 195 385 208 349 q 211 412 201 399 q 233 436 221 425 q 258 456 245 448 q 284 470 271 465 q 320 374 298 422 q 369 281 342 326 q 429 199 397 237 q 493 134 460 161 q 479 89 490 112 q 456 50 468 65 m 239 665 l 157 731 l 93 652 l -4 730 q 44 790 24 769 q 71 813 64 810 q 148 750 125 776 q 192 804 174 785 q 217 826 210 823 q 277 778 254 800 q 305 747 300 757 l 239 665 m 187 496 l 91 574 q 139 633 119 612 q 166 657 159 654 q 226 609 203 631 q 254 578 250 588 l 187 496 z "},"ۮ":{"ha":530,"x_min":32,"x_max":493,"o":"m 456 50 q 367 1 420 19 q 248 -17 314 -17 q 192 -12 219 -17 q 139 1 164 -7 q 91 20 113 9 q 50 43 68 31 q 52 68 50 54 q 56 96 54 82 q 63 122 59 110 q 71 139 66 134 q 117 112 92 123 q 167 92 142 100 q 214 79 192 83 q 253 75 237 75 q 343 86 309 75 q 392 109 376 98 q 318 179 349 144 q 264 247 288 213 q 225 315 241 281 q 195 385 208 349 q 211 412 201 399 q 233 436 221 425 q 258 456 245 448 q 284 470 271 465 q 320 374 298 422 q 369 281 342 326 q 429 199 397 237 q 493 134 460 161 q 479 89 490 112 q 456 50 468 65 m 172 618 q 143 590 158 606 q 113 557 127 574 q 86 524 99 540 q 65 497 73 509 q 59 501 64 497 q 50 512 55 505 q 40 528 45 519 q 32 549 35 538 q 71 597 48 572 q 115 645 93 623 q 156 682 138 667 q 182 696 174 696 q 198 689 187 696 q 222 670 209 682 q 251 643 236 658 q 281 613 267 628 q 307 586 295 599 q 327 565 319 573 q 321 540 326 552 q 312 519 317 528 q 302 504 307 509 q 296 498 298 498 q 232 565 264 532 q 172 618 200 598 z "},"ݚ":{"ha":530,"x_min":50,"x_max":493,"o":"m 456 50 q 367 1 420 19 q 248 -17 314 -17 q 192 -12 219 -17 q 139 1 164 -7 q 91 20 113 9 q 50 43 68 31 q 52 68 50 54 q 56 96 54 82 q 63 122 59 110 q 71 139 66 134 q 117 112 92 123 q 167 92 142 100 q 214 79 192 83 q 253 75 237 75 q 343 86 309 75 q 392 109 376 98 q 318 179 349 144 q 264 247 288 213 q 225 315 241 281 q 195 385 208 349 q 211 412 201 399 q 233 436 221 425 q 258 456 245 448 q 284 470 271 465 q 320 374 298 422 q 369 281 342 326 q 429 199 397 237 q 493 134 460 161 q 479 89 490 112 q 456 50 468 65 m 251 -157 q 222 -185 237 -169 q 193 -218 207 -201 q 165 -250 178 -235 q 144 -277 153 -266 q 139 -273 143 -277 q 129 -262 134 -269 q 119 -246 124 -256 q 111 -226 114 -237 q 150 -177 127 -203 q 195 -129 172 -151 q 235 -93 217 -107 q 261 -78 254 -78 q 277 -85 267 -78 q 302 -105 288 -93 q 331 -132 315 -117 q 360 -161 346 -146 q 387 -189 374 -176 q 406 -210 399 -201 q 401 -234 405 -222 q 392 -256 397 -246 q 382 -271 387 -265 q 375 -277 377 -277 q 312 -209 344 -242 q 251 -157 279 -176 z "},"ࢮ":{"ha":530,"x_min":50,"x_max":493,"o":"m 456 50 q 367 1 420 19 q 248 -17 314 -17 q 192 -12 219 -17 q 139 1 164 -7 q 91 20 113 9 q 50 43 68 31 q 52 68 50 54 q 56 96 54 82 q 63 122 59 110 q 71 139 66 134 q 117 112 92 123 q 167 92 142 100 q 214 79 192 83 q 253 75 237 75 q 343 86 309 75 q 392 109 376 98 q 318 179 349 144 q 264 247 288 213 q 225 315 241 281 q 195 385 208 349 q 211 412 201 399 q 233 436 221 425 q 258 456 245 448 q 284 470 271 465 q 320 374 298 422 q 369 281 342 326 q 429 199 397 237 q 493 134 460 161 q 479 89 490 112 q 456 50 468 65 m 340 -231 l 258 -165 l 194 -243 l 97 -165 q 145 -106 125 -127 q 172 -83 165 -85 q 249 -146 226 -120 q 293 -92 275 -111 q 318 -70 311 -73 q 378 -118 355 -96 q 406 -149 401 -139 l 340 -231 m 288 -400 l 192 -322 q 240 -262 220 -283 q 267 -239 260 -241 q 327 -287 304 -265 q 355 -318 351 -308 l 288 -400 z "},"ر":{"ha":360,"x_min":-52,"x_max":314,"o":"m 286 272 q 308 145 301 209 q 314 18 314 82 q 299 -123 314 -54 q 249 -253 285 -192 q 152 -365 213 -314 q -1 -452 92 -415 q -37 -411 -24 -434 q -52 -366 -50 -388 q 83 -297 31 -338 q 166 -207 136 -256 q 208 -101 196 -157 q 219 14 219 -45 q 214 131 219 72 q 197 248 208 190 l 286 272 z "},"ز":{"ha":360,"x_min":-52,"x_max":314,"o":"m 286 272 q 308 145 301 209 q 314 18 314 82 q 299 -123 314 -54 q 249 -253 285 -192 q 152 -365 213 -314 q -1 -452 92 -415 q -37 -411 -24 -434 q -52 -366 -50 -388 q 83 -297 31 -338 q 166 -207 136 -256 q 208 -101 196 -157 q 219 14 219 -45 q 214 131 219 72 q 197 248 208 190 l 286 272 m 294 420 q 243 357 264 379 q 214 332 222 334 q 151 382 176 359 q 121 414 126 404 l 191 501 l 294 420 z "},"ڒ":{"ha":383,"x_min":-52,"x_max":352,"o":"m 286 272 q 308 145 301 209 q 314 18 314 82 q 299 -123 314 -54 q 249 -253 285 -192 q 152 -365 213 -314 q -1 -452 92 -415 q -37 -411 -24 -434 q -52 -366 -50 -388 q 83 -297 31 -338 q 166 -207 136 -256 q 208 -101 196 -157 q 219 14 219 -45 q 214 131 219 72 q 197 248 208 190 l 286 272 m 212 414 q 241 443 226 427 q 271 475 256 458 q 298 508 285 492 q 319 535 311 524 q 325 531 320 535 q 334 520 329 527 q 344 504 339 513 q 352 484 349 494 q 313 435 336 460 q 269 387 291 409 q 228 350 246 365 q 202 336 210 336 q 186 343 197 336 q 161 362 175 351 q 133 389 148 374 q 103 419 117 404 q 77 446 89 433 q 57 467 64 459 q 62 492 58 480 q 72 513 66 504 q 81 529 77 523 q 88 534 86 534 q 152 467 119 500 q 212 414 184 434 z "},"ڔ":{"ha":364,"x_min":-52,"x_max":314,"o":"m 286 272 q 308 145 301 209 q 314 18 314 82 q 299 -123 314 -54 q 249 -253 285 -192 q 152 -365 213 -314 q -1 -452 92 -415 q -37 -411 -24 -434 q -52 -366 -50 -388 q 83 -297 31 -338 q 166 -207 136 -256 q 208 -101 196 -157 q 219 14 219 -45 q 214 131 219 72 q 197 248 208 190 l 286 272 m 304 -518 q 253 -581 274 -559 q 224 -606 233 -604 q 161 -556 186 -578 q 132 -524 136 -534 l 201 -437 l 304 -518 z "},"ڕ":{"ha":376,"x_min":-52,"x_max":362,"o":"m 286 272 q 308 145 301 209 q 314 18 314 82 q 299 -123 314 -54 q 249 -253 285 -192 q 152 -365 213 -314 q -1 -452 92 -415 q -37 -411 -24 -434 q -52 -366 -50 -388 q 83 -297 31 -338 q 166 -207 136 -256 q 208 -101 196 -157 q 219 14 219 -45 q 214 131 219 72 q 197 248 208 190 l 286 272 m 222 -548 q 251 -520 236 -536 q 281 -487 267 -504 q 308 -454 295 -470 q 329 -427 321 -439 q 335 -431 330 -427 q 344 -442 339 -435 q 354 -458 349 -449 q 362 -479 359 -468 q 323 -528 346 -502 q 279 -575 301 -553 q 238 -612 256 -597 q 212 -627 220 -627 q 196 -619 207 -627 q 172 -600 185 -612 q 143 -573 158 -588 q 113 -544 127 -558 q 87 -516 99 -529 q 67 -495 75 -503 q 73 -470 68 -482 q 82 -449 77 -458 q 92 -434 87 -439 q 98 -428 96 -428 q 162 -495 130 -463 q 222 -548 194 -528 z "},"ڗ":{"ha":372,"x_min":-52,"x_max":362,"o":"m 286 272 q 308 145 301 209 q 314 18 314 82 q 299 -123 314 -54 q 249 -253 285 -192 q 152 -365 213 -314 q -1 -452 92 -415 q -37 -411 -24 -434 q -52 -366 -50 -388 q 83 -297 31 -338 q 166 -207 136 -256 q 208 -101 196 -157 q 219 14 219 -45 q 214 131 219 72 q 197 248 208 190 l 286 272 m 199 427 l 265 503 l 362 425 q 311 366 334 387 q 280 342 288 345 q 207 401 231 377 q 162 351 182 369 q 134 330 142 332 q 74 377 98 356 q 46 409 51 399 l 119 491 l 199 427 z "},"ژ":{"ha":372,"x_min":-52,"x_max":361,"o":"m 286 272 q 308 145 301 209 q 314 18 314 82 q 299 -123 314 -54 q 249 -253 285 -192 q 152 -365 213 -314 q -1 -452 92 -415 q -37 -411 -24 -434 q -52 -366 -50 -388 q 83 -297 31 -338 q 166 -207 136 -256 q 208 -101 196 -157 q 219 14 219 -45 q 214 131 219 72 q 197 248 208 190 l 286 272 m 201 412 l 264 490 l 361 412 q 313 352 333 373 q 286 329 294 332 q 241 364 260 348 q 210 392 221 380 q 165 339 184 357 q 140 317 147 320 q 80 364 104 343 q 52 396 57 385 l 119 478 l 201 412 m 267 569 q 218 509 238 530 q 191 486 199 488 q 131 533 155 512 q 102 564 108 555 l 170 647 l 267 569 z "},"ݫ":{"ha":372,"x_min":-52,"x_max":314,"o":"m 286 272 q 308 145 301 209 q 314 18 314 82 q 299 -123 314 -54 q 249 -253 285 -192 q 152 -365 213 -314 q -1 -452 92 -415 q -37 -411 -24 -434 q -52 -366 -50 -388 q 83 -297 31 -338 q 166 -207 136 -256 q 208 -101 196 -157 q 219 14 219 -45 q 214 131 219 72 q 197 248 208 190 l 286 272 m 270 570 q 205 494 227 513 l 290 426 q 242 366 262 387 q 215 342 222 345 q 155 390 178 369 q 126 421 131 412 l 185 494 q 132 537 153 518 q 106 566 112 556 l 173 648 l 270 570 z "},"ࢲ":{"ha":372,"x_min":-52,"x_max":349,"o":"m 286 272 q 308 145 301 209 q 314 18 314 82 q 299 -123 314 -54 q 249 -253 285 -192 q 152 -365 213 -314 q -1 -452 92 -415 q -37 -411 -24 -434 q -52 -366 -50 -388 q 83 -297 31 -338 q 166 -207 136 -256 q 208 -101 196 -157 q 219 14 219 -45 q 214 131 219 72 q 197 248 208 190 l 286 272 m 279 406 q 254 376 267 390 q 231 353 242 363 q 213 338 220 344 q 201 331 205 332 q 151 371 171 353 q 127 397 131 389 l 197 471 l 279 406 m 194 595 q 165 567 180 583 q 136 534 150 551 q 109 501 121 517 q 87 474 96 486 q 82 478 86 474 q 72 489 77 482 q 62 505 67 496 q 54 526 57 515 q 93 574 71 549 q 138 622 115 600 q 178 659 160 644 q 204 673 197 673 q 220 666 210 673 q 245 647 231 659 q 274 620 258 635 q 303 590 289 605 q 330 563 317 576 q 349 542 342 550 q 344 517 348 529 q 335 496 340 505 q 325 480 330 486 q 318 475 320 475 q 255 542 287 509 q 194 595 222 575 z "},"ۯ":{"ha":368,"x_min":-52,"x_max":353,"o":"m 286 272 q 308 145 301 209 q 314 18 314 82 q 299 -123 314 -54 q 249 -253 285 -192 q 152 -365 213 -314 q -1 -452 92 -415 q -37 -411 -24 -434 q -52 -366 -50 -388 q 83 -297 31 -338 q 166 -207 136 -256 q 208 -101 196 -157 q 219 14 219 -45 q 214 131 219 72 q 197 248 208 190 l 286 272 m 197 448 q 169 419 184 435 q 139 387 153 404 q 112 354 125 370 q 91 327 99 338 q 85 331 90 327 q 76 342 81 335 q 65 358 71 349 q 58 378 60 368 q 96 427 74 401 q 141 475 119 453 q 182 512 163 497 q 208 526 200 526 q 224 519 213 526 q 248 499 235 511 q 277 473 262 488 q 307 443 292 458 q 333 416 321 429 q 353 395 345 403 q 347 370 351 382 q 338 349 343 358 q 328 333 333 339 q 321 328 323 328 q 258 395 290 362 q 197 448 226 428 z "},"ݛ":{"ha":430,"x_min":-52,"x_max":437,"o":"m 437 -16 q 436 -32 437 -22 q 435 -54 436 -42 q 432 -77 434 -65 q 427 -100 430 -90 q 374 -121 410 -109 q 293 -146 338 -134 q 256 -238 279 -194 q 198 -321 233 -282 q 114 -393 163 -360 q -1 -452 64 -426 q -37 -411 -24 -434 q -52 -366 -50 -388 q 34 -329 -4 -349 q 100 -283 71 -308 q 149 -231 129 -259 q 184 -174 170 -203 q 122 -186 153 -180 q 64 -196 92 -192 q 65 -183 64 -191 q 66 -165 65 -174 q 67 -149 66 -157 q 70 -138 68 -142 q 139 -121 104 -130 q 208 -100 173 -111 q 216 -44 214 -73 q 219 14 219 -16 q 214 131 219 72 q 197 248 208 190 l 286 272 q 308 145 301 209 q 314 18 314 82 q 313 -24 314 -3 q 309 -66 311 -45 q 437 -16 376 -42 z "},"ے":{"ha":823,"x_min":43,"x_max":806,"o":"m 730 1 q 661 -3 694 -2 q 592 -6 627 -5 q 515 -7 556 -7 q 421 -7 474 -7 q 269 2 338 -7 q 150 29 200 10 q 72 79 100 48 q 43 155 43 110 q 55 212 43 189 q 85 252 66 235 q 130 283 104 269 q 185 312 156 296 q 245 349 214 328 q 306 401 276 370 q 347 456 329 426 q 387 511 366 486 q 438 554 409 536 q 513 571 468 571 q 571 556 546 571 q 614 516 597 541 q 639 461 631 492 q 648 402 648 431 q 615 379 637 389 q 564 368 592 369 q 562 407 564 387 q 553 443 559 427 q 533 468 546 458 q 500 478 521 478 q 458 464 475 478 q 427 429 441 450 q 400 384 413 408 q 368 338 387 359 q 325 300 349 316 q 274 273 300 285 q 223 250 248 260 q 178 227 198 239 q 147 198 159 214 q 135 159 135 182 q 148 130 135 144 q 194 104 161 115 q 285 86 227 93 q 433 79 342 79 q 582 82 520 79 q 686 90 643 85 q 756 100 728 94 q 806 113 785 106 q 793 79 802 97 q 772 44 784 60 q 749 16 761 28 q 730 1 738 4 z "},"ئ":{"ha":975,"x_min":26,"x_max":971,"o":"m 971 460 q 965 434 970 448 q 955 407 961 420 q 943 382 949 393 q 930 366 937 371 q 872 395 902 386 q 811 404 842 404 q 733 388 770 404 q 667 344 696 372 q 622 280 639 317 q 605 202 605 243 q 620 170 605 182 q 658 150 634 157 q 713 138 682 142 q 775 131 743 134 q 837 124 806 127 q 891 116 867 121 q 930 101 916 110 q 945 76 945 92 q 929 3 945 41 q 884 -71 914 -35 q 808 -141 854 -108 q 702 -199 763 -174 q 566 -239 642 -224 q 399 -254 490 -254 q 262 -238 329 -254 q 142 -193 195 -222 q 58 -121 90 -163 q 26 -25 26 -79 q 28 7 26 -12 q 37 51 30 26 q 60 103 45 75 q 103 162 76 131 l 153 127 q 133 89 140 107 q 121 56 125 71 q 116 29 117 41 q 115 9 115 18 q 140 -61 115 -29 q 208 -114 165 -92 q 308 -149 251 -136 q 428 -161 364 -161 q 551 -150 495 -161 q 653 -121 608 -138 q 731 -83 698 -104 q 787 -41 765 -62 q 821 -3 810 -20 q 832 24 832 14 q 808 33 832 31 q 747 38 784 35 q 669 49 711 41 q 590 74 627 57 q 529 121 553 92 q 505 199 505 151 q 515 264 505 231 q 545 331 526 298 q 592 393 564 364 q 656 445 621 422 q 736 480 692 467 q 831 493 781 493 q 867 491 848 493 q 904 484 886 488 q 940 474 923 480 q 971 460 958 468 m 783 722 q 773 706 779 714 q 759 691 766 698 q 746 680 752 684 q 736 673 739 675 q 706 692 725 686 q 669 699 688 699 q 635 692 649 699 q 621 671 621 685 q 627 656 621 664 q 651 639 634 648 q 695 619 667 630 q 766 595 724 608 q 762 580 764 588 q 757 565 760 572 q 751 552 754 557 q 746 547 749 547 q 640 530 682 542 q 582 513 597 519 q 560 536 569 521 q 548 561 551 551 q 590 571 564 566 q 653 581 617 576 q 582 621 604 601 q 559 673 559 641 q 567 705 559 689 q 591 732 575 720 q 629 750 606 743 q 680 758 652 758 q 742 747 716 758 q 783 722 767 737 z "},"ي":{"ha":975,"x_min":26,"x_max":971,"o":"m 971 460 q 965 434 970 448 q 955 407 961 420 q 943 382 949 393 q 930 366 937 371 q 872 395 902 386 q 811 404 842 404 q 733 388 770 404 q 667 344 696 372 q 622 280 639 317 q 605 202 605 243 q 620 170 605 182 q 658 150 634 157 q 713 138 682 142 q 775 131 743 134 q 837 124 806 127 q 891 116 867 121 q 930 101 916 110 q 945 76 945 92 q 929 3 945 41 q 884 -71 914 -35 q 808 -141 854 -108 q 702 -199 763 -174 q 566 -239 642 -224 q 399 -254 490 -254 q 262 -238 329 -254 q 142 -193 195 -222 q 58 -121 90 -163 q 26 -25 26 -79 q 28 7 26 -12 q 37 51 30 26 q 60 103 45 75 q 103 162 76 131 l 153 127 q 133 89 140 107 q 121 56 125 71 q 116 29 117 41 q 115 9 115 18 q 140 -61 115 -29 q 208 -114 165 -92 q 308 -149 251 -136 q 428 -161 364 -161 q 551 -150 495 -161 q 653 -121 608 -138 q 731 -83 698 -104 q 787 -41 765 -62 q 821 -3 810 -20 q 832 24 832 14 q 808 33 832 31 q 747 38 784 35 q 669 49 711 41 q 590 74 627 57 q 529 121 553 92 q 505 199 505 151 q 515 264 505 231 q 545 331 526 298 q 592 393 564 364 q 656 445 621 422 q 736 480 692 467 q 831 493 781 493 q 867 491 848 493 q 904 484 886 488 q 940 474 923 480 q 971 460 958 468 m 406 -391 l 472 -316 l 569 -393 q 517 -453 541 -432 q 487 -477 494 -474 q 414 -417 438 -441 q 369 -468 389 -450 q 341 -488 349 -486 q 281 -441 304 -463 q 253 -410 258 -420 l 326 -328 l 406 -391 z "},"ی":{"ha":975,"x_min":26,"x_max":971,"o":"m 971 460 q 965 434 970 448 q 955 407 961 420 q 943 382 949 393 q 930 366 937 371 q 872 395 902 386 q 811 404 842 404 q 733 388 770 404 q 667 344 696 372 q 622 280 639 317 q 605 202 605 243 q 620 170 605 182 q 658 150 634 157 q 713 138 682 142 q 775 131 743 134 q 837 124 806 127 q 891 116 867 121 q 930 101 916 110 q 945 76 945 92 q 929 3 945 41 q 884 -71 914 -35 q 808 -141 854 -108 q 702 -199 763 -174 q 566 -239 642 -224 q 399 -254 490 -254 q 262 -238 329 -254 q 142 -193 195 -222 q 58 -121 90 -163 q 26 -25 26 -79 q 28 7 26 -12 q 37 51 30 26 q 60 103 45 75 q 103 162 76 131 l 153 127 q 133 89 140 107 q 121 56 125 71 q 116 29 117 41 q 115 9 115 18 q 140 -61 115 -29 q 208 -114 165 -92 q 308 -149 251 -136 q 428 -161 364 -161 q 551 -150 495 -161 q 653 -121 608 -138 q 731 -83 698 -104 q 787 -41 765 -62 q 821 -3 810 -20 q 832 24 832 14 q 808 33 832 31 q 747 38 784 35 q 669 49 711 41 q 590 74 627 57 q 529 121 553 92 q 505 199 505 151 q 515 264 505 231 q 545 331 526 298 q 592 393 564 364 q 656 445 621 422 q 736 480 692 467 q 831 493 781 493 q 867 491 848 493 q 904 484 886 488 q 940 474 923 480 q 971 460 958 468 z "},"ؽ":{"ha":975,"x_min":26,"x_max":971,"o":"m 971 460 q 965 434 970 448 q 955 407 961 420 q 943 382 949 393 q 930 366 937 371 q 872 395 902 386 q 811 404 842 404 q 733 388 770 404 q 667 344 696 372 q 622 280 639 317 q 605 202 605 243 q 620 170 605 182 q 658 150 634 157 q 713 138 682 142 q 775 131 743 134 q 837 124 806 127 q 891 116 867 121 q 930 101 916 110 q 945 76 945 92 q 929 3 945 41 q 884 -71 914 -35 q 808 -141 854 -108 q 702 -199 763 -174 q 566 -239 642 -224 q 399 -254 490 -254 q 262 -238 329 -254 q 142 -193 195 -222 q 58 -121 90 -163 q 26 -25 26 -79 q 28 7 26 -12 q 37 51 30 26 q 60 103 45 75 q 103 162 76 131 l 153 127 q 133 89 140 107 q 121 56 125 71 q 116 29 117 41 q 115 9 115 18 q 140 -61 115 -29 q 208 -114 165 -92 q 308 -149 251 -136 q 428 -161 364 -161 q 551 -150 495 -161 q 653 -121 608 -138 q 731 -83 698 -104 q 787 -41 765 -62 q 821 -3 810 -20 q 832 24 832 14 q 808 33 832 31 q 747 38 784 35 q 669 49 711 41 q 590 74 627 57 q 529 121 553 92 q 505 199 505 151 q 515 264 505 231 q 545 331 526 298 q 592 393 564 364 q 656 445 621 422 q 736 480 692 467 q 831 493 781 493 q 867 491 848 493 q 904 484 886 488 q 940 474 923 480 q 971 460 958 468 m 657 646 q 628 618 644 634 q 599 585 613 602 q 572 553 585 568 q 551 526 559 537 q 545 530 549 526 q 535 541 541 534 q 525 557 530 547 q 517 577 520 566 q 556 626 534 600 q 601 674 578 652 q 642 710 623 696 q 667 725 660 725 q 684 718 673 725 q 708 698 694 710 q 737 671 722 686 q 766 642 752 656 q 793 614 781 627 q 812 593 805 602 q 807 569 811 581 q 798 547 803 557 q 788 532 793 538 q 781 526 783 526 q 718 594 750 561 q 657 646 686 627 z "},"ؾ":{"ha":975,"x_min":26,"x_max":971,"o":"m 971 460 q 965 434 970 448 q 955 407 961 420 q 943 382 949 393 q 930 366 937 371 q 872 395 902 386 q 811 404 842 404 q 733 388 770 404 q 667 344 696 372 q 622 280 639 317 q 605 202 605 243 q 620 170 605 182 q 658 150 634 157 q 713 138 682 142 q 775 131 743 134 q 837 124 806 127 q 891 116 867 121 q 930 101 916 110 q 945 76 945 92 q 929 3 945 41 q 884 -71 914 -35 q 808 -141 854 -108 q 702 -199 763 -174 q 566 -239 642 -224 q 399 -254 490 -254 q 262 -238 329 -254 q 142 -193 195 -222 q 58 -121 90 -163 q 26 -25 26 -79 q 28 7 26 -12 q 37 51 30 26 q 60 103 45 75 q 103 162 76 131 l 153 127 q 133 89 140 107 q 121 56 125 71 q 116 29 117 41 q 115 9 115 18 q 140 -61 115 -29 q 208 -114 165 -92 q 308 -149 251 -136 q 428 -161 364 -161 q 551 -150 495 -161 q 653 -121 608 -138 q 731 -83 698 -104 q 787 -41 765 -62 q 821 -3 810 -20 q 832 24 832 14 q 808 33 832 31 q 747 38 784 35 q 669 49 711 41 q 590 74 627 57 q 529 121 553 92 q 505 199 505 151 q 515 264 505 231 q 545 331 526 298 q 592 393 564 364 q 656 445 621 422 q 736 480 692 467 q 831 493 781 493 q 867 491 848 493 q 904 484 886 488 q 940 474 923 480 q 971 460 958 468 m 659 626 l 725 701 l 822 624 q 770 564 793 585 q 740 541 747 543 q 667 600 691 576 q 622 549 642 568 q 594 529 602 531 q 534 576 557 555 q 506 608 511 597 l 579 690 l 659 626 z "}}}
